<?xml version="1.0" standalone="no"?>
<!DOCTYPE svg PUBLIC "-//W3C//DTD SVG 1.1//EN" "http://www.w3.org/Graphics/SVG/1.1/DTD/svg11.dtd" >
<svg xmlns="http://www.w3.org/2000/svg">
<metadata></metadata>
<defs>
<font id="ubuntulight_italic" horiz-adv-x="780" >
<font-face units-per-em="2048" ascent="1638" descent="-410" />
<missing-glyph horiz-adv-x="498" />
<glyph unicode="&#xfb00;" horiz-adv-x="1449" d="M-30 -387q53 73 91 134.5t63.5 121.5t45 121t37.5 135l267 1108q30 129 80 212.5t113.5 133t137 69.5t147.5 20q50 0 87.5 -5t72.5 -16l-43 -120q-33 10 -65 15t-73 5q-55 0 -103 -15.5t-87.5 -52t-72 -98t-55.5 -154.5l-30 -115h371l-25 -121h-377l-184 -772 q-27 -102 -51 -189.5t-55.5 -163t-72.5 -142t-97 -130.5zM656 -387q54 73 91.5 134.5t63.5 121.5t45.5 121t35.5 135l267 1108q31 129 81 212.5t114 133t136.5 69.5t148.5 20q74 0 126.5 -12.5t97.5 -30.5l-67 -111q-46 15 -85.5 24t-93.5 9q-56 0 -103 -15.5t-87 -52 t-72 -98t-56 -154.5l-31 -115h373l-26 -121h-376l-185 -772q-26 -102 -50.5 -189.5t-56 -163t-72 -142t-97.5 -130.5z" />
<glyph unicode="&#xfb01;" horiz-adv-x="1216" d="M-30 -387q53 73 91 134.5t63.5 121.5t45 121t37.5 135l267 1108q30 129 80 212.5t113.5 133t137 69.5t147.5 20q50 0 87.5 -5t72.5 -16l-43 -120q-33 10 -65 15t-73 5q-55 0 -103 -15.5t-87.5 -52t-72 -98t-55.5 -154.5l-30 -115h371l-25 -121h-377l-184 -772 q-27 -102 -51 -189.5t-55.5 -163t-72.5 -142t-97 -130.5zM890 0l269 1112h140l-269 -1112h-140zM1215 1436q0 56 31.5 85.5t67.5 29.5q43 0 66.5 -27.5t23.5 -70.5q0 -51 -34 -79t-69 -28q-43 0 -64.5 24.5t-21.5 65.5z" />
<glyph unicode="&#xfb02;" horiz-adv-x="1319" d="M-30 -387q53 73 91 134.5t63.5 121.5t45 121t37.5 135l267 1108q30 129 80 212.5t113.5 133t137 69.5t147.5 20q50 0 87.5 -5t72.5 -16l-43 -120q-33 10 -65 15t-73 5q-55 0 -103 -15.5t-87.5 -52t-72 -98t-55.5 -154.5l-30 -115h371l-25 -121h-377l-184 -772 q-27 -102 -51 -189.5t-55.5 -163t-72.5 -142t-97 -130.5zM981 269q0 51 8.5 108.5t23.5 119.5l275 1146l144 25l-266 -1120q-17 -73 -33.5 -138.5t-16.5 -121.5q0 -35 6.5 -64t26 -51.5t55 -39t91.5 -30.5l-33 -122q-157 19 -219 95t-62 193z" />
<glyph unicode="&#xfb03;" horiz-adv-x="1902" d="M-30 -387q53 73 91 134.5t63.5 121.5t45 121t37.5 135l267 1108q30 129 80 212.5t113.5 133t137 69.5t147.5 20q50 0 87.5 -5t72.5 -16l-43 -120q-33 10 -65 15t-73 5q-55 0 -103 -15.5t-87.5 -52t-72 -98t-55.5 -154.5l-30 -115h371l-25 -121h-377l-184 -772 q-27 -102 -51 -189.5t-55.5 -163t-72.5 -142t-97 -130.5zM656 -387q54 73 91.5 134.5t63.5 121.5t45.5 121t35.5 135l267 1108q31 129 81 212.5t114 133t136.5 69.5t148.5 20q49 0 86.5 -5t72.5 -16l-43 -120q-33 10 -65 15t-73 5q-56 0 -103 -15.5t-87 -52t-72 -98 t-56 -154.5l-31 -115h373l-26 -121h-376l-185 -772q-26 -102 -50.5 -189.5t-56 -163t-72 -142t-97.5 -130.5zM1576 0l269 1112h139l-268 -1112h-140zM1900 1436q0 56 32 85.5t68 29.5q43 0 67 -27.5t24 -70.5q0 -51 -35 -79t-69 -28q-43 0 -65 24.5t-22 65.5z" />
<glyph unicode="&#xfb04;" horiz-adv-x="2007" d="M-30 -387q53 73 91 134.5t63.5 121.5t45 121t37.5 135l267 1108q30 129 80 212.5t113.5 133t137 69.5t147.5 20q50 0 87.5 -5t72.5 -16l-43 -120q-33 10 -65 15t-73 5q-55 0 -103 -15.5t-87.5 -52t-72 -98t-55.5 -154.5l-30 -115h371l-25 -121h-377l-184 -772 q-27 -102 -51 -189.5t-55.5 -163t-72.5 -142t-97 -130.5zM656 -387q54 73 91.5 134.5t63.5 121.5t45.5 121t35.5 135l267 1108q31 129 81 212.5t114 133t136.5 69.5t148.5 20q49 0 86.5 -5t72.5 -16l-43 -120q-33 10 -65 15t-73 5q-56 0 -103 -15.5t-87 -52t-72 -98 t-56 -154.5l-31 -115h373l-26 -121h-376l-185 -772q-26 -102 -50.5 -189.5t-56 -163t-72 -142t-97.5 -130.5zM1668 269q0 51 9 108.5t24 119.5l275 1146l144 25l-267 -1120q-17 -73 -33 -138.5t-16 -121.5q0 -35 7 -64t25.5 -51.5t54.5 -39t91 -30.5l-31 -122 q-158 19 -220.5 95t-62.5 193z" />
<glyph unicode="&#xd;" horiz-adv-x="498" />
<glyph horiz-adv-x="0" />
<glyph unicode=" "  horiz-adv-x="498" />
<glyph unicode="&#x09;" horiz-adv-x="498" />
<glyph unicode="&#xa0;" horiz-adv-x="498" />
<glyph unicode="!" horiz-adv-x="485" d="M158 78q0 47 32 89t89 42q56 0 82 -31.5t26 -72.5q0 -47 -32.5 -89t-89.5 -42q-56 0 -81.5 31.5t-25.5 72.5zM316 458q17 142 40.5 288t66.5 329l100 415h150l-99 -417q-8 -37 -29.5 -116t-49 -172t-54 -183.5t-47.5 -143.5h-78z" />
<glyph unicode="&#x22;" horiz-adv-x="765" d="M426 1114q9 109 23.5 220t42.5 221l19 79h152l-20 -81q-29 -107 -65 -221.5t-81 -217.5h-71zM748 1114q9 109 23.5 220t42.5 221l19 79h152l-20 -81q-29 -107 -65 -221.5t-81 -217.5h-71z" />
<glyph unicode="#" horiz-adv-x="1338" d="M189 406l28 117h213l192 443h-300l29 116h320l176 408h134l-177 -408h372l176 408h134l-177 -408h185l-29 -116h-205l-189 -443h290l-30 -117h-309l-175 -406h-133l174 406h-377l-173 -406h-133l173 406h-189zM564 523h374l189 443h-374z" />
<glyph unicode="$" horiz-adv-x="1212" d="M211 144l68 116q17 -10 45.5 -25.5t69.5 -30.5t92.5 -24.5t113.5 -9.5q71 0 142 15t126 48.5t89 88t34 132.5q0 71 -37.5 115t-94.5 76t-123.5 60t-124 69t-94.5 101.5t-37 158.5q0 162 105 258.5t297 122.5l60 253h129l-58 -242q99 -4 174 -32.5t112 -51.5l-69 -119 q-27 17 -93 44.5t-183 27.5q-71 0 -132 -14.5t-108 -43t-74 -75t-27 -108.5q0 -73 38.5 -118.5t95.5 -79t124 -62.5t123.5 -68.5t95.5 -100.5t39 -157q0 -90 -32 -162t-91.5 -124.5t-142.5 -86t-182 -44.5l-68 -285h-127l68 288q-49 -3 -101.5 7t-101 24t-86 30t-54.5 29z " />
<glyph unicode="%" horiz-adv-x="1687" d="M340 1032q0 76 25 162t74 158t124 120t179 48q123 0 186 -71.5t63 -207.5q0 -75 -24.5 -161.5t-74 -159.5t-126 -121t-179.5 -48q-123 0 -185 73t-62 208zM346 0l1179 1490h150l-1178 -1490h-151zM460 1049q0 -39 4 -73t17.5 -60t39 -41t70.5 -15q78 0 130.5 41t86 98 t48 118t14.5 104q0 41 -4 75.5t-18.5 60.5t-41 39.5t-71.5 13.5q-78 0 -130.5 -40.5t-84.5 -97.5t-46 -119.5t-14 -103.5zM1041 250q0 76 24.5 161.5t74.5 157t125 120t178 48.5q123 0 186.5 -72t63.5 -207q0 -76 -25 -161.5t-74.5 -159t-126 -122t-179.5 -48.5 q-122 0 -184.5 73.5t-62.5 209.5zM1161 267q0 -39 4.5 -73t17.5 -60.5t38.5 -41t71.5 -14.5q77 0 129.5 41t85.5 97.5t48.5 118t15.5 104.5q0 41 -4.5 75t-19.5 60t-40.5 40t-71.5 14q-77 0 -129.5 -41t-84.5 -97.5t-46.5 -119t-14.5 -103.5z" />
<glyph unicode="&#x26;" horiz-adv-x="1362" d="M211 338q0 69 20.5 132t69 123.5t128.5 115t199 106.5q-49 75 -73 151.5t-24 149.5q0 84 30 158t85 129t133.5 87t174.5 32q64 0 117.5 -21.5t92 -58t59 -87t20.5 -108.5q0 -55 -16 -112.5t-60.5 -114t-122.5 -115t-203 -117.5l-20 -12l283 -386q49 62 94 138t84 169 l128 -16q-43 -116 -103 -213.5t-129 -179.5q47 -70 87 -137t75 -151h-146q-17 49 -45.5 96.5t-62.5 96.5q-112 -103 -240 -157.5t-263 -54.5q-91 0 -159.5 29t-116 77t-72 113t-24.5 138zM353 355q0 -43 11.5 -86t38.5 -79t73 -58.5t117 -22.5q103 0 210.5 45.5t209.5 138.5 l-316 427q-58 -28 -119 -60t-112 -75t-82 -99t-31 -131zM667 1133q0 -66 22.5 -136t65.5 -131q114 50 184 97.5t107.5 94t50.5 91.5t13 88q0 82 -49.5 123.5t-118.5 41.5q-72 0 -123 -21.5t-85.5 -58t-50.5 -86.5t-16 -103z" />
<glyph unicode="'" horiz-adv-x="442" d="M426 1114q9 109 23.5 220t42.5 221l19 79h152l-20 -81q-29 -107 -65 -221.5t-81 -217.5h-71z" />
<glyph unicode="(" horiz-adv-x="648" d="M275 275q0 191 42 382.5t125 373.5t203 347.5t278 305.5l97 -71q-148 -134 -262.5 -290.5t-192 -328t-117.5 -351t-40 -357.5q0 -155 28 -311t87 -299l-108 -61q-70 163 -105 325.5t-35 334.5z" />
<glyph unicode=")" horiz-adv-x="648" d="M-47 -329q148 134 262 287t191.5 322t117.5 348.5t40 362.5q0 158 -29.5 319t-91.5 309l111 56q72 -166 107.5 -328.5t35.5 -335.5q0 -193 -42 -384.5t-125 -373.5t-203 -347.5t-278 -305.5z" />
<glyph unicode="*" horiz-adv-x="924" d="M286 1133l47 137q99 -32 173.5 -67t166.5 -83q-8 52 -14.5 96t-12.5 87t-9 88t-3 99h151q0 -54 -3.5 -99t-8.5 -88t-11.5 -87t-14.5 -96q92 48 166 83.5t173 66.5l47 -137q-101 -41 -185 -53.5t-189 -21.5q41 -36 75 -68.5t65.5 -65t61.5 -68t61 -80.5l-123 -84 q-31 45 -54.5 86t-46 80t-44 78.5t-44.5 87.5q-26 -48 -48 -87.5t-44.5 -78.5t-47 -80t-51.5 -86l-121 84q30 45 60 80.5t60 68t64.5 65t75.5 68.5q-51 5 -98 10t-90.5 12.5t-89 20.5t-94.5 32z" />
<glyph unicode="+" horiz-adv-x="1212" d="M275 562l31 119h408l113 468h127l-113 -468h409l-31 -119h-406l-114 -470h-125l112 470h-411z" />
<glyph unicode="," horiz-adv-x="511" d="M28 -286q43 54 79.5 120.5t63 134.5t43 129.5t22.5 106.5h151q-12 -72 -39.5 -147t-65 -146.5t-80 -135.5t-88.5 -114z" />
<glyph unicode="-" horiz-adv-x="599" d="M170 554l33 136h489l-32 -136h-490z" />
<glyph unicode="." horiz-adv-x="521" d="M168 76q0 47 32 89t90 42q55 0 81.5 -31.5t26.5 -72.5q0 -47 -32.5 -89t-90.5 -42q-56 0 -81.5 31.5t-25.5 72.5z" />
<glyph unicode="/" horiz-adv-x="812" d="M-133 -398l1200 2082h137l-1202 -2082h-135z" />
<glyph unicode="0" horiz-adv-x="1212" d="M258 417q0 127 21.5 258t62.5 253.5t101 231t134.5 189.5t164 128.5t189.5 47.5q181 -3 257 -125t76 -325q0 -189 -48 -386t-136.5 -357t-212 -262.5t-274.5 -102.5q-90 0 -154.5 33t-104 91.5t-58 141.5t-18.5 184zM404 437q0 -179 50.5 -259.5t149.5 -80.5 q105 0 199 84t163.5 220.5t110.5 308.5t41 346q0 179 -50.5 259t-149.5 80q-105 0 -198.5 -84t-163.5 -220.5t-111 -308t-41 -345.5z" />
<glyph unicode="1" horiz-adv-x="1212" d="M552 1182q125 45 250 116.5t247 191.5h104l-357 -1490h-138l306 1273q-69 -70 -172.5 -125.5t-212.5 -89.5z" />
<glyph unicode="2" horiz-adv-x="1212" d="M217 0q27 162 103 280t174.5 208.5t207.5 165.5t199 150.5t149.5 161t59.5 202.5q0 120 -65.5 173.5t-158.5 53.5q-90 0 -184.5 -37.5t-163.5 -95.5l-48 117q82 66 195 104.5t222 38.5q72 0 135.5 -19t111.5 -60t77 -105.5t29 -153.5q0 -100 -38 -183t-96.5 -154 t-134 -132t-152.5 -118q-95 -71 -172.5 -130t-134 -114.5t-93.5 -111.5t-52 -118h690l-28 -123h-832z" />
<glyph unicode="3" horiz-adv-x="1212" d="M168 47l56 121q60 -37 138.5 -54t162.5 -17q92 0 171.5 22.5t139 67.5t94 115t34.5 164q0 144 -102.5 207.5t-274.5 63.5l30 117h54q103 0 178.5 32t124 81.5t71 109.5t22.5 119q0 54 -17.5 92.5t-47.5 61t-70 33t-85 10.5q-75 0 -151 -23.5t-132 -60.5l-31 113 q76 47 161.5 73.5t178.5 26.5q66 0 129 -17t110 -54.5t76 -96.5t29 -145q0 -65 -19.5 -127t-59 -117.5t-99.5 -99.5t-140 -71q39 -15 76.5 -41t68.5 -65t50.5 -92.5t19.5 -124.5q0 -127 -50.5 -222t-132.5 -157t-188.5 -93.5t-217.5 -31.5q-95 0 -186 19.5t-171 60.5z" />
<glyph unicode="4" horiz-adv-x="1212" d="M205 404l21 84q66 117 164 247.5t215 263t248.5 259.5t266.5 232h140l-232 -969h183l-29 -117h-180l-95 -404h-137l94 404h-659zM387 521h503l189 784q-88 -71 -182.5 -161t-185.5 -192.5t-175 -212t-149 -218.5z" />
<glyph unicode="5" horiz-adv-x="1212" d="M172 45l58 127q62 -37 136.5 -56t150.5 -19q86 0 167 23.5t144.5 69.5t102.5 117t39 167q0 79 -29.5 132.5t-74.5 90t-102.5 56t-114 30.5t-107 13t-82.5 4q35 97 62.5 181t53.5 164t51 164t48 181h650l-28 -122h-525q-15 -49 -33.5 -109.5t-38 -123t-40 -122 t-34.5 -104.5q109 -10 200.5 -39t157 -81t101 -126t35.5 -173q0 -131 -49 -228.5t-131 -163t-191 -98.5t-224 -33q-90 0 -179.5 18.5t-173.5 59.5z" />
<glyph unicode="6" horiz-adv-x="1212" d="M269 411q0 219 74 415t209.5 343t329 235t432.5 92l-15 -126q-158 -4 -287.5 -48t-232 -119.5t-177.5 -178.5t-120 -222q82 41 168.5 64.5t176.5 23.5q97 0 167.5 -26.5t115.5 -74t66.5 -112t21.5 -141.5q0 -136 -46 -241.5t-122 -178.5t-171.5 -111t-193.5 -38 q-82 0 -154 28.5t-126 83t-85 137.5t-31 195zM413 411q0 -84 19.5 -145t54 -100t79.5 -57.5t94 -18.5q80 0 150 30t122.5 85t83.5 132.5t31 171.5q0 117 -60 184.5t-202 67.5q-88 0 -178 -25.5t-164 -62.5q-17 -62 -23.5 -128.5t-6.5 -133.5z" />
<glyph unicode="7" horiz-adv-x="1212" d="M370 0q36 119 92.5 248.5t126 259.5t149 256t163.5 238t168 204.5t161 154.5h-733l28 129h881l-29 -125q-97 -92 -221 -241.5t-245 -333t-226.5 -387t-165.5 -403.5h-149z" />
<glyph unicode="8" horiz-adv-x="1212" d="M213 286q0 62 16 128t58 130.5t114.5 125.5t181.5 112q-66 41 -110.5 110t-44.5 159q0 111 42.5 200t114 149.5t164 91t189.5 30.5q157 0 256 -78t99 -238q0 -62 -16.5 -125.5t-56.5 -123.5t-105.5 -116t-164.5 -104q101 -56 151 -133t50 -167q0 -111 -46.5 -199 t-124 -148t-178.5 -91.5t-213 -31.5q-76 0 -143.5 19.5t-119 58.5t-82.5 99.5t-31 141.5zM361 322q0 -62 19.5 -106t53.5 -71.5t79.5 -42t95.5 -14.5q76 0 146 23.5t125.5 67t88.5 105t33 137.5q0 66 -28 114t-73 82.5t-101 60.5t-114 49q-89 -46 -150.5 -97t-100.5 -103.5 t-56.5 -105.5t-17.5 -99zM574 1058q0 -55 24 -96t62.5 -72.5t87 -54t99.5 -41.5q155 82 227.5 181.5t72.5 210.5q0 108 -59.5 162t-169.5 54q-70 0 -130.5 -21.5t-109 -66t-76.5 -108.5t-28 -148z" />
<glyph unicode="9" horiz-adv-x="1212" d="M189 -2l26 123q164 -4 299 36t240.5 116t181 182.5t120.5 232.5q-100 -48 -189 -68t-138 -20q-101 0 -173 27t-118 73.5t-67.5 108t-21.5 133.5q0 140 45 247.5t120 181.5t171.5 112.5t200.5 38.5q76 0 144.5 -22.5t122 -72.5t84.5 -133t31 -204q0 -226 -71.5 -426 t-205 -348t-322.5 -234t-424 -86h-25.5t-30.5 2zM499 966q0 -97 59 -167t195 -70q71 0 155.5 19.5t183.5 66.5q33 131 33 279q0 150 -61 228t-178 78q-78 0 -148.5 -28t-123 -82.5t-84 -136.5t-31.5 -187z" />
<glyph unicode=":" horiz-adv-x="521" d="M168 76q0 47 32 89t90 42q55 0 81.5 -31.5t26.5 -72.5q0 -47 -32.5 -89t-90.5 -42q-56 0 -81.5 31.5t-25.5 72.5zM394 981q0 47 32 89t90 42q55 0 81.5 -31.5t26.5 -72.5q0 -47 -32.5 -89t-90.5 -42q-56 0 -81.5 31.5t-25.5 72.5z" />
<glyph unicode=";" horiz-adv-x="511" d="M28 -286q43 54 79.5 120.5t63 134.5t43 129.5t22.5 106.5h151q-12 -72 -39.5 -147t-65 -146.5t-80 -135.5t-88.5 -114zM394 981q0 47 32 89t90 42q55 0 81.5 -31.5t26.5 -72.5q0 -47 -32.5 -89t-90.5 -42q-56 0 -81.5 31.5t-25.5 72.5z" />
<glyph unicode="&#x3c;" horiz-adv-x="1212" d="M256 581l30 125l980 380l12 -132l-855 -322l691 -318l-69 -117z" />
<glyph unicode="=" horiz-adv-x="1212" d="M224 357l30 121h942l-28 -121h-944zM331 808l30 121h942l-28 -121h-944z" />
<glyph unicode="&#x3e;" horiz-adv-x="1212" d="M232 329l854 323l-690 318l68 116l790 -382l-31 -125l-980 -382z" />
<glyph unicode="?" horiz-adv-x="784" d="M254 78q0 47 32 89t90 42q56 0 82 -31.5t26 -72.5q0 -47 -32.5 -89t-90.5 -42q-55 0 -81 31.5t-26 72.5zM342 458q2 78 23.5 140t58 114.5t84.5 99t107 91.5l25 20q119 88 166.5 157t47.5 153q0 92 -58.5 128.5t-137.5 36.5q-69 0 -139 -19.5t-121 -42.5l-18 117 q64 31 144 50t160 19q64 0 122 -15t102 -48t70 -88t26 -134q0 -90 -39.5 -159t-101 -128.5t-131 -113.5t-131 -110.5t-101.5 -121t-40 -146.5h-118z" />
<glyph unicode="@" horiz-adv-x="1995" d="M254 380q0 277 89.5 490.5t239.5 358.5t348 219t417 74q155 0 283 -42t219 -128t142 -214.5t51 -304.5q0 -191 -52 -325t-131 -219.5t-175 -124.5t-181 -39q-60 0 -106 20.5t-62 59.5q-50 -35 -122.5 -59.5t-142.5 -24.5q-78 0 -142.5 20.5t-110.5 63.5t-73 108t-27 153 q0 136 43 250.5t120.5 195.5t186 127.5t241.5 46.5q103 0 185 -17.5t119 -32.5l-162 -653q-4 -17 -9.5 -36.5t-5.5 -38.5q0 -21 13.5 -42t77.5 -21q103 0 176.5 59t118.5 148.5t65.5 196t20.5 200.5q0 138 -41 242.5t-117.5 172t-184 102t-240.5 34.5q-176 0 -343 -66 t-297.5 -192.5t-209.5 -312.5t-79 -429q0 -293 158 -450t446 -157q137 0 303 39l-10 -118q-166 -43 -310 -43q-160 0 -294.5 47.5t-231 137.5t-150 222.5t-53.5 301.5zM866 480q0 -127 56.5 -184.5t152.5 -57.5q95 0 145 19.5t87 39.5q0 45 5.5 73t10.5 49l130 533 q-2 2 -16.5 5.5t-37 6t-49.5 4.5t-53 2q-95 0 -173.5 -36.5t-135.5 -102.5t-89.5 -156t-32.5 -195z" />
<glyph unicode="A" horiz-adv-x="1336" d="M43 0q222 400 456 778.5t460 711.5h157q54 -314 106.5 -678.5t102.5 -811.5h-151q-11 103 -23 204.5t-24 203.5h-701q-55 -98 -111.5 -199.5t-111.5 -208.5h-160zM499 533h613q-24 194 -52 388.5t-60 401.5q-132 -199 -256 -393.5t-245 -396.5z" />
<glyph unicode="B" horiz-adv-x="1283" d="M178 28l345 1435q69 16 163 29.5t196 13.5q92 0 180.5 -15.5t158 -54t111.5 -104.5t42 -164q0 -74 -25.5 -136t-67.5 -110.5t-98 -84t-116 -55.5q49 -12 89 -40t67 -66t42 -84t15 -93q0 -153 -62.5 -252t-164 -156.5t-231.5 -80.5t-268 -23q-102 0 -198 11.5t-178 29.5z M346 127q46 -8 99.5 -12t113.5 -4q105 0 207 15.5t182 57.5t128.5 115t48.5 191q0 127 -86.5 175.5t-281.5 48.5h-273zM517 839h199q271 0 388 82.5t117 219.5q0 129 -91.5 183.5t-277.5 54.5q-58 0 -112 -4.5t-95 -11.5z" />
<glyph unicode="C" horiz-adv-x="1311" d="M297 544q0 230 71 411.5t191 307.5t277 192.5t330 66.5q100 0 187.5 -21.5t177.5 -70.5l-66 -133q-155 94 -330 94q-135 0 -258.5 -59t-218 -168.5t-150.5 -265.5t-56 -350q0 -219 94 -334t291 -115q86 0 152.5 11t115 25.5t81.5 31l57 28.5l19 -129q-88 -47 -200 -73 t-221 -26q-121 0 -220.5 34t-172 103.5t-112 178.5t-39.5 261z" />
<glyph unicode="D" horiz-adv-x="1459" d="M178 28l343 1435q105 24 191 32.5t170 8.5q329 0 488 -160t159 -452q0 -197 -64.5 -364t-190 -287t-313 -187t-432.5 -67q-43 0 -91 3.5t-94.5 7.5t-89.5 11.5t-76 18.5zM349 129q53 -8 102.5 -11.5t98.5 -3.5q203 0 356.5 59t256.5 162.5t156 244t53 306.5 q0 248 -123.5 370.5t-386.5 122.5q-54 0 -108.5 -4.5t-110.5 -13.5z" />
<glyph unicode="E" horiz-adv-x="1126" d="M178 0l358 1490h832l-28 -127h-691l-126 -518h614l-27 -125h-611l-148 -593h739l-25 -127h-887z" />
<glyph unicode="F" horiz-adv-x="1075" d="M178 0l358 1490h823l-28 -127h-682l-128 -524h608l-30 -127h-602l-173 -712h-146z" />
<glyph unicode="G" horiz-adv-x="1375" d="M297 556q0 190 60 364t171.5 307.5t272 214t358.5 80.5q97 0 165.5 -10t117 -25.5t79 -33t53.5 -27.5l-66 -133q-6 6 -36.5 22t-79 33t-112 30t-139.5 13q-159 0 -286.5 -68.5t-217 -182.5t-137.5 -263.5t-48 -312.5q0 -224 96.5 -344.5t311.5 -120.5q69 0 141 12t148 37 l126 549h147l-156 -648q-96 -39 -199 -60.5t-201 -21.5q-148 0 -256.5 41t-177.5 119t-102 186t-33 243z" />
<glyph unicode="H" horiz-adv-x="1408" d="M178 0l358 1490h145l-158 -647h772l154 647h147l-355 -1490h-147l172 716h-769l-173 -716h-146z" />
<glyph unicode="I" horiz-adv-x="494" d="M178 0l358 1490h145l-354 -1490h-149z" />
<glyph unicode="J" horiz-adv-x="967" d="M39 92l75 113q33 -33 108 -69.5t178 -36.5q58 0 110 12t97 46t81 97.5t63 166.5l258 1069h146l-258 -1086q-31 -129 -80 -213t-114 -134.5t-143 -70t-166 -19.5q-112 0 -201.5 35t-153.5 90z" />
<glyph unicode="K" horiz-adv-x="1287" d="M178 0l358 1490h143l-162 -686q105 76 228 172.5t242 193t218.5 181.5t157.5 139h194q-71 -64 -181 -156.5t-232 -191.5t-246 -197t-223 -175q78 -58 162 -151.5t162 -201t145 -217.5t106 -200h-160q-125 240 -268 430t-321 319l-177 -749h-146z" />
<glyph unicode="L" horiz-adv-x="1018" d="M178 0l355 1490h146l-326 -1365h660l-28 -125h-807z" />
<glyph unicode="M" horiz-adv-x="1786" d="M146 0q109 402 229 778.5t229 711.5h147q32 -129 65 -275t63 -293.5t55 -286t42 -252.5q80 123 179 272t199.5 300t198 290.5t174.5 244.5h150q-19 -195 -45 -381t-55 -369.5t-62 -367t-70 -372.5h-151q76 351 130.5 669t95.5 601q-33 -40 -89.5 -120.5t-125.5 -182 t-143 -213t-142.5 -215.5t-125 -189t-85.5 -135h-129q-8 60 -23.5 148.5t-34 189.5t-39 208t-41 205.5t-38.5 177.5t-31 129q-94 -284 -191 -608.5t-189 -664.5h-147z" />
<glyph unicode="N" horiz-adv-x="1438" d="M178 0l358 1490h143q80 -138 158.5 -307.5t148.5 -342.5t122.5 -332t81.5 -274l292 1256h143l-352 -1490h-144q-39 131 -97 306.5t-125.5 356t-138.5 347t-136 283.5l-310 -1293h-144z" />
<glyph unicode="O" horiz-adv-x="1607" d="M297 554q0 222 73 401.5t193.5 305.5t272 193.5t311.5 67.5q105 0 201.5 -35.5t170 -107.5t116 -182.5t42.5 -258.5q0 -224 -73 -403.5t-193.5 -305.5t-273 -194t-310.5 -68q-107 0 -202.5 36t-168.5 108t-116 182.5t-43 260.5zM452 531q0 -109 29.5 -191t84 -135 t124 -79.5t151.5 -26.5q131 0 253.5 57t217 167t152.5 270t58 366q0 109 -29.5 191.5t-84 135t-125 79t-150.5 26.5q-131 0 -253.5 -56.5t-218 -166.5t-152.5 -270t-57 -367z" />
<glyph unicode="P" horiz-adv-x="1214" d="M178 0l351 1463q82 16 175.5 28.5t190.5 12.5q256 0 376 -97.5t120 -279.5q0 -121 -48 -222t-139.5 -174t-227 -114t-309.5 -41h-203l-140 -576h-146zM492 704h194q262 0 406.5 107t144.5 297q0 139 -90.5 204t-284.5 65q-56 0 -110.5 -6t-99.5 -10z" />
<glyph unicode="Q" horiz-adv-x="1607" d="M297 554q0 222 73 401.5t193.5 305.5t272 193.5t311.5 67.5q105 0 201.5 -35.5t170 -107.5t116 -182.5t42.5 -258.5q0 -211 -65 -383t-174 -297t-249 -198t-288 -88q-6 -19 -6 -36q0 -43 34.5 -76.5t92 -59.5t131.5 -44t154 -31l-55 -121q-76 9 -163 28t-161 55 t-123.5 90.5t-49.5 138.5v27t4 29q-94 10 -179 51t-147.5 113.5t-99 176.5t-36.5 241zM452 531q0 -109 29.5 -191t84 -135t124 -79.5t151.5 -26.5q131 0 253.5 57t217 167t152.5 270t58 366q0 109 -29.5 191.5t-84 135t-125 79t-150.5 26.5q-131 0 -253.5 -56.5t-218 -166.5 t-152.5 -270t-57 -367z" />
<glyph unicode="R" horiz-adv-x="1272" d="M178 0l351 1463q76 14 165 27.5t184 13.5q254 0 380.5 -102.5t126.5 -289.5q0 -168 -107.5 -294t-327.5 -182q26 -47 62.5 -123t74.5 -164.5t73.5 -179.5t58.5 -169h-154q-60 183 -132.5 341t-134.5 268q-71 -6 -149 -7h-181l-144 -602h-146zM497 727h178 q269 0 413.5 102t144.5 287q0 136 -91 198.5t-286 62.5q-56 0 -108.5 -6t-95.5 -10z" />
<glyph unicode="S" horiz-adv-x="1046" d="M103 74l75 126q62 -48 151.5 -77t187.5 -29q77 0 148.5 18.5t129 58.5t92 101t34.5 147t-41 140t-102.5 92.5t-133.5 72t-133.5 81t-102 115t-40.5 176.5q0 78 32.5 154.5t100 136.5t169.5 97.5t241 37.5q93 0 176 -18t179 -66l-74 -122q-76 45 -150 63.5t-156 18.5 q-71 0 -136.5 -16.5t-117 -49.5t-82.5 -87.5t-31 -132.5q0 -86 40.5 -140t102.5 -92.5t133 -72t133.5 -80t103.5 -117t41 -184.5q0 -84 -33.5 -167t-105.5 -147.5t-183 -104.5t-265 -40q-103 0 -201 28.5t-182 78.5z" />
<glyph unicode="T" horiz-adv-x="1130" d="M365 1363l29 127h1059l-29 -127h-456l-328 -1363h-145l326 1363h-456z" />
<glyph unicode="U" horiz-adv-x="1393" d="M297 387q0 95 25 198l216 905h146l-218 -901q-10 -49 -17.5 -97.5t-7.5 -93.5q0 -64 15 -119t51.5 -96t94.5 -65t147 -24q98 0 173.5 28t132.5 87.5t98 152t72 221.5l220 907h147l-224 -928q-39 -158 -93 -271t-130 -184.5t-177.5 -106.5t-232.5 -35q-114 0 -196.5 31.5 t-136 87.5t-79.5 133.5t-26 169.5z" />
<glyph unicode="V" horiz-adv-x="1278" d="M365 1490h142q19 -224 39 -411t40.5 -348t41.5 -301t47 -266q207 281 403.5 616.5t382.5 709.5h162q-135 -252 -255.5 -463.5t-232 -393t-216 -337.5t-209.5 -296h-136q-30 150 -57 298.5t-51.5 321t-49 383t-51.5 487.5z" />
<glyph unicode="W" horiz-adv-x="1863" d="M366 736q6 370 30 754h142q-21 -324 -29 -656q-3 -133 -3 -268q0 -201 7 -404q91 141 169.5 267.5t156 259t159 280t180.5 330.5h129q11 -162 26 -321t31.5 -306t35 -277t34.5 -231q72 125 147 280.5t150 327.5t150.5 354.5t146.5 363.5h159q-174 -435 -346.5 -801.5 t-354.5 -688.5h-155q-41 226 -75.5 493.5t-57.5 579.5q-160 -290 -318 -550.5t-328 -522.5h-154q-32 318 -32 640q-1 48 0 96z" />
<glyph unicode="X" horiz-adv-x="1182" d="M21 0l678 788l-303 702h158l257 -604q139 160 262 311t226 293h164q-151 -195 -296 -367.5t-301 -344.5q78 -187 162 -384t156 -394h-158q-21 66 -50.5 145t-63.5 166t-73 178.5t-80 181.5l-562 -671h-176z" />
<glyph unicode="Y" horiz-adv-x="1192" d="M387 1490h159q43 -185 99 -382t125 -366q73 82 154.5 176.5t161.5 193.5t150.5 195.5t126.5 182.5h174q-148 -197 -335 -427t-389 -461l-142 -602h-146l142 602q-41 109 -79 225.5t-73 230.5t-67.5 224.5t-60.5 207.5z" />
<glyph unicode="Z" horiz-adv-x="1176" d="M86 0l23 109q62 88 149.5 195t187.5 223t206.5 234.5t210 229t198 206.5t169.5 166h-781l31 127h954l-30 -133q-62 -56 -148 -142t-186 -188t-205.5 -218.5t-210 -233.5t-199 -232t-169.5 -216h832l-28 -127h-1004z" />
<glyph unicode="[" horiz-adv-x="655" d="M125 -398l501 2082h421l-23 -108h-293l-452 -1866h295l-28 -108h-421z" />
<glyph unicode="\" horiz-adv-x="775" d="M383 1684h128l226 -2082h-128z" />
<glyph unicode="]" horiz-adv-x="657" d="M-111 -398l25 108h293l451 1866h-295l29 108h421l-501 -2082h-423z" />
<glyph unicode="^" horiz-adv-x="1212" d="M322 774l564 716h105l226 -731l-105 -47l-201 632l-492 -626z" />
<glyph unicode="_" horiz-adv-x="1180" d="M-26 -398l28 117h1075l-28 -117h-1075z" />
<glyph unicode="`" horiz-adv-x="722" d="M458 1537l114 125l314 -333l-75 -75z" />
<glyph unicode="a" horiz-adv-x="1122" d="M211 383q0 172 55.5 312t156 237.5t237 151t297.5 53.5q133 0 256 -45l-166 -669q-13 -53 -21.5 -100.5t-8.5 -90.5q0 -58 10.5 -109.5t39.5 -114.5l-144 -21q-13 27 -23 60t-14 67q-75 -73 -158 -107.5t-172 -34.5q-69 0 -131 23.5t-109 73.5t-76 128t-29 186zM353 411 q0 -89 17 -147.5t47 -94.5t70 -52t85 -16q88 0 165.5 42t146.5 119q0 58 17 133.5t32 135.5l114 460q-39 9 -71 13.5t-67 4.5q-133 0 -236 -52t-174 -136t-108.5 -191t-37.5 -219z" />
<glyph unicode="b" horiz-adv-x="1124" d="M168 37l384 1606l147 25l-147 -617q64 43 137.5 64.5t145.5 21.5q182 0 270.5 -111.5t88.5 -303.5q0 -137 -47.5 -271.5t-140 -240t-230.5 -171t-318 -65.5q-152 0 -290 63zM331 127q77 -24 153 -24q140 0 246.5 56t177.5 144.5t107 196t36 212.5q0 154 -67.5 225.5 t-170.5 71.5q-70 0 -148 -31.5t-154 -89.5z" />
<glyph unicode="c" horiz-adv-x="977" d="M211 394q0 146 45 280t132.5 237.5t214 164.5t287.5 61q112 0 222 -36l-58 -127q-49 19 -98 27t-94 8q-114 0 -207 -49t-160 -131t-103.5 -191t-36.5 -230q0 -141 65.5 -223t209.5 -82q45 0 91.5 9t85 20.5t68.5 24.5t46 24l15 -127q-44 -29 -133 -54.5t-199 -25.5 q-196 0 -294.5 111.5t-98.5 308.5z" />
<glyph unicode="d" horiz-adv-x="1160" d="M211 390q0 135 44 268.5t135.5 239.5t231 172.5t328.5 66.5q70 0 140 -12l123 518l146 25l-310 -1283q-11 -39 -16 -75.5t-5 -71.5q0 -62 10.5 -118t38.5 -112l-144 -21q-10 21 -21 57t-15 70q-19 -21 -50.5 -46t-74.5 -45.5t-96.5 -34.5t-119.5 -14q-92 0 -157.5 33.5 t-107 89t-61 132.5t-19.5 161zM353 408q0 -64 11.5 -119t37.5 -97t66.5 -65.5t99.5 -23.5q54 0 102 15t90 37.5t76 50.5t59 54q0 56 15 126t34 145l116 467q-30 4 -66.5 7.5t-66.5 3.5q-150 0 -259 -55t-179 -142.5t-103 -194t-33 -209.5z" />
<glyph unicode="e" horiz-adv-x="1048" d="M211 383q0 138 42 273.5t123.5 242.5t201 172.5t271.5 65.5q151 0 231.5 -78t80.5 -207q0 -121 -59 -196t-165 -119.5t-256 -63.5t-332 -28v-45q0 -62 12.5 -116t47 -94t96 -63.5t158.5 -23.5q75 0 151 21.5t145 64.5l15 -129q-73 -41 -161.5 -63.5t-178.5 -22.5 q-118 0 -198.5 30.5t-131 84t-72 129t-21.5 165.5zM370 572q182 4 307 23.5t201 54t109 82.5t33 111q0 84 -50.5 126t-132.5 42q-86 0 -161.5 -35.5t-135.5 -96t-104 -140t-66 -167.5z" />
<glyph unicode="f" horiz-adv-x="763" d="M-30 -387q53 73 91 134.5t63.5 121.5t45 121t37.5 135l267 1108q30 129 80 212.5t113.5 133t137 69.5t147.5 20t126.5 -12.5t97.5 -30.5l-66 -111q-45 15 -85 24t-94 9q-55 0 -103 -15.5t-87.5 -52t-72 -98t-55.5 -154.5l-30 -115h371l-25 -121h-377l-184 -772 q-27 -102 -51 -189.5t-55.5 -163t-72.5 -142t-97 -130.5z" />
<glyph unicode="g" horiz-adv-x="1126" d="M35 -324l59 133q46 -37 131 -60.5t169 -23.5q197 0 303.5 90.5t139.5 255.5l10 56q-64 -41 -137.5 -61.5t-145.5 -20.5q-93 0 -161 30t-110.5 83t-64 123t-21.5 149q0 123 44 248.5t136.5 228t231 166.5t329.5 64q78 0 146.5 -15.5t122.5 -46.5l-241 -1001 q-20 -91 -55 -177t-101.5 -152.5t-177.5 -107.5t-285 -41q-35 0 -78 5t-87 16t-85 25t-72 34zM349 460q0 -58 10.5 -110.5t36 -91.5t70.5 -61.5t117 -22.5q73 0 151.5 27t149.5 72l174 720q-69 17 -133 18q-148 0 -257 -52t-180 -132t-105 -178.5t-34 -188.5z" />
<glyph unicode="h" horiz-adv-x="1171" d="M178 0l392 1643l146 25l-142 -586q136 55 257 55q73 0 135 -21.5t109 -64t74 -108t27 -155.5q0 -56 -8.5 -115.5t-23.5 -120.5l-133 -552h-141l119 495q17 71 32 144t15 139q0 64 -20.5 108.5t-53.5 71.5t-78 39t-94 12q-62 0 -126 -13t-120 -32l-226 -964h-140z" />
<glyph unicode="i" horiz-adv-x="505" d="M178 0l269 1112h140l-269 -1112h-140zM503 1436q0 56 31.5 85.5t67.5 29.5q43 0 66.5 -27.5t23.5 -70.5q0 -51 -34 -79t-69 -28q-43 0 -64.5 24.5t-21.5 65.5z" />
<glyph unicode="j" horiz-adv-x="505" d="M-217 -365l32 117q35 -17 66 -25t72 -8q57 0 98 23.5t72 65.5t51.5 99.5t38.5 127.5l255 1077h141l-252 -1052q-28 -117 -61.5 -203.5t-81.5 -144.5t-116 -87t-162 -29q-54 0 -91.5 12t-61.5 27zM529 1436q0 56 31 85.5t68 29.5q43 0 66.5 -27.5t23.5 -70.5 q0 -51 -34.5 -79t-68.5 -28q-43 0 -64.5 24.5t-21.5 65.5z" />
<glyph unicode="k" horiz-adv-x="1072" d="M178 0l396 1643l146 25l-246 -1028q77 52 157.5 117.5t154.5 131t134.5 125t94.5 98.5h169q-38 -49 -110 -120t-152.5 -144.5t-159 -137t-130.5 -93.5q74 -55 143.5 -130.5t127.5 -159.5t104.5 -168.5t71.5 -158.5h-150q-94 203 -215 347.5t-254 235.5l-142 -583h-140z " />
<glyph unicode="l" horiz-adv-x="571" d="M232 269q0 51 9 108.5t24 119.5l275 1146l144 25l-267 -1120q-17 -73 -33 -138.5t-16 -121.5q0 -35 6 -64t25.5 -51.5t55 -39t91.5 -30.5l-33 -122q-157 19 -219 95t-62 193z" />
<glyph unicode="m" horiz-adv-x="1765" d="M178 0l257 1073q32 11 72.5 22t85.5 19t92.5 13.5t90.5 5.5q90 0 164.5 -24.5t124.5 -88.5q109 64 192 88.5t163 24.5q73 0 136 -16t110.5 -54.5t75.5 -105.5t28 -169q0 -56 -9 -115.5t-23 -120.5l-134 -552h-139l117 495q17 71 32.5 144t15.5 139t-17 110.5t-48.5 70.5 t-72.5 35.5t-88 9.5q-45 0 -117 -16t-173 -81q13 -55 13 -119q0 -56 -8.5 -115.5t-24.5 -120.5l-133 -552h-140l119 495q17 71 32 144t15 139t-17.5 110.5t-48.5 70.5t-72 35.5t-88 9.5q-49 0 -105 -8.5t-104 -21.5l-234 -974h-140z" />
<glyph unicode="n" horiz-adv-x="1173" d="M178 0l257 1073q84 24 178.5 42t186.5 18q78 0 146.5 -16t120 -56.5t81.5 -107.5t30 -165q0 -56 -8.5 -115.5t-22.5 -120.5l-134 -552h-140l118 495q17 71 31 144t16 139q0 66 -20 109.5t-55.5 69.5t-82.5 36.5t-100 10.5q-56 0 -113.5 -8.5t-114.5 -21.5l-234 -974h-140 z" />
<glyph unicode="o" horiz-adv-x="1130" d="M211 349q0 202 56.5 350t146 245t198 144t213.5 47q76 0 143.5 -23.5t119 -71t82 -117t30.5 -160.5q0 -202 -57 -350t-146.5 -246t-198 -145.5t-213.5 -47.5q-76 0 -143.5 23.5t-119 71.5t-81.5 117.5t-30 162.5zM353 357q0 -127 71 -191.5t169 -64.5q78 0 160 40 t149.5 120.5t111.5 203t44 288.5q0 127 -71 191.5t-170 64.5q-78 0 -159.5 -40t-149 -120.5t-111.5 -203t-44 -288.5z" />
<glyph unicode="p" horiz-adv-x="1115" d="M82 -398l353 1465q90 32 180.5 51t178.5 19q390 0 390 -406q0 -146 -47 -281.5t-138.5 -240t-223.5 -166.5t-301 -62q-84 0 -156 19l-94 -398h-142zM353 129q66 -19 135 -20q134 0 236.5 53t174 138t108 191t36.5 217q0 161 -71 235t-213 74q-49 0 -99.5 -8.5 t-105.5 -23.5z" />
<glyph unicode="q" horiz-adv-x="1158" d="M211 378q0 135 44 272.5t139.5 244.5t247.5 174.5t369 67.5q41 0 106 -12.5t110 -42.5l-357 -1480h-139l104 433q-50 -29 -120 -45t-147 -16q-97 0 -165 33.5t-110.5 89t-62 129t-19.5 152.5zM353 398q0 -45 8.5 -97.5t34 -97.5t74.5 -75.5t127 -30.5q76 0 149 26.5 t127 69.5l194 802q-24 5 -51 11.5t-48 6.5q-140 0 -253 -46t-193.5 -128t-124.5 -195t-44 -246z" />
<glyph unicode="r" horiz-adv-x="786" d="M178 0l255 1063q81 32 179 53t192 21q50 0 95 -6t86 -21l-37 -127q-84 26 -172 26q-56 0 -111.5 -9t-112.5 -26l-234 -974h-140z" />
<glyph unicode="s" horiz-adv-x="859" d="M103 49l61 127q80 -43 139.5 -58t135.5 -15q53 0 102.5 12t86.5 35.5t58.5 62.5t21.5 90q0 56 -31.5 93t-78 63.5t-100 52.5t-99.5 60.5t-77.5 86t-31.5 133.5q0 92 34.5 157.5t93 107.5t133.5 61t155 19q69 0 136 -11.5t130 -35.5l-56 -124q-46 19 -103.5 31t-120.5 12 q-52 0 -100 -11t-84.5 -35.5t-59 -62.5t-22.5 -92q0 -55 31 -92t76.5 -64.5t100 -52.5t99.5 -59.5t76.5 -83t31.5 -123.5q0 -95 -35.5 -163.5t-93.5 -111.5t-133.5 -63.5t-155.5 -20.5q-84 0 -167.5 18t-152.5 57z" />
<glyph unicode="t" horiz-adv-x="810" d="M243 234q0 93 30 213l238 991l147 27l-84 -353h392l-28 -121h-394l-131 -544q-11 -39 -18.5 -83t-7.5 -87q0 -96 47.5 -135t117.5 -39t120 15t106 42l14 -127q-58 -25 -130.5 -42t-142.5 -17q-56 0 -106 13t-87.5 43t-60 80t-22.5 124z" />
<glyph unicode="u" horiz-adv-x="1122" d="M211 286q0 62 10.5 132t28.5 141l133 553h140l-119 -490q-17 -76 -37.5 -159t-20.5 -157q0 -44 9.5 -80.5t33.5 -64.5t62.5 -43t98.5 -15q103 0 182 41t148 118q0 58 17 133.5t32 135.5l144 581h140l-170 -689q-13 -53 -21.5 -100.5t-8.5 -90.5q0 -58 10.5 -109.5 t39.5 -114.5l-145 -21q-13 27 -22.5 60t-13.5 67q-76 -73 -161 -106.5t-188 -33.5q-92 0 -154.5 23.5t-99 65.5t-52.5 99t-16 124z" />
<glyph unicode="v" horiz-adv-x="977" d="M279 1112h138q2 -117 11 -246t23.5 -257.5t35 -249.5t46.5 -215q64 86 141 205t150 251.5t134.5 265t97.5 246.5h138q-43 -136 -112 -284.5t-153 -294.5t-179.5 -284t-187.5 -249h-139q-53 238 -96 524.5t-48 587.5z" />
<glyph unicode="w" horiz-adv-x="1640" d="M279 1112h138q2 -114 9 -248.5t17.5 -268t23.5 -251.5t30 -198q69 97 141 215.5t137.5 246t122 256.5t95.5 248h144q0 -105 6 -230t14.5 -254t20.5 -253.5t26 -228.5q52 58 126 175.5t149.5 256t141 280.5t97.5 254h137q-49 -160 -128.5 -326t-168.5 -316t-177 -273 t-156 -197h-146q-21 189 -40 408.5t-24 432.5q-43 -101 -100 -216.5t-121.5 -228t-132.5 -215.5t-132 -181h-146q-45 236 -72 518t-32 594z" />
<glyph unicode="x" horiz-adv-x="971" d="M26 0l520 583l-275 529h164l217 -449q99 120 192.5 239.5t148.5 209.5h156q-95 -142 -210.5 -284t-222.5 -266q28 -54 62.5 -121t70 -141t66.5 -150t55 -150h-147q-15 49 -38.5 110.5t-52 126t-59 128t-56.5 115.5l-422 -480h-169z" />
<glyph unicode="y" horiz-adv-x="971" d="M-127 -365l49 115q56 -31 128 -31h4q109 0 214.5 59.5t195.5 182.5q-90 286 -141.5 581t-60.5 570h146q5 -103 15 -226t29 -256t47 -272t69 -270q97 152 174 308t135.5 293.5t96 248.5t54.5 174h138q-13 -45 -47.5 -154t-92.5 -252.5t-141 -310.5t-190 -326 q-166 -247 -321 -360t-323 -113q-38 0 -83.5 6t-94.5 33z" />
<glyph unicode="z" horiz-adv-x="919" d="M86 0l23 99q43 69 107.5 150.5t139 165.5t154 168t156 159t144.5 139.5t119 109.5h-578l25 121h759l-25 -110q-45 -41 -116 -108t-153 -147t-168 -169.5t-164.5 -173.5t-140.5 -158t-95 -125h634l-25 -121h-796z" />
<glyph unicode="{" horiz-adv-x="655" d="M232 568l26 105q62 0 104 31t70 79t45.5 101.5t27.5 98.5l57 223q30 123 57.5 209.5t75 141t125 80t206.5 25.5l-28 -107q-54 0 -98 -8t-79.5 -32.5t-62.5 -70.5t-46 -121l-63 -254q-26 -101 -49.5 -177.5t-51 -132t-63.5 -92.5t-85 -58q54 -33 70 -80t16 -101 q0 -38 -7.5 -78t-16.5 -77l-86 -355q-15 -58 -15 -101q0 -69 47.5 -99t139.5 -30l-29 -107q-134 0 -208.5 52.5t-74.5 166.5q0 25 7 64t17 82l82 331q11 39 16 74.5t5 65.5q0 62 -28.5 103.5t-102.5 47.5z" />
<glyph unicode="|" horiz-adv-x="577" d="M125 -398l501 2082h129l-501 -2082h-129z" />
<glyph unicode="}" horiz-adv-x="655" d="M-39 -419l29 107q53 0 97 7.5t80 32t62.5 71.5t45.5 121l63 254q26 101 49.5 177.5t51 132.5t63.5 92.5t85 57.5q-54 33 -70 80t-16 101q0 39 8 78.5t16 76.5l86 355q15 58 15 101q0 69 -47.5 99t-139.5 30l29 107q134 0 208.5 -52.5t74.5 -166.5q0 -24 -7 -63.5 t-17 -82.5l-82 -331q-11 -39 -16 -74.5t-5 -66.5q0 -62 28.5 -103t102.5 -47l-26 -105q-62 0 -104 -31.5t-70 -78.5t-45.5 -100.5t-27.5 -99.5l-56 -223q-30 -123 -58 -210t-75.5 -142t-125 -79.5t-206.5 -24.5z" />
<glyph unicode="~" horiz-adv-x="1212" d="M228 507q15 37 41 84t65.5 89t93.5 71t124 29t118 -31t90 -68.5t85 -68.5t101 -31q45 0 79.5 22.5t59.5 52.5t39.5 59t22.5 42l103 -35q-13 -34 -38.5 -81.5t-65.5 -89.5t-96.5 -70.5t-128.5 -28.5q-69 0 -117.5 30.5t-90.5 68.5t-84 69.5t-98 31.5q-45 0 -79.5 -24 t-59 -54t-39.5 -59t-22 -41z" />
<glyph unicode="&#xa1;" horiz-adv-x="571" d="M197 -398h152l98 415q43 183 67 329t40 288h-76q-21 -55 -48.5 -144.5t-54 -182t-48 -173t-30.5 -115.5zM484 987q0 47 32.5 89t90.5 42q56 0 81.5 -31t25.5 -72q0 -47 -32.5 -89t-90.5 -42q-55 0 -81 31t-26 72z" />
<glyph unicode="&#xa2;" horiz-adv-x="1212" d="M320 476q0 120 38 235.5t110 213t178.5 166t243.5 91.5l76 308h126l-72 -304q53 0 117.5 -13.5t118.5 -37.5l-56 -122q-58 29 -114 40.5t-112 11.5q-107 0 -200 -45.5t-162.5 -125t-109.5 -188.5t-40 -232q0 -76 24.5 -130t66.5 -88t98.5 -50.5t116.5 -16.5 q66 0 134 17.5t126 49.5l8 -125q-32 -17 -111.5 -41t-173.5 -24l-74 -300h-127l76 308q-84 16 -143.5 55t-94.5 91.5t-51.5 118t-16.5 137.5z" />
<glyph unicode="&#xa3;" horiz-adv-x="1212" d="M277 0q56 148 117.5 320t97.5 345h-206l28 117h207l47 199q37 154 90.5 257.5t122 166t152.5 88t183 25.5q74 0 142.5 -19.5t124.5 -51.5l-67 -116q-93 56 -226 56q-66 0 -123.5 -18.5t-104.5 -64.5t-84.5 -124.5t-65.5 -196.5l-47 -201h421l-30 -117h-420 q-24 -115 -67.5 -260t-100.5 -282h644l-30 -123h-805z" />
<glyph unicode="&#xa4;" horiz-adv-x="1212" d="M310 335l158 164q-36 49 -55 112.5t-19 135.5q0 71 19.5 134t54.5 112l-158 164l86 88l163 -168q49 37 109.5 56.5t127.5 19.5q66 0 126.5 -19.5t109.5 -56.5l164 168l86 -88l-160 -164q37 -49 56.5 -112.5t19.5 -133.5q0 -72 -19.5 -135.5t-56.5 -112.5l160 -164 l-86 -87l-164 167q-49 -37 -109.5 -56t-126.5 -19t-126.5 19t-110.5 56l-163 -167zM519 747q0 -65 21.5 -119t58.5 -92.5t87.5 -60t109.5 -21.5q58 0 108 21.5t88 60t59.5 92.5t21.5 119q0 64 -21.5 117.5t-59.5 92t-88 60t-108 21.5t-109 -21.5t-88 -60t-58.5 -92 t-21.5 -117.5z" />
<glyph unicode="&#xa5;" horiz-adv-x="1212" d="M222 248l28 113h359l60 256h-359l28 114h329q-82 199 -144.5 385.5t-109.5 373.5h149q39 -183 91 -351.5t125 -338.5q154 170 293.5 344t266.5 346h141q-69 -92 -137.5 -184.5t-142.5 -187t-157 -191t-180 -196.5h336l-28 -114h-362l-59 -256h361l-28 -113h-362l-60 -248 h-139l60 248h-359z" />
<glyph unicode="&#xa6;" horiz-adv-x="564" d="M133 -398l194 806h133l-193 -806h-134zM439 876l195 808h134l-194 -808h-135z" />
<glyph unicode="&#xa7;" horiz-adv-x="1057" d="M125 -158l66 121q56 -39 133.5 -58t157.5 -19q62 0 121.5 13t104.5 40.5t72.5 69.5t27.5 100q0 60 -38.5 97t-97.5 62t-126.5 47.5t-127 57.5t-98.5 91.5t-39 146.5q0 123 78 216.5t209 167.5q-32 41 -49.5 87.5t-17.5 89.5q0 92 39 159t102.5 109t144.5 62t167 20 q82 0 161 -17t141 -50l-60 -109q-49 35 -114 51t-130 16q-60 0 -116 -14t-98.5 -41t-68.5 -66.5t-26 -91.5q0 -69 37.5 -107.5t92 -64.5t120.5 -47.5t121 -55t92.5 -88.5t37.5 -145q0 -121 -77.5 -211.5t-200.5 -160.5q39 -30 62.5 -76.5t23.5 -108.5q0 -96 -41 -166 t-107.5 -115t-152 -66.5t-177.5 -21.5q-93 0 -183.5 19.5t-165.5 56.5zM423 632q0 -64 37 -106t119 -74l172 -72q111 47 181 127t70 162q0 53 -30 97.5t-125 80.5l-202 80q-43 -24 -82.5 -54t-71 -67.5t-50 -82t-18.5 -91.5z" />
<glyph unicode="&#xa8;" horiz-adv-x="722" d="M378 1434q0 43 28.5 80t79.5 37q50 0 72.5 -28.5t22.5 -61.5q0 -41 -29 -79t-81 -38q-47 0 -70 27t-23 63zM749 1434q0 43 28.5 80t80.5 37q47 0 69.5 -28.5t22.5 -61.5q0 -41 -27.5 -79t-79.5 -38q-49 0 -71.5 27t-22.5 63z" />
<glyph unicode="&#xa9;" horiz-adv-x="1621" d="M254 747q0 182 60 327t160 244.5t232.5 151.5t276.5 52t276 -52t232.5 -151.5t160.5 -244.5t60 -327q0 -185 -60 -329.5t-160.5 -244t-232.5 -153t-276 -53.5t-276.5 53.5t-232.5 153t-160 244t-60 329.5zM380 747q0 -149 45.5 -271.5t125 -210t190.5 -135.5t242 -48 t242 48t190 135.5t124 210t45 271.5q0 148 -45 270t-124 209.5t-190 134.5t-242 47t-242 -47t-190.5 -134.5t-125 -209.5t-45.5 -270zM597 749q0 103 34 183.5t89.5 137.5t129 85.5t152.5 28.5q105 0 171 -28.5t89 -45.5l-41 -97q-32 17 -82.5 37.5t-136.5 20.5 q-119 0 -197 -84t-78 -238q0 -160 76.5 -245t207.5 -85q93 0 145.5 20.5t76.5 36.5l35 -104q-28 -17 -99 -41.5t-176 -24.5q-84 0 -156 29.5t-125.5 86t-84 139t-30.5 188.5z" />
<glyph unicode="&#xaa;" horiz-adv-x="932" d="M394 987q0 95 35 188t105 169t172 123t236 47q28 0 80.5 -11t87.5 -28q-19 -73 -45.5 -154.5t-49 -158t-37 -142.5t-14.5 -109q0 -41 14.5 -88t47.5 -96l-119 -21q-12 18 -18.5 34.5t-15.5 37.5q-39 -24 -95 -44t-138 -20q-122 0 -184 72t-62 201zM519 981 q0 -91 40.5 -127.5t103.5 -36.5q43 0 92 17.5t94 49.5q-2 11 -2 26v21q0 17 3.5 47.5t15.5 79.5l93 344q-11 4 -21.5 6t-30.5 2q-90 0 -163 -38t-122.5 -99.5t-76 -139t-26.5 -152.5z" />
<glyph unicode="&#xab;" horiz-adv-x="1026" d="M254 611l406 454l77 -65l-318 -398l178 -399l-98 -49zM634 611l406 454l77 -65l-318 -398l178 -399l-98 -49z" />
<glyph unicode="&#xac;" horiz-adv-x="1212" d="M281 710l29 121h929l-170 -714h-125l142 593h-805z" />
<glyph unicode="&#xad;" horiz-adv-x="599" d="M170 554l33 136h489l-32 -136h-490z" />
<glyph unicode="&#xae;" horiz-adv-x="1621" d="M254 747q0 182 60 327t160 244.5t232.5 151.5t276.5 52t276 -52t232.5 -151.5t160.5 -244.5t60 -327q0 -185 -60 -329.5t-160.5 -244t-232.5 -153t-276 -53.5t-276.5 53.5t-232.5 153t-160 244t-60 329.5zM380 747q0 -149 45.5 -271.5t125 -210t190.5 -135.5t242 -48 t242 48t190 135.5t124 210t45 271.5q0 148 -45 270t-124 209.5t-190 134.5t-242 47t-242 -47t-190.5 -134.5t-125 -209.5t-45.5 -270zM688 320v833q49 10 110.5 16.5t115.5 6.5q182 0 278 -66.5t96 -202.5q0 -77 -43 -138t-127 -92q17 -19 46.5 -58.5t61.5 -89t64.5 -105.5 t55.5 -104h-131q-56 101 -116.5 192.5t-105.5 145.5q-14 -2 -27.5 -2h-23.5h-136v-336h-118zM806 753h108q53 0 98.5 6t79 24.5t51.5 48.5t18 77q0 45 -20.5 76.5t-53.5 51t-76 28t-90 8.5q-33 0 -61.5 -1t-53.5 -3v-316z" />
<glyph unicode="&#xaf;" horiz-adv-x="722" d="M378 1391l28 123h558l-28 -123h-558z" />
<glyph unicode="&#xb0;" horiz-adv-x="663" d="M361 1381q0 66 22.5 119t61.5 88t89.5 54.5t105.5 19.5q56 0 107 -19.5t90 -54.5t61.5 -88t22.5 -119t-22.5 -119t-61.5 -89t-90 -55t-107 -19q-55 0 -105.5 19t-89.5 55t-61.5 88.5t-22.5 119.5zM464 1381q0 -86 50.5 -135.5t125.5 -49.5q76 0 126.5 49.5t50.5 135.5 t-50.5 135.5t-126.5 49.5q-75 0 -125.5 -49.5t-50.5 -135.5z" />
<glyph unicode="&#xb1;" horiz-adv-x="1212" d="M158 3l29 119h923l-29 -119h-923zM312 743l31 119h408l113 468h127l-113 -468h409l-31 -119h-406l-114 -470h-125l112 470h-411z" />
<glyph unicode="&#xb2;" d="M290 681q6 97 48 165t101.5 117.5t126 87t124 75t94.5 81t37 104.5q0 54 -33 81.5t-82 27.5q-67 0 -124 -21.5t-96 -52.5l-41 80q62 51 126.5 73.5t136.5 22.5q45 0 87 -9t75 -32t52.5 -62.5t19.5 -98.5q0 -69 -36 -122.5t-88.5 -96.5t-117 -80.5t-121 -74.5t-99.5 -75 t-54 -86h409l-27 -104h-518z" />
<glyph unicode="&#xb3;" d="M293 716l45 95q39 -21 90.5 -32t104.5 -11q117 0 184.5 48t67.5 126q0 69 -55 100t-184 31h-13l23 97h48q116 0 176.5 47t60.5 110q0 95 -127 95q-56 0 -114 -16.5t-91 -33.5l-23 86q54 31 119.5 47.5t134.5 16.5q109 0 163 -53.5t54 -124.5q0 -62 -45.5 -125.5 t-135.5 -98.5q69 -24 99 -70t30 -102q0 -49 -21.5 -99.5t-66.5 -91.5t-117 -66.5t-173 -25.5q-62 0 -123.5 12.5t-110.5 38.5z" />
<glyph unicode="&#xb4;" horiz-adv-x="722" d="M464 1348l357 314l82 -133l-376 -275z" />
<glyph unicode="&#xb5;" horiz-adv-x="1205" d="M82 -398l363 1510h140l-119 -490q-17 -76 -39.5 -161t-22.5 -160q0 -96 44 -147t165 -51q103 0 179 33.5t146 101.5q2 56 16 124t37 169l144 581h140l-169 -689q-11 -41 -19 -82.5t-8 -75.5q0 -29 4.5 -53.5t18.5 -46t42 -36.5t73 -24l-35 -124q-21 0 -54.5 6.5 t-65.5 21.5t-60 38.5t-41 57.5q-84 -69 -176.5 -100t-189.5 -31q-96 0 -158.5 30.5t-98.5 75.5l-116 -478h-140z" />
<glyph unicode="&#xb6;" horiz-adv-x="1257" d="M297 940q0 107 47.5 209.5t144 180.5t243 127t341.5 49q43 0 95.5 -2t104.5 -7t98.5 -11.5t77.5 -16.5l-447 -1867h-124l425 1766q-45 4 -87 7.5t-87 3.5h-35.5t-37.5 -2l-428 -1775h-125l230 966q-109 0 -191 30t-136.5 81.5t-81.5 118t-27 142.5z" />
<glyph unicode="&#xb7;" horiz-adv-x="435" d="M254 721q0 47 32 89t90 42q55 0 81.5 -31.5t26.5 -72.5q0 -47 -32.5 -89t-90.5 -42q-56 0 -81.5 31.5t-25.5 72.5z" />
<glyph unicode="&#xb8;" horiz-adv-x="722" d="M76 -376l38 92q48 -18 105 -19q50 0 80 15t30 52q0 32 -20.5 51t-80.5 43q10 21 28.5 49.5t38 55.5t37 48.5t25.5 31.5h101q-17 -24 -44 -61.5t-44 -63.5q49 -28 71.5 -57t22.5 -80q0 -89 -67.5 -136t-170.5 -47q-37 0 -72 4t-78 22z" />
<glyph unicode="&#xb9;" d="M486 1334q105 36 180.5 75.5t141.5 94.5h78l-196 -823h-116l159 663q-62 -43 -131 -67.5t-99 -33.5z" />
<glyph unicode="&#xba;" horiz-adv-x="954" d="M394 989q0 95 31 188t90 169t146.5 123t200.5 47q64 0 111 -22.5t78 -61.5t45 -89t14 -104q0 -95 -31.5 -188.5t-90.5 -169t-147.5 -122.5t-200.5 -47q-64 0 -110 22.5t-77.5 61.5t-45 88t-13.5 105zM519 1009q0 -191 152 -192q71 0 129 37.5t99 96t63.5 129.5t22.5 139 q0 191 -152 191q-72 0 -130 -37t-98.5 -95.5t-63 -129.5t-22.5 -139z" />
<glyph unicode="&#xbb;" horiz-adv-x="1026" d="M232 219l318 398l-178 400l99 48l245 -456l-406 -455zM612 219l318 398l-178 400l99 48l245 -456l-406 -455z" />
<glyph unicode="&#xbc;" horiz-adv-x="1887" d="M353 0l1206 1490h151l-1206 -1490h-151zM441 1334q105 36 180.5 75.5t141.5 94.5h78l-196 -823h-116l159 663q-62 -43 -131 -67.5t-99 -33.5zM1075 209l17 71q34 53 96.5 128.5t138 153t157 147.5t152.5 116h101l-124 -521h103l-25 -95h-100l-50 -207h-114l48 207h-400z M1219 304h281l93 387q-99 -77 -196.5 -179.5t-177.5 -207.5z" />
<glyph unicode="&#xbd;" horiz-adv-x="1887" d="M374 0l1206 1490h151l-1206 -1490h-151zM462 1334q105 36 180.5 75.5t141.5 94.5h78l-196 -823h-116l159 663q-62 -43 -131 -67.5t-99 -33.5zM1197 2q6 97 48 165t101.5 117.5t126 87t124 75t94.5 81t37 104.5q0 54 -33 81.5t-82 27.5q-67 0 -124 -21.5t-96 -52.5l-41 80 q62 51 126.5 73.5t136.5 22.5q45 0 87 -9t75 -32t52.5 -62.5t19.5 -98.5q0 -69 -36 -122.5t-88.5 -96.5t-117 -80.5t-121 -74.5t-99.5 -75t-54 -86h409l-27 -104h-518z" />
<glyph unicode="&#xbe;" horiz-adv-x="1887" d="M272 716l45 95q39 -21 90.5 -32t104.5 -11q117 0 184.5 48t67.5 126q0 69 -55 100t-184 31h-13l23 97h48q116 0 176.5 47t60.5 110q0 95 -127 95q-56 0 -114 -16.5t-91 -33.5l-23 86q54 31 119.5 47.5t134.5 16.5q109 0 163 -53.5t54 -124.5q0 -62 -45.5 -125.5 t-135.5 -98.5q69 -24 99 -70t30 -102q0 -49 -21.5 -99.5t-66.5 -91.5t-117 -66.5t-173 -25.5q-62 0 -123.5 12.5t-110.5 38.5zM432 0l1206 1490h151l-1206 -1490h-151zM1206 209l17 71q34 53 96.5 128.5t138 153t157 147.5t152.5 116h101l-124 -521h103l-25 -95h-100 l-50 -207h-114l48 207h-400zM1350 304h281l93 387q-99 -77 -196.5 -179.5t-177.5 -207.5z" />
<glyph unicode="&#xbf;" horiz-adv-x="827" d="M197 -119q0 -79 26.5 -134t70.5 -88t102 -48t123 -15q79 0 158.5 19.5t143.5 49.5l-17 118q-51 -25 -121 -43.5t-139 -18.5q-39 0 -74 8.5t-62.5 27.5t-43 50t-15.5 79q0 84 47 152.5t166 156.5l25 20q58 45 106.5 91.5t85 99t58 115t23.5 139.5h-118q0 -81 -39.5 -146 t-101 -122t-131.5 -110.5t-131.5 -113t-101.5 -129t-40 -158.5zM718 1013q0 47 32.5 89t90.5 42q56 0 81.5 -31t25.5 -72q0 -48 -32 -90t-91 -42q-55 0 -81 31.5t-26 72.5z" />
<glyph unicode="&#xc0;" horiz-adv-x="1336" d="M43 0q222 400 456 778.5t460 711.5h157q54 -314 106.5 -678.5t102.5 -811.5h-151q-11 103 -23 204.5t-24 203.5h-701q-55 -98 -111.5 -199.5t-111.5 -208.5h-160zM499 533h613q-24 194 -52 388.5t-60 401.5q-132 -199 -256 -393.5t-245 -396.5zM836 1859l114 125 l314 -333l-75 -75z" />
<glyph unicode="&#xc1;" horiz-adv-x="1336" d="M43 0q222 400 456 778.5t460 711.5h157q54 -314 106.5 -678.5t102.5 -811.5h-151q-11 103 -23 204.5t-24 203.5h-701q-55 -98 -111.5 -199.5t-111.5 -208.5h-160zM499 533h613q-24 194 -52 388.5t-60 401.5q-132 -199 -256 -393.5t-245 -396.5zM926 1670l357 314l82 -133 l-376 -275z" />
<glyph unicode="&#xc2;" horiz-adv-x="1336" d="M43 0q222 400 456 778.5t460 711.5h157q54 -314 106.5 -678.5t102.5 -811.5h-151q-11 103 -23 204.5t-24 203.5h-701q-55 -98 -111.5 -199.5t-111.5 -208.5h-160zM499 533h613q-24 194 -52 388.5t-60 401.5q-132 -199 -256 -393.5t-245 -396.5zM783 1649l364 316 l213 -316l-74 -71l-174 207l-273 -207z" />
<glyph unicode="&#xc3;" horiz-adv-x="1336" d="M43 0q222 400 456 778.5t460 711.5h157q54 -314 106.5 -678.5t102.5 -811.5h-151q-11 103 -23 204.5t-24 203.5h-701q-55 -98 -111.5 -199.5t-111.5 -208.5h-160zM499 533h613q-24 194 -52 388.5t-60 401.5q-132 -199 -256 -393.5t-245 -396.5zM745 1712q17 30 38.5 60 t51 53.5t67.5 38t92 14.5q39 0 69.5 -13t58 -29.5t57.5 -29t69 -12.5q47 0 77.5 24.5t64.5 74.5l77 -50q-17 -30 -38.5 -60t-50.5 -52.5t-68 -37t-93 -14.5q-41 0 -70.5 13.5t-57.5 29t-57 28.5t-68 13q-47 0 -77.5 -24.5t-63.5 -73.5z" />
<glyph unicode="&#xc4;" horiz-adv-x="1336" d="M43 0q222 400 456 778.5t460 711.5h157q54 -314 106.5 -678.5t102.5 -811.5h-151q-11 103 -23 204.5t-24 203.5h-701q-55 -98 -111.5 -199.5t-111.5 -208.5h-160zM499 533h613q-24 194 -52 388.5t-60 401.5q-132 -199 -256 -393.5t-245 -396.5zM821 1765q0 43 28.5 80 t79.5 37q50 0 72.5 -28.5t22.5 -61.5q0 -41 -29 -79t-81 -38q-47 0 -70 27t-23 63zM1192 1765q0 43 28.5 80t80.5 37q47 0 69.5 -28.5t22.5 -61.5q0 -41 -27.5 -79t-79.5 -38q-49 0 -71.5 27t-22.5 63z" />
<glyph unicode="&#xc5;" horiz-adv-x="1336" d="M43 0q209 376 435 742t440 686q-70 58 -69 156q0 93 61.5 149t145.5 56q41 0 78.5 -15t65 -42t44 -64.5t16.5 -83.5q0 -71 -35 -120t-92 -73q49 -299 97 -637.5t95 -753.5h-151q-11 103 -23 204.5t-24 203.5h-701q-55 -98 -111.5 -199.5t-111.5 -208.5h-160zM499 533h613 q-24 194 -52 388.5t-60 401.5q-132 -199 -256 -393.5t-245 -396.5zM933 1584q0 -62 35.5 -94t87.5 -32t87 32t35 94q0 60 -35 94t-87 34q-51 0 -87 -33.5t-36 -94.5z" />
<glyph unicode="&#xc6;" horiz-adv-x="1915" d="M39 0q150 215 297.5 407.5t298 373t307.5 354.5t331 355h884l-28 -127h-647l-128 -518h573l-29 -125h-567l-149 -593h698l-27 -127h-842l97 408h-613q-80 -102 -154 -204.5t-144 -203.5h-158zM593 533h544l205 852q-64 -64 -150 -155t-184.5 -201.5t-203.5 -236 t-211 -259.5z" />
<glyph unicode="&#xc7;" horiz-adv-x="1311" d="M297 544q0 230 71 411.5t191 307.5t277 192.5t330 66.5q100 0 187.5 -21.5t177.5 -70.5l-66 -133q-155 94 -330 94q-135 0 -258.5 -59t-218 -168.5t-150.5 -265.5t-56 -350q0 -219 94 -334t291 -115q86 0 152.5 11t115 25.5t81.5 31l57 28.5l19 -129 q-84 -45 -192.5 -70.5t-213.5 -28.5q-17 -21 -33 -49q50 -28 72.5 -57t22.5 -80q0 -89 -68 -136t-171 -47q-36 0 -71.5 4t-78.5 22l39 92q47 -18 105 -19q49 0 79 15t30 52q0 32 -20 51t-81 43q11 24 31.5 55t42.5 59q-103 10 -187 49t-144.5 109t-93.5 172t-33 242z" />
<glyph unicode="&#xc8;" horiz-adv-x="1126" d="M178 0l358 1490h832l-28 -127h-691l-126 -518h614l-27 -125h-611l-148 -593h739l-25 -127h-887zM746 1859l114 125l314 -333l-75 -75z" />
<glyph unicode="&#xc9;" horiz-adv-x="1126" d="M178 0l358 1490h832l-28 -127h-691l-126 -518h614l-27 -125h-611l-148 -593h739l-25 -127h-887zM799 1670l357 314l82 -133l-376 -275z" />
<glyph unicode="&#xca;" horiz-adv-x="1126" d="M178 0l358 1490h832l-28 -127h-691l-126 -518h614l-27 -125h-611l-148 -593h739l-25 -127h-887zM688 1649l364 316l213 -316l-74 -71l-174 207l-273 -207z" />
<glyph unicode="&#xcb;" horiz-adv-x="1126" d="M178 0l358 1490h832l-28 -127h-691l-126 -518h614l-27 -125h-611l-148 -593h739l-25 -127h-887zM731 1765q0 43 28.5 80t79.5 37q50 0 72.5 -28.5t22.5 -61.5q0 -41 -29 -79t-81 -38q-47 0 -70 27t-23 63zM1102 1765q0 43 28.5 80t80.5 37q47 0 69.5 -28.5t22.5 -61.5 q0 -41 -27.5 -79t-79.5 -38q-49 0 -71.5 27t-22.5 63z" />
<glyph unicode="&#xcc;" horiz-adv-x="494" d="M178 0l358 1490h145l-354 -1490h-149zM355 1859l114 125l314 -333l-75 -75z" />
<glyph unicode="&#xcd;" horiz-adv-x="494" d="M178 0l358 1490h145l-354 -1490h-149zM466 1670l357 314l82 -133l-376 -275z" />
<glyph unicode="&#xce;" horiz-adv-x="494" d="M178 0l358 1490h145l-354 -1490h-149zM348 1649l364 316l213 -316l-74 -71l-174 207l-273 -207z" />
<glyph unicode="&#xcf;" horiz-adv-x="494" d="M178 0l358 1490h145l-354 -1490h-149zM391 1765q0 43 28.5 80t79.5 37q50 0 72.5 -28.5t22.5 -61.5q0 -41 -29 -79t-81 -38q-47 0 -70 27t-23 63zM762 1765q0 43 28.5 80t80.5 37q47 0 69.5 -28.5t22.5 -61.5q0 -41 -27.5 -79t-79.5 -38q-49 0 -71.5 27t-22.5 63z" />
<glyph unicode="&#xd0;" horiz-adv-x="1487" d="M200 720l28 119h172l148 624q105 24 191 32.5t170 8.5q310 0 479 -145.5t169 -442.5q0 -170 -52 -336.5t-170 -298t-308 -213t-471 -81.5q-43 0 -91 3.5t-94.5 7.5t-89.5 11.5t-74 18.5l165 692h-172zM376 129q53 -8 103 -11.5t100 -3.5q191 0 343.5 57t259 162.5 t163.5 256t57 335.5q0 125 -41 211.5t-111 140.5t-162.5 78t-197.5 24q-53 0 -108 -4.5t-111 -13.5l-125 -522h281l-27 -119h-281z" />
<glyph unicode="&#xd1;" horiz-adv-x="1438" d="M178 0l358 1490h143q80 -138 158.5 -307.5t148.5 -342.5t122.5 -332t81.5 -274l292 1256h143l-352 -1490h-144q-39 131 -97 306.5t-125.5 356t-138.5 347t-136 283.5l-310 -1293h-144zM776 1712q17 30 38.5 60t51 53.5t67.5 38t92 14.5q39 0 69.5 -13t58 -29.5t57.5 -29 t69 -12.5q47 0 77.5 24.5t64.5 74.5l77 -50q-17 -30 -38.5 -60t-50.5 -52.5t-68 -37t-93 -14.5q-41 0 -70.5 13.5t-57.5 29t-57 28.5t-68 13q-47 0 -77.5 -24.5t-63.5 -73.5z" />
<glyph unicode="&#xd2;" horiz-adv-x="1607" d="M297 554q0 222 73 401.5t193.5 305.5t272 193.5t311.5 67.5q105 0 201.5 -35.5t170 -107.5t116 -182.5t42.5 -258.5q0 -224 -73 -403.5t-193.5 -305.5t-273 -194t-310.5 -68q-107 0 -202.5 36t-168.5 108t-116 182.5t-43 260.5zM452 531q0 -109 29.5 -191t84 -135 t124 -79.5t151.5 -26.5q131 0 253.5 57t217 167t152.5 270t58 366q0 109 -29.5 191.5t-84 135t-125 79t-150.5 26.5q-131 0 -253.5 -56.5t-218 -166.5t-152.5 -270t-57 -367zM918 1859l114 125l314 -333l-75 -75z" />
<glyph unicode="&#xd3;" horiz-adv-x="1607" d="M297 554q0 222 73 401.5t193.5 305.5t272 193.5t311.5 67.5q105 0 201.5 -35.5t170 -107.5t116 -182.5t42.5 -258.5q0 -224 -73 -403.5t-193.5 -305.5t-273 -194t-310.5 -68q-107 0 -202.5 36t-168.5 108t-116 182.5t-43 260.5zM452 531q0 -109 29.5 -191t84 -135 t124 -79.5t151.5 -26.5q131 0 253.5 57t217 167t152.5 270t58 366q0 109 -29.5 191.5t-84 135t-125 79t-150.5 26.5q-131 0 -253.5 -56.5t-218 -166.5t-152.5 -270t-57 -367zM1045 1670l357 314l82 -133l-376 -275z" />
<glyph unicode="&#xd4;" horiz-adv-x="1607" d="M297 554q0 222 73 401.5t193.5 305.5t272 193.5t311.5 67.5q105 0 201.5 -35.5t170 -107.5t116 -182.5t42.5 -258.5q0 -224 -73 -403.5t-193.5 -305.5t-273 -194t-310.5 -68q-107 0 -202.5 36t-168.5 108t-116 182.5t-43 260.5zM452 531q0 -109 29.5 -191t84 -135 t124 -79.5t151.5 -26.5q131 0 253.5 57t217 167t152.5 270t58 366q0 109 -29.5 191.5t-84 135t-125 79t-150.5 26.5q-131 0 -253.5 -56.5t-218 -166.5t-152.5 -270t-57 -367zM900 1649l364 316l213 -316l-74 -71l-174 207l-273 -207z" />
<glyph unicode="&#xd5;" horiz-adv-x="1607" d="M297 554q0 222 73 401.5t193.5 305.5t272 193.5t311.5 67.5q105 0 201.5 -35.5t170 -107.5t116 -182.5t42.5 -258.5q0 -224 -73 -403.5t-193.5 -305.5t-273 -194t-310.5 -68q-107 0 -202.5 36t-168.5 108t-116 182.5t-43 260.5zM452 531q0 -109 29.5 -191t84 -135 t124 -79.5t151.5 -26.5q131 0 253.5 57t217 167t152.5 270t58 366q0 109 -29.5 191.5t-84 135t-125 79t-150.5 26.5q-131 0 -253.5 -56.5t-218 -166.5t-152.5 -270t-57 -367zM845 1712q17 30 38.5 60t51 53.5t67.5 38t92 14.5q39 0 69.5 -13t58 -29.5t57.5 -29t69 -12.5 q47 0 77.5 24.5t64.5 74.5l77 -50q-17 -30 -38.5 -60t-50.5 -52.5t-68 -37t-93 -14.5q-41 0 -70.5 13.5t-57.5 29t-57 28.5t-68 13q-47 0 -77.5 -24.5t-63.5 -73.5z" />
<glyph unicode="&#xd6;" horiz-adv-x="1607" d="M297 554q0 222 73 401.5t193.5 305.5t272 193.5t311.5 67.5q105 0 201.5 -35.5t170 -107.5t116 -182.5t42.5 -258.5q0 -224 -73 -403.5t-193.5 -305.5t-273 -194t-310.5 -68q-107 0 -202.5 36t-168.5 108t-116 182.5t-43 260.5zM452 531q0 -109 29.5 -191t84 -135 t124 -79.5t151.5 -26.5q131 0 253.5 57t217 167t152.5 270t58 366q0 109 -29.5 191.5t-84 135t-125 79t-150.5 26.5q-131 0 -253.5 -56.5t-218 -166.5t-152.5 -270t-57 -367zM989 1765q0 43 28.5 80t79.5 37q50 0 72.5 -28.5t22.5 -61.5q0 -41 -29 -79t-81 -38q-47 0 -70 27 t-23 63zM1360 1765q0 43 28.5 80t80.5 37q47 0 69.5 -28.5t22.5 -61.5q0 -41 -27.5 -79t-79.5 -38q-49 0 -71.5 27t-22.5 63z" />
<glyph unicode="&#xd7;" horiz-adv-x="1212" d="M286 314l383 310l-250 328l92 76l248 -327l407 327l73 -90l-408 -325l242 -318l-92 -73l-239 314l-385 -314z" />
<glyph unicode="&#xd8;" horiz-adv-x="1607" d="M267 17l135 155q-49 72 -77 166t-28 216q0 222 73 401.5t193.5 305.5t272 193.5t311.5 67.5q96 0 183.5 -28.5t157.5 -87.5l135 155l91 -77l-144 -166q49 -72 78 -165t29 -215q0 -224 -73 -403.5t-193.5 -305.5t-273 -194t-310.5 -68q-96 0 -183.5 28.5t-157.5 86.5 l-127 -144zM452 531q0 -146 51 -243l890 1011q-51 47 -117.5 69.5t-142.5 22.5q-131 0 -253.5 -56.5t-218 -166.5t-152.5 -270t-57 -367zM581 189q103 -90 260 -90q131 0 253.5 57t217 167t152.5 269.5t58 366.5q0 141 -53 243z" />
<glyph unicode="&#xd9;" horiz-adv-x="1393" d="M297 387q0 95 25 198l216 905h146l-218 -901q-10 -49 -17.5 -97.5t-7.5 -93.5q0 -64 15 -119t51.5 -96t94.5 -65t147 -24q98 0 173.5 28t132.5 87.5t98 152t72 221.5l220 907h147l-224 -928q-39 -158 -93 -271t-130 -184.5t-177.5 -106.5t-232.5 -35q-114 0 -196.5 31.5 t-136 87.5t-79.5 133.5t-26 169.5zM838 1859l114 125l314 -333l-75 -75z" />
<glyph unicode="&#xda;" horiz-adv-x="1393" d="M297 387q0 95 25 198l216 905h146l-218 -901q-10 -49 -17.5 -97.5t-7.5 -93.5q0 -64 15 -119t51.5 -96t94.5 -65t147 -24q98 0 173.5 28t132.5 87.5t98 152t72 221.5l220 907h147l-224 -928q-39 -158 -93 -271t-130 -184.5t-177.5 -106.5t-232.5 -35q-114 0 -196.5 31.5 t-136 87.5t-79.5 133.5t-26 169.5zM940 1670l357 314l82 -133l-376 -275z" />
<glyph unicode="&#xdb;" horiz-adv-x="1393" d="M297 387q0 95 25 198l216 905h146l-218 -901q-10 -49 -17.5 -97.5t-7.5 -93.5q0 -64 15 -119t51.5 -96t94.5 -65t147 -24q98 0 173.5 28t132.5 87.5t98 152t72 221.5l220 907h147l-224 -928q-39 -158 -93 -271t-130 -184.5t-177.5 -106.5t-232.5 -35q-114 0 -196.5 31.5 t-136 87.5t-79.5 133.5t-26 169.5zM802 1649l364 316l213 -316l-74 -71l-174 207l-273 -207z" />
<glyph unicode="&#xdc;" horiz-adv-x="1393" d="M297 387q0 95 25 198l216 905h146l-218 -901q-10 -49 -17.5 -97.5t-7.5 -93.5q0 -64 15 -119t51.5 -96t94.5 -65t147 -24q98 0 173.5 28t132.5 87.5t98 152t72 221.5l220 907h147l-224 -928q-39 -158 -93 -271t-130 -184.5t-177.5 -106.5t-232.5 -35q-114 0 -196.5 31.5 t-136 87.5t-79.5 133.5t-26 169.5zM856 1765q0 43 28.5 80t79.5 37q50 0 72.5 -28.5t22.5 -61.5q0 -41 -29 -79t-81 -38q-47 0 -70 27t-23 63zM1227 1765q0 43 28.5 80t80.5 37q47 0 69.5 -28.5t22.5 -61.5q0 -41 -27.5 -79t-79.5 -38q-49 0 -71.5 27t-22.5 63z" />
<glyph unicode="&#xdd;" horiz-adv-x="1192" d="M387 1490h159q43 -185 99 -382t125 -366q73 82 154.5 176.5t161.5 193.5t150.5 195.5t126.5 182.5h174q-148 -197 -335 -427t-389 -461l-142 -602h-146l142 602q-41 109 -79 225.5t-73 230.5t-67.5 224.5t-60.5 207.5zM840 1670l357 314l82 -133l-376 -275z" />
<glyph unicode="&#xde;" horiz-adv-x="1135" d="M178 0l360 1490h146l-62 -260q45 4 82.5 5.5t85.5 1.5q262 0 391.5 -91.5t129.5 -300.5q0 -238 -191 -381.5t-572 -143.5h-148l-76 -320h-146zM430 439h149q157 0 267.5 30t180 84t102 127t32.5 159q0 144 -90 209.5t-273 65.5q-101 0 -151 -4t-58 -6z" />
<glyph unicode="&#xdf;" horiz-adv-x="1266" d="M-30 -387q53 73 91 134.5t63.5 121.5t45 121t37.5 135l253 1051q32 135 83.5 228.5t119.5 152t150 85t172 26.5q154 0 238 -76t84 -207q0 -76 -27.5 -137.5t-68.5 -112.5t-89.5 -93t-89.5 -80.5t-68.5 -74t-27.5 -72.5q0 -43 24.5 -73t61 -54.5t79.5 -51.5t79.5 -65 t61 -93t24.5 -134q0 -94 -36 -164.5t-96.5 -115.5t-139 -67.5t-163.5 -22.5q-78 0 -158 16t-148 57l60 127q47 -30 113.5 -50.5t136.5 -20.5q55 0 107.5 13t93.5 41t66 71t25 103q0 64 -25 107.5t-61.5 75.5t-80.5 59t-80.5 58.5t-61 70t-24.5 94.5q0 62 27.5 110t68.5 91.5 t89.5 84t89.5 85t69 96t28 118.5q0 80 -46.5 123t-132.5 43q-62 0 -121.5 -19.5t-109.5 -62.5t-91 -111t-63 -162l-234 -973q-27 -102 -51 -189.5t-55.5 -163t-72.5 -142t-97 -130.5z" />
<glyph unicode="&#xe0;" horiz-adv-x="1122" d="M211 383q0 172 55.5 312t156 237.5t237 151t297.5 53.5q133 0 256 -45l-166 -669q-13 -53 -21.5 -100.5t-8.5 -90.5q0 -58 10.5 -109.5t39.5 -114.5l-144 -21q-13 27 -23 60t-14 67q-75 -73 -158 -107.5t-172 -34.5q-69 0 -131 23.5t-109 73.5t-76 128t-29 186zM353 411 q0 -89 17 -147.5t47 -94.5t70 -52t85 -16q88 0 165.5 42t146.5 119q0 58 17 133.5t32 135.5l114 460q-39 9 -71 13.5t-67 4.5q-133 0 -236 -52t-174 -136t-108.5 -191t-37.5 -219zM667 1537l114 125l314 -333l-75 -75z" />
<glyph unicode="&#xe1;" horiz-adv-x="1122" d="M211 383q0 172 55.5 312t156 237.5t237 151t297.5 53.5q133 0 256 -45l-166 -669q-13 -53 -21.5 -100.5t-8.5 -90.5q0 -58 10.5 -109.5t39.5 -114.5l-144 -21q-13 27 -23 60t-14 67q-75 -73 -158 -107.5t-172 -34.5q-69 0 -131 23.5t-109 73.5t-76 128t-29 186zM353 411 q0 -89 17 -147.5t47 -94.5t70 -52t85 -16q88 0 165.5 42t146.5 119q0 58 17 133.5t32 135.5l114 460q-39 9 -71 13.5t-67 4.5q-133 0 -236 -52t-174 -136t-108.5 -191t-37.5 -219zM806 1348l357 314l82 -133l-376 -275z" />
<glyph unicode="&#xe2;" horiz-adv-x="1122" d="M211 383q0 172 55.5 312t156 237.5t237 151t297.5 53.5q133 0 256 -45l-166 -669q-13 -53 -21.5 -100.5t-8.5 -90.5q0 -58 10.5 -109.5t39.5 -114.5l-144 -21q-13 27 -23 60t-14 67q-75 -73 -158 -107.5t-172 -34.5q-69 0 -131 23.5t-109 73.5t-76 128t-29 186zM353 411 q0 -89 17 -147.5t47 -94.5t70 -52t85 -16q88 0 165.5 42t146.5 119q0 58 17 133.5t32 135.5l114 460q-39 9 -71 13.5t-67 4.5q-133 0 -236 -52t-174 -136t-108.5 -191t-37.5 -219zM617 1325l364 316l213 -316l-74 -71l-174 207l-273 -207z" />
<glyph unicode="&#xe3;" horiz-adv-x="1122" d="M211 383q0 172 55.5 312t156 237.5t237 151t297.5 53.5q133 0 256 -45l-166 -669q-13 -53 -21.5 -100.5t-8.5 -90.5q0 -58 10.5 -109.5t39.5 -114.5l-144 -21q-13 27 -23 60t-14 67q-75 -73 -158 -107.5t-172 -34.5q-69 0 -131 23.5t-109 73.5t-76 128t-29 186zM353 411 q0 -89 17 -147.5t47 -94.5t70 -52t85 -16q88 0 165.5 42t146.5 119q0 58 17 133.5t32 135.5l114 460q-39 9 -71 13.5t-67 4.5q-133 0 -236 -52t-174 -136t-108.5 -191t-37.5 -219zM568 1385q17 30 38.5 60t51 53.5t67.5 38t92 14.5q39 0 69.5 -13t58 -29.5t57.5 -29 t69 -12.5q47 0 77.5 24.5t64.5 74.5l77 -50q-17 -30 -38.5 -60t-50.5 -52.5t-68 -37t-93 -14.5q-41 0 -70.5 13.5t-57.5 29t-57 28.5t-68 13q-47 0 -77.5 -24.5t-63.5 -73.5z" />
<glyph unicode="&#xe4;" horiz-adv-x="1122" d="M211 383q0 172 55.5 312t156 237.5t237 151t297.5 53.5q133 0 256 -45l-166 -669q-13 -53 -21.5 -100.5t-8.5 -90.5q0 -58 10.5 -109.5t39.5 -114.5l-144 -21q-13 27 -23 60t-14 67q-75 -73 -158 -107.5t-172 -34.5q-69 0 -131 23.5t-109 73.5t-76 128t-29 186zM353 411 q0 -89 17 -147.5t47 -94.5t70 -52t85 -16q88 0 165.5 42t146.5 119q0 58 17 133.5t32 135.5l114 460q-39 9 -71 13.5t-67 4.5q-133 0 -236 -52t-174 -136t-108.5 -191t-37.5 -219zM664 1434q0 43 28.5 80t79.5 37q50 0 72.5 -28.5t22.5 -61.5q0 -41 -29 -79t-81 -38 q-47 0 -70 27t-23 63zM1035 1434q0 43 28.5 80t80.5 37q47 0 69.5 -28.5t22.5 -61.5q0 -41 -27.5 -79t-79.5 -38q-49 0 -71.5 27t-22.5 63z" />
<glyph unicode="&#xe5;" horiz-adv-x="1122" d="M211 383q0 172 55.5 312t156 237.5t237 151t297.5 53.5q133 0 256 -45l-166 -669q-13 -53 -21.5 -100.5t-8.5 -90.5q0 -58 10.5 -109.5t39.5 -114.5l-144 -21q-13 27 -23 60t-14 67q-75 -73 -158 -107.5t-172 -34.5q-69 0 -131 23.5t-109 73.5t-76 128t-29 186zM353 411 q0 -89 17 -147.5t47 -94.5t70 -52t85 -16q88 0 165.5 42t146.5 119q0 58 17 133.5t32 135.5l114 460q-39 9 -71 13.5t-67 4.5q-133 0 -236 -52t-174 -136t-108.5 -191t-37.5 -219zM754 1453q0 93 61.5 149t145.5 56q41 0 79 -15t65.5 -42t44 -65t16.5 -83q0 -47 -16.5 -84.5 t-44 -64t-65.5 -42t-79 -15.5q-84 0 -145.5 56t-61.5 150zM838 1453q0 -62 36 -94t87 -32q52 0 87.5 32t35.5 94q0 60 -35.5 93.5t-87.5 33.5q-51 0 -87 -33t-36 -94z" />
<glyph unicode="&#xe6;" horiz-adv-x="1662" d="M117 260q0 125 48 203.5t144.5 123.5t242 65.5t338.5 28.5q0 11 1 20t1 17q0 95 -23.5 153t-65.5 89t-98 42t-118 11q-133 0 -290 -75l-16 125q64 30 157 52t190 22q160 0 249 -65.5t123 -174.5q82 120 204.5 180t244.5 60q62 0 118 -16.5t98 -52.5t67 -89.5t25 -126.5 q0 -128 -47.5 -205t-144 -122t-241 -64.5t-337.5 -25.5q0 -11 -1 -22t-1 -19q0 -95 23.5 -153t64.5 -88t95.5 -40t117.5 -10q134 0 290 75l16 -129q-64 -30 -157 -52.5t-190 -22.5q-161 0 -249.5 64.5t-125.5 174.5q-75 -107 -187.5 -173t-261.5 -66q-62 0 -117.5 18 t-97.5 54t-65.5 89.5t-23.5 124.5zM258 269q0 -82 50.5 -125t134.5 -43q64 0 130.5 25.5t125 79.5t102.5 139t67 201q-184 -4 -303.5 -22.5t-187 -52.5t-93.5 -85t-26 -117zM1009 562q183 2 301 21t185.5 53.5t93.5 86t26 120.5q0 82 -50.5 125t-134.5 43q-64 0 -128.5 -26 t-123 -81t-103.5 -140t-66 -202z" />
<glyph unicode="&#xe7;" horiz-adv-x="977" d="M211 394q0 146 45 280t132.5 237.5t214 164.5t287.5 61q112 0 222 -36l-58 -127q-49 19 -98 27t-94 8q-114 0 -207 -49t-160 -131t-103.5 -191t-36.5 -230q0 -141 65.5 -223t209.5 -82q45 0 91.5 9t85 20.5t68.5 24.5t46 24l15 -127q-41 -27 -125 -51t-187 -29 q-11 -15 -21 -30t-16 -26q49 -28 71.5 -57t22.5 -80q0 -89 -67.5 -136t-170.5 -47q-37 0 -72.5 4t-77.5 22l38 92q47 -18 106 -19q49 0 79 15t30 52q0 32 -20.5 51t-80.5 43q13 26 34.5 59.5t45.5 63.5q-157 21 -235.5 129.5t-78.5 283.5z" />
<glyph unicode="&#xe8;" horiz-adv-x="1048" d="M211 383q0 138 42 273.5t123.5 242.5t201 172.5t271.5 65.5q151 0 231.5 -78t80.5 -207q0 -121 -59 -196t-165 -119.5t-256 -63.5t-332 -28v-45q0 -62 12.5 -116t47 -94t96 -63.5t158.5 -23.5q75 0 151 21.5t145 64.5l15 -129q-73 -41 -161.5 -63.5t-178.5 -22.5 q-118 0 -198.5 30.5t-131 84t-72 129t-21.5 165.5zM370 572q182 4 307 23.5t201 54t109 82.5t33 111q0 84 -50.5 126t-132.5 42q-86 0 -161.5 -35.5t-135.5 -96t-104 -140t-66 -167.5zM643 1537l114 125l314 -333l-75 -75z" />
<glyph unicode="&#xe9;" horiz-adv-x="1048" d="M211 383q0 138 42 273.5t123.5 242.5t201 172.5t271.5 65.5q151 0 231.5 -78t80.5 -207q0 -121 -59 -196t-165 -119.5t-256 -63.5t-332 -28v-45q0 -62 12.5 -116t47 -94t96 -63.5t158.5 -23.5q75 0 151 21.5t145 64.5l15 -129q-73 -41 -161.5 -63.5t-178.5 -22.5 q-118 0 -198.5 30.5t-131 84t-72 129t-21.5 165.5zM370 572q182 4 307 23.5t201 54t109 82.5t33 111q0 84 -50.5 126t-132.5 42q-86 0 -161.5 -35.5t-135.5 -96t-104 -140t-66 -167.5zM677 1348l357 314l82 -133l-376 -275z" />
<glyph unicode="&#xea;" horiz-adv-x="1048" d="M211 383q0 138 42 273.5t123.5 242.5t201 172.5t271.5 65.5q151 0 231.5 -78t80.5 -207q0 -121 -59 -196t-165 -119.5t-256 -63.5t-332 -28v-45q0 -62 12.5 -116t47 -94t96 -63.5t158.5 -23.5q75 0 151 21.5t145 64.5l15 -129q-73 -41 -161.5 -63.5t-178.5 -22.5 q-118 0 -198.5 30.5t-131 84t-72 129t-21.5 165.5zM370 572q182 4 307 23.5t201 54t109 82.5t33 111q0 84 -50.5 126t-132.5 42q-86 0 -161.5 -35.5t-135.5 -96t-104 -140t-66 -167.5zM598 1325l364 316l213 -316l-74 -71l-174 207l-273 -207z" />
<glyph unicode="&#xeb;" horiz-adv-x="1048" d="M211 383q0 138 42 273.5t123.5 242.5t201 172.5t271.5 65.5q151 0 231.5 -78t80.5 -207q0 -121 -59 -196t-165 -119.5t-256 -63.5t-332 -28v-45q0 -62 12.5 -116t47 -94t96 -63.5t158.5 -23.5q75 0 151 21.5t145 64.5l15 -129q-73 -41 -161.5 -63.5t-178.5 -22.5 q-118 0 -198.5 30.5t-131 84t-72 129t-21.5 165.5zM370 572q182 4 307 23.5t201 54t109 82.5t33 111q0 84 -50.5 126t-132.5 42q-86 0 -161.5 -35.5t-135.5 -96t-104 -140t-66 -167.5zM626 1434q0 43 28.5 80t79.5 37q50 0 72.5 -28.5t22.5 -61.5q0 -41 -29 -79t-81 -38 q-47 0 -70 27t-23 63zM997 1434q0 43 28.5 80t80.5 37q47 0 69.5 -28.5t22.5 -61.5q0 -41 -27.5 -79t-79.5 -38q-49 0 -71.5 27t-22.5 63z" />
<glyph unicode="&#xec;" horiz-adv-x="505" d="M178 0l269 1112h140l-269 -1112h-140zM288 1537l114 125l314 -333l-75 -75z" />
<glyph unicode="&#xed;" horiz-adv-x="505" d="M178 0l269 1112h140l-269 -1112h-140zM393 1348l357 314l82 -133l-376 -275z" />
<glyph unicode="&#xee;" horiz-adv-x="505" d="M178 0l269 1112h140l-269 -1112h-140zM275 1325l364 316l213 -316l-74 -71l-174 207l-273 -207z" />
<glyph unicode="&#xef;" horiz-adv-x="505" d="M178 0l269 1112h140l-269 -1112h-140zM298 1434q0 43 28.5 80t79.5 37q50 0 72.5 -28.5t22.5 -61.5q0 -41 -29 -79t-81 -38q-47 0 -70 27t-23 63zM669 1434q0 43 28.5 80t80.5 37q47 0 69.5 -28.5t22.5 -61.5q0 -41 -27.5 -79t-79.5 -38q-49 0 -71.5 27t-22.5 63z" />
<glyph unicode="&#xf0;" horiz-adv-x="1207" d="M211 404q0 148 50.5 268t133.5 203.5t189 128.5t220 45q99 0 172 -22.5t149 -80.5q-3 88 -21 179.5t-57 179.5l-284 -90l-14 112l242 77q-37 53 -82 101t-101 87l117 76q62 -43 113.5 -97.5t92.5 -123.5l282 90l15 -111l-246 -78q88 -195 88 -432q0 -80 -12.5 -180 t-43 -205t-79.5 -205t-123 -178.5t-175.5 -126t-234.5 -47.5q-97 0 -170 32.5t-122.5 90t-74 136.5t-24.5 171zM357 417q0 -66 16.5 -124.5t48.5 -100.5t82 -66.5t120 -24.5q118 0 205 59t147 156t94 219.5t46 249.5q-66 74 -135.5 106t-176.5 32q-105 0 -188 -39 t-141 -107.5t-88 -161t-30 -198.5z" />
<glyph unicode="&#xf1;" horiz-adv-x="1173" d="M178 0l257 1073q84 24 178.5 42t186.5 18q78 0 146.5 -16t120 -56.5t81.5 -107.5t30 -165q0 -56 -8.5 -115.5t-22.5 -120.5l-134 -552h-140l118 495q17 71 31 144t16 139q0 66 -20 109.5t-55.5 69.5t-82.5 36.5t-100 10.5q-56 0 -113.5 -8.5t-114.5 -21.5l-234 -974h-140 zM521 1385q17 30 38.5 60t51 53.5t67.5 38t92 14.5q39 0 69.5 -13t58 -29.5t57.5 -29t69 -12.5q47 0 77.5 24.5t64.5 74.5l77 -50q-17 -30 -38.5 -60t-50.5 -52.5t-68 -37t-93 -14.5q-41 0 -70.5 13.5t-57.5 29t-57 28.5t-68 13q-47 0 -77.5 -24.5t-63.5 -73.5z" />
<glyph unicode="&#xf2;" horiz-adv-x="1130" d="M211 349q0 202 56.5 350t146 245t198 144t213.5 47q76 0 143.5 -23.5t119 -71t82 -117t30.5 -160.5q0 -202 -57 -350t-146.5 -246t-198 -145.5t-213.5 -47.5q-76 0 -143.5 23.5t-119 71.5t-81.5 117.5t-30 162.5zM353 357q0 -127 71 -191.5t169 -64.5q78 0 160 40 t149.5 120.5t111.5 203t44 288.5q0 127 -71 191.5t-170 64.5q-78 0 -159.5 -40t-149 -120.5t-111.5 -203t-44 -288.5zM643 1537l114 125l314 -333l-75 -75z" />
<glyph unicode="&#xf3;" horiz-adv-x="1130" d="M211 349q0 202 56.5 350t146 245t198 144t213.5 47q76 0 143.5 -23.5t119 -71t82 -117t30.5 -160.5q0 -202 -57 -350t-146.5 -246t-198 -145.5t-213.5 -47.5q-76 0 -143.5 23.5t-119 71.5t-81.5 117.5t-30 162.5zM353 357q0 -127 71 -191.5t169 -64.5q78 0 160 40 t149.5 120.5t111.5 203t44 288.5q0 127 -71 191.5t-170 64.5q-78 0 -159.5 -40t-149 -120.5t-111.5 -203t-44 -288.5zM726 1348l357 314l82 -133l-376 -275z" />
<glyph unicode="&#xf4;" horiz-adv-x="1130" d="M211 349q0 202 56.5 350t146 245t198 144t213.5 47q76 0 143.5 -23.5t119 -71t82 -117t30.5 -160.5q0 -202 -57 -350t-146.5 -246t-198 -145.5t-213.5 -47.5q-76 0 -143.5 23.5t-119 71.5t-81.5 117.5t-30 162.5zM353 357q0 -127 71 -191.5t169 -64.5q78 0 160 40 t149.5 120.5t111.5 203t44 288.5q0 127 -71 191.5t-170 64.5q-78 0 -159.5 -40t-149 -120.5t-111.5 -203t-44 -288.5zM600 1325l364 316l213 -316l-74 -71l-174 207l-273 -207z" />
<glyph unicode="&#xf5;" horiz-adv-x="1130" d="M211 349q0 202 56.5 350t146 245t198 144t213.5 47q76 0 143.5 -23.5t119 -71t82 -117t30.5 -160.5q0 -202 -57 -350t-146.5 -246t-198 -145.5t-213.5 -47.5q-76 0 -143.5 23.5t-119 71.5t-81.5 117.5t-30 162.5zM353 357q0 -127 71 -191.5t169 -64.5q78 0 160 40 t149.5 120.5t111.5 203t44 288.5q0 127 -71 191.5t-170 64.5q-78 0 -159.5 -40t-149 -120.5t-111.5 -203t-44 -288.5zM550 1385q17 30 38.5 60t51 53.5t67.5 38t92 14.5q39 0 69.5 -13t58 -29.5t57.5 -29t69 -12.5q47 0 77.5 24.5t64.5 74.5l77 -50q-17 -30 -38.5 -60 t-50.5 -52.5t-68 -37t-93 -14.5q-41 0 -70.5 13.5t-57.5 29t-57 28.5t-68 13q-47 0 -77.5 -24.5t-63.5 -73.5z" />
<glyph unicode="&#xf6;" horiz-adv-x="1130" d="M211 349q0 202 56.5 350t146 245t198 144t213.5 47q76 0 143.5 -23.5t119 -71t82 -117t30.5 -160.5q0 -202 -57 -350t-146.5 -246t-198 -145.5t-213.5 -47.5q-76 0 -143.5 23.5t-119 71.5t-81.5 117.5t-30 162.5zM353 357q0 -127 71 -191.5t169 -64.5q78 0 160 40 t149.5 120.5t111.5 203t44 288.5q0 127 -71 191.5t-170 64.5q-78 0 -159.5 -40t-149 -120.5t-111.5 -203t-44 -288.5zM630 1434q0 43 28.5 80t79.5 37q50 0 72.5 -28.5t22.5 -61.5q0 -41 -29 -79t-81 -38q-47 0 -70 27t-23 63zM1001 1434q0 43 28.5 80t80.5 37 q47 0 69.5 -28.5t22.5 -61.5q0 -41 -27.5 -79t-79.5 -38q-49 0 -71.5 27t-22.5 63z" />
<glyph unicode="&#xf7;" horiz-adv-x="1212" d="M260 572l28 120h972l-27 -120h-973zM559 226q10 47 47 77t80 30q45 0 66.5 -30t10.5 -77q-10 -45 -47 -75t-82 -30q-43 0 -64.5 30t-10.5 75zM755 1036q10 46 47 75.5t80 29.5q45 0 66.5 -29.5t10.5 -75.5q-11 -47 -47 -77t-81 -30q-43 0 -65 30t-11 77z" />
<glyph unicode="&#xf8;" horiz-adv-x="1130" d="M162 -4l113 129q-30 43 -47 98.5t-17 125.5q0 202 56.5 350t146 245t198 144t213.5 47q76 0 142.5 -23.5t118.5 -68.5l116 131l84 -68l-133 -152q47 -81 47 -191q0 -202 -57 -350t-146.5 -246t-198 -145.5t-213.5 -47.5q-64 0 -124.5 17t-109.5 54l-106 -121zM353 357 q0 -37 5 -66t16 -55l619 702q-69 71 -176 71q-78 0 -159.5 -40t-149 -120.5t-111.5 -203t-44 -288.5zM443 148q60 -47 150 -47q78 0 160 40t149.5 120.5t111.5 203t44 288.5q0 43 -11 82z" />
<glyph unicode="&#xf9;" horiz-adv-x="1122" d="M211 286q0 62 10.5 132t28.5 141l133 553h140l-119 -490q-17 -76 -37.5 -159t-20.5 -157q0 -44 9.5 -80.5t33.5 -64.5t62.5 -43t98.5 -15q103 0 182 41t148 118q0 58 17 133.5t32 135.5l144 581h140l-170 -689q-13 -53 -21.5 -100.5t-8.5 -90.5q0 -58 10.5 -109.5 t39.5 -114.5l-145 -21q-13 27 -22.5 60t-13.5 67q-76 -73 -161 -106.5t-188 -33.5q-92 0 -154.5 23.5t-99 65.5t-52.5 99t-16 124zM527 1537l114 125l314 -333l-75 -75z" />
<glyph unicode="&#xfa;" horiz-adv-x="1122" d="M211 286q0 62 10.5 132t28.5 141l133 553h140l-119 -490q-17 -76 -37.5 -159t-20.5 -157q0 -44 9.5 -80.5t33.5 -64.5t62.5 -43t98.5 -15q103 0 182 41t148 118q0 58 17 133.5t32 135.5l144 581h140l-170 -689q-13 -53 -21.5 -100.5t-8.5 -90.5q0 -58 10.5 -109.5 t39.5 -114.5l-145 -21q-13 27 -22.5 60t-13.5 67q-76 -73 -161 -106.5t-188 -33.5q-92 0 -154.5 23.5t-99 65.5t-52.5 99t-16 124zM675 1348l357 314l82 -133l-376 -275z" />
<glyph unicode="&#xfb;" horiz-adv-x="1122" d="M211 286q0 62 10.5 132t28.5 141l133 553h140l-119 -490q-17 -76 -37.5 -159t-20.5 -157q0 -44 9.5 -80.5t33.5 -64.5t62.5 -43t98.5 -15q103 0 182 41t148 118q0 58 17 133.5t32 135.5l144 581h140l-170 -689q-13 -53 -21.5 -100.5t-8.5 -90.5q0 -58 10.5 -109.5 t39.5 -114.5l-145 -21q-13 27 -22.5 60t-13.5 67q-76 -73 -161 -106.5t-188 -33.5q-92 0 -154.5 23.5t-99 65.5t-52.5 99t-16 124zM541 1325l364 316l213 -316l-74 -71l-174 207l-273 -207z" />
<glyph unicode="&#xfc;" horiz-adv-x="1122" d="M211 286q0 62 10.5 132t28.5 141l133 553h140l-119 -490q-17 -76 -37.5 -159t-20.5 -157q0 -44 9.5 -80.5t33.5 -64.5t62.5 -43t98.5 -15q103 0 182 41t148 118q0 58 17 133.5t32 135.5l144 581h140l-170 -689q-13 -53 -21.5 -100.5t-8.5 -90.5q0 -58 10.5 -109.5 t39.5 -114.5l-145 -21q-13 27 -22.5 60t-13.5 67q-76 -73 -161 -106.5t-188 -33.5q-92 0 -154.5 23.5t-99 65.5t-52.5 99t-16 124zM578 1434q0 43 28.5 80t79.5 37q50 0 72.5 -28.5t22.5 -61.5q0 -41 -29 -79t-81 -38q-47 0 -70 27t-23 63zM949 1434q0 43 28.5 80t80.5 37 q47 0 69.5 -28.5t22.5 -61.5q0 -41 -27.5 -79t-79.5 -38q-49 0 -71.5 27t-22.5 63z" />
<glyph unicode="&#xfd;" horiz-adv-x="971" d="M-127 -365l49 115q58 -32 132 -31q109 0 214.5 59.5t195.5 182.5q-90 286 -141.5 581t-60.5 570h146q5 -103 15 -226t29 -256t47 -272t69 -270q97 152 174 308t135.5 293.5t96 248.5t54.5 174h138q-13 -45 -47.5 -154t-92.5 -252.5t-141 -310.5t-190 -326 q-166 -247 -321 -360t-323 -113q-38 0 -83.5 6t-94.5 33zM581 1348l357 314l82 -133l-376 -275z" />
<glyph unicode="&#xfe;" horiz-adv-x="1115" d="M82 -398l296 1233l57 232l137 576l146 25l-131 -556q103 26 207 25q197 0 293.5 -103t96.5 -305q0 -148 -47 -283.5t-138.5 -239t-223.5 -164.5t-301 -61q-84 0 -156 19l-94 -398h-142zM353 129q66 -19 135 -20q134 0 236.5 51t174 133.5t108 190t36.5 224.5 q0 161 -71 235t-213 74q-49 0 -99.5 -8.5t-105.5 -23.5z" />
<glyph unicode="&#xff;" horiz-adv-x="971" d="M-127 -365l49 115q58 -32 132 -31q109 0 214.5 59.5t195.5 182.5q-90 286 -141.5 581t-60.5 570h146q5 -103 15 -226t29 -256t47 -272t69 -270q97 152 174 308t135.5 293.5t96 248.5t54.5 174h138q-13 -45 -47.5 -154t-92.5 -252.5t-141 -310.5t-190 -326 q-166 -247 -321 -360t-323 -113q-38 0 -83.5 6t-94.5 33zM472 1434q0 43 28.5 80t79.5 37q50 0 72.5 -28.5t22.5 -61.5q0 -41 -29 -79t-81 -38q-47 0 -70 27t-23 63zM843 1434q0 43 28.5 80t80.5 37q47 0 69.5 -28.5t22.5 -61.5q0 -41 -27.5 -79t-79.5 -38q-49 0 -71.5 27 t-22.5 63z" />
<glyph unicode="&#x152;" horiz-adv-x="2038" d="M297 595q0 191 64.5 357t192 288.5t315 194t432.5 71.5q49 0 98.5 -5t102.5 -11h778l-29 -127h-657l-127 -518h583l-29 -125h-578l-148 -593h707l-26 -127h-806q-60 -8 -117.5 -12.5t-112.5 -4.5q-329 0 -486 151.5t-157 460.5zM452 597q0 -260 117 -371.5t364 -111.5 q54 0 108.5 4.5t111.5 10.5l296 1239q-39 4 -77 6.5t-75 2.5q-207 0 -365 -56.5t-264 -159.5t-161 -246t-55 -318z" />
<glyph unicode="&#x153;" horiz-adv-x="1818" d="M211 390q0 139 44 273.5t124.5 240t193.5 169.5t252 64q142 0 222 -60t114 -189q91 125 213 187t251 62q62 0 118.5 -18t98.5 -53.5t65.5 -89t23.5 -124.5q0 -128 -51.5 -205t-151.5 -122t-247 -65.5t-342 -29.5q0 -10 -1 -19t-1 -17q0 -95 23.5 -153t64.5 -88t96.5 -40 t116.5 -10q134 0 291 75l15 -129q-64 -30 -157 -52.5t-189 -22.5q-62 0 -121.5 12t-110 41t-88 76t-56.5 119q-91 -134 -204.5 -191t-232.5 -57q-99 0 -170 31.5t-116 87t-66.5 131t-21.5 166.5zM355 394q0 -136 55.5 -215.5t182.5 -79.5q78 0 156 39.5t141.5 121.5 t104.5 204.5t41 288.5q0 127 -60 191.5t-159 64.5q-101 0 -186 -54t-146.5 -141t-95.5 -198t-34 -222zM1161 566q183 2 304.5 21.5t193.5 53.5t101 85t29 117q0 82 -50.5 125t-134.5 43q-64 0 -131 -26t-127 -78.5t-108 -132t-72 -189.5z" />
<glyph unicode="&#x178;" horiz-adv-x="1192" d="M387 1490h159q43 -185 99 -382t125 -366q73 82 154.5 176.5t161.5 193.5t150.5 195.5t126.5 182.5h174q-148 -197 -335 -427t-389 -461l-142 -602h-146l142 602q-41 109 -79 225.5t-73 230.5t-67.5 224.5t-60.5 207.5zM718 1765q0 43 28.5 80t79.5 37q50 0 72.5 -28.5 t22.5 -61.5q0 -41 -29 -79t-81 -38q-47 0 -70 27t-23 63zM1089 1765q0 43 28.5 80t80.5 37q47 0 69.5 -28.5t22.5 -61.5q0 -41 -27.5 -79t-79.5 -38q-49 0 -71.5 27t-22.5 63z" />
<glyph unicode="&#x2c6;" horiz-adv-x="722" d="M344 1325l364 316l213 -316l-74 -71l-174 207l-273 -207z" />
<glyph unicode="&#x2dc;" horiz-adv-x="722" d="M355 1385q17 30 38.5 60t51 53.5t67.5 38t92 14.5q39 0 69.5 -13t58 -29.5t57.5 -29t69 -12.5q47 0 77.5 24.5t64.5 74.5l77 -50q-17 -30 -38.5 -60t-50.5 -52.5t-68 -37t-93 -14.5q-41 0 -70.5 13.5t-57.5 29t-57 28.5t-68 13q-47 0 -77.5 -24.5t-63.5 -73.5z" />
<glyph unicode="&#x2000;" horiz-adv-x="992" />
<glyph unicode="&#x2001;" horiz-adv-x="1984" />
<glyph unicode="&#x2002;" horiz-adv-x="992" />
<glyph unicode="&#x2003;" horiz-adv-x="1984" />
<glyph unicode="&#x2004;" horiz-adv-x="661" />
<glyph unicode="&#x2005;" horiz-adv-x="496" />
<glyph unicode="&#x2006;" horiz-adv-x="330" />
<glyph unicode="&#x2007;" horiz-adv-x="330" />
<glyph unicode="&#x2008;" horiz-adv-x="248" />
<glyph unicode="&#x2009;" horiz-adv-x="396" />
<glyph unicode="&#x200a;" horiz-adv-x="110" />
<glyph unicode="&#x2010;" horiz-adv-x="599" d="M170 554l33 136h489l-32 -136h-490z" />
<glyph unicode="&#x2011;" horiz-adv-x="599" d="M170 554l33 136h489l-32 -136h-490z" />
<glyph unicode="&#x2012;" horiz-adv-x="599" d="M170 554l33 136h489l-32 -136h-490z" />
<glyph unicode="&#x2013;" horiz-adv-x="1051" d="M125 595l29 123h1073l-27 -123h-1075z" />
<glyph unicode="&#x2014;" horiz-adv-x="2128" d="M125 595l29 123h2151l-32 -123h-2148z" />
<glyph unicode="&#x2018;" horiz-adv-x="507" d="M426 1144q13 65 39.5 130.5t60 126t72 115t77.5 99.5l107 -43q-39 -56 -68.5 -106.5t-52.5 -101t-37.5 -104.5t-23.5 -116h-174z" />
<glyph unicode="&#x2019;" horiz-adv-x="507" d="M402 1166q39 55 69 106t52.5 101.5t37.5 104t24 116.5h174q-12 -64 -39.5 -130t-60.5 -126t-72 -115t-78 -101z" />
<glyph unicode="&#x201a;" horiz-adv-x="487" d="M39 -222q82 112 127 210t66 217h174q-26 -123 -90.5 -240t-165.5 -232z" />
<glyph unicode="&#x201c;" horiz-adv-x="851" d="M426 1144q13 65 39.5 130.5t60 126t72 115t77.5 99.5l107 -43q-39 -56 -68.5 -106.5t-52.5 -101t-37.5 -104.5t-23.5 -116h-174zM779 1144q13 65 39.5 130.5t60 126t72 115t77.5 99.5l107 -43q-39 -56 -68.5 -106.5t-52.5 -101t-37.5 -104.5t-23.5 -116h-174z" />
<glyph unicode="&#x201d;" horiz-adv-x="851" d="M383 1166q39 55 69 106t52.5 101.5t37.5 104t24 116.5h174q-12 -64 -39.5 -130t-60.5 -126t-72 -115t-78 -101zM733 1166q39 55 69 106t52.5 101.5t37.5 104t24 116.5h174q-12 -64 -39.5 -130t-60.5 -126t-72 -115t-78 -101z" />
<glyph unicode="&#x201e;" horiz-adv-x="842" d="M39 -222q82 112 127 210t66 217h174q-26 -123 -90.5 -240t-165.5 -232zM394 -222q82 112 127 210t66 217h174q-26 -123 -90.5 -240t-165.5 -232z" />
<glyph unicode="&#x2022;" horiz-adv-x="722" d="M318 759q0 52 17.5 98t50.5 81.5t82 57t108 21.5q60 0 107.5 -21.5t81 -57t52 -81.5t18.5 -98q0 -51 -18.5 -98.5t-52 -83t-81 -56t-107.5 -20.5q-59 0 -108 20.5t-82 56t-50.5 83t-17.5 98.5z" />
<glyph unicode="&#x2026;" horiz-adv-x="1921" d="M168 76q0 47 32 89t90 42q55 0 81.5 -31.5t26.5 -72.5q0 -47 -32.5 -89t-90.5 -42q-56 0 -81.5 31.5t-25.5 72.5zM867 76q0 47 32 89t90 42q55 0 81.5 -31.5t26.5 -72.5q0 -47 -32.5 -89t-90.5 -42q-56 0 -81.5 31.5t-25.5 72.5zM1568 76q0 47 32 89t90 42 q55 0 81.5 -31.5t26.5 -72.5q0 -47 -32.5 -89t-90.5 -42q-56 0 -81.5 31.5t-25.5 72.5z" />
<glyph unicode="&#x202f;" horiz-adv-x="396" />
<glyph unicode="&#x2039;" horiz-adv-x="646" d="M254 611l406 454l77 -65l-318 -398l178 -399l-98 -49z" />
<glyph unicode="&#x203a;" horiz-adv-x="646" d="M232 219l318 398l-178 400l99 48l245 -456l-406 -455z" />
<glyph unicode="&#x2044;" horiz-adv-x="367" d="M-301 0l1206 1490h151l-1206 -1490h-151z" />
<glyph unicode="&#x205f;" horiz-adv-x="496" />
<glyph unicode="&#x2070;" d="M312 929q0 142 39 253t98.5 186t134 114.5t145.5 39.5q45 0 89 -16t78.5 -48t56 -82.5t21.5 -119.5q0 -142 -38.5 -253t-99 -186t-134.5 -114.5t-146 -39.5q-45 0 -89 16t-78 48t-55.5 82.5t-21.5 119.5zM435 952q0 -90 30 -137t105 -47q74 0 127.5 51t87.5 126 t50.5 153.5t16.5 134.5q0 90 -30 137.5t-106 47.5t-128 -52t-87 -126t-50.5 -154t-15.5 -134z" />
<glyph unicode="&#x2074;" d="M295 888l17 71q34 53 96.5 128.5t138 153t157 147.5t152.5 116h101l-124 -521h103l-25 -95h-100l-50 -207h-114l48 207h-400zM439 983h281l93 387q-99 -77 -196.5 -179.5t-177.5 -207.5z" />
<glyph unicode="&#x2075;" d="M279 712l45 99q44 -25 99 -36.5t110 -11.5q48 0 93 9.5t79.5 31t54.5 56.5t20 82q0 32 -11.5 59t-48 47.5t-106.5 32t-186 13.5q37 97 71 195t67 215h429l-27 -104h-328q-12 -46 -33.5 -108t-40.5 -106q170 -10 250.5 -61.5t80.5 -174.5q0 -77 -32 -132t-86.5 -88 t-124 -49t-143.5 -16q-143 0 -232 47z" />
<glyph unicode="&#x2076;" d="M344 938q0 131 49.5 236.5t135.5 179.5t201 114t244 44l-8 -104q-176 -2 -294 -74t-171 -187q49 21 103 34t104 13q57 0 99 -18.5t70 -50t41 -71t13 -82.5q0 -75 -25.5 -132.5t-69.5 -96.5t-103.5 -59.5t-125.5 -20.5q-54 0 -102.5 14.5t-84 48t-56 85t-20.5 127.5z M458 940q0 -31 8 -63t24.5 -57.5t46 -42t72.5 -16.5q49 0 86.5 17.5t63.5 44t39 62.5t13 74q0 140 -138 140q-56 0 -109 -15t-96 -33q-4 -26 -7 -53.5t-3 -57.5z" />
<glyph unicode="&#x2077;" d="M408 681q33 97 83.5 197.5t113 195t131 177.5t134.5 144h-414l26 109h572l-20 -84q-47 -39 -116 -111t-141.5 -169t-140.5 -213t-113 -246h-115z" />
<glyph unicode="&#x2078;" d="M324 854q0 69 51 141t161 115q-41 24 -67 56t-26 88q0 55 26 104.5t71 86.5t104.5 57t125.5 20q109 0 162 -50t53 -120q0 -69 -46.5 -138.5t-134.5 -114.5q45 -24 77.5 -59.5t32.5 -95.5q0 -66 -30 -119t-80.5 -88.5t-114 -54.5t-127.5 -19q-121 0 -179.5 56.5 t-58.5 134.5zM437 868q0 -19 6 -39.5t23.5 -35.5t46.5 -24.5t72 -9.5q58 0 98.5 15.5t66.5 40t39 53.5t13 57q0 33 -17 55t-44 39t-62.5 30.5t-69.5 25.5q-30 -12 -61 -31.5t-56.5 -45.5t-40 -58.5t-14.5 -71.5zM554 1262q0 -28 14.5 -47t38 -33t53.5 -26t62 -25 q27 12 53.5 32.5t49 46t37 55.5t14.5 66q0 39 -30.5 68t-98.5 29q-89 0 -141 -47t-52 -119z" />
<glyph unicode="&#x2079;" d="M322 677l18 103q198 0 318 70.5t173 190.5q-54 -25 -108 -37.5t-103 -12.5q-58 0 -100 18.5t-70.5 48.5t-41 71t-12.5 84q0 73 25.5 131t70 98t103.5 60t125 20q54 0 102 -15t84 -47t56.5 -84.5t20.5 -128.5q0 -133 -47.5 -238.5t-134.5 -178.5t-208.5 -113t-270.5 -40z M517 1225q0 -139 137 -139q56 0 108.5 14t95.5 31q6 28 8 56t2 58q0 33 -7 65t-24.5 56.5t-46.5 41t-72 16.5q-49 0 -87 -17.5t-63.5 -44t-38 -62.5t-12.5 -75z" />
<glyph unicode="&#x2080;" d="M164 239q0 142 39 253t98.5 186t134 114.5t145.5 39.5q45 0 89 -16t78.5 -48t56 -82.5t21.5 -119.5q0 -142 -38.5 -253t-99 -186t-134.5 -114.5t-146 -39.5q-45 0 -89 16t-78 48t-55.5 82.5t-21.5 119.5zM287 262q0 -90 30 -137t105 -47q74 0 127.5 51t87.5 126 t50.5 153.5t16.5 134.5q0 90 -30 137.5t-106 47.5t-128 -52t-87 -126t-50.5 -154t-15.5 -134z" />
<glyph unicode="&#x2081;" d="M338 644q105 36 180.5 75.5t141.5 94.5h78l-196 -823h-116l159 663q-62 -43 -131 -67.5t-99 -33.5z" />
<glyph unicode="&#x2082;" d="M173 -9q6 97 48 165t101.5 117.5t126 87t124 75t94.5 81t37 104.5q0 54 -33 81.5t-82 27.5q-67 0 -124 -21.5t-96 -52.5l-41 80q62 51 126.5 73.5t136.5 22.5q45 0 87 -9t75 -32t52.5 -62.5t19.5 -98.5q0 -69 -36 -122.5t-88.5 -96.5t-117 -80.5t-121 -74.5t-99.5 -75 t-54 -86h409l-27 -104h-518z" />
<glyph unicode="&#x2083;" d="M141 26l45 95q39 -21 90.5 -32t104.5 -11q117 0 184.5 48t67.5 126q0 69 -55 100t-184 31h-13l23 97h48q116 0 176.5 47t60.5 110q0 95 -127 95q-56 0 -114 -16.5t-91 -33.5l-23 86q54 31 119.5 47.5t134.5 16.5q109 0 163 -53.5t54 -124.5q0 -62 -45.5 -125.5 t-135.5 -98.5q69 -24 99 -70t30 -102q0 -49 -21.5 -99.5t-66.5 -91.5t-117 -66.5t-173 -25.5q-62 0 -123.5 12.5t-110.5 38.5z" />
<glyph unicode="&#x2084;" d="M149 198l17 71q34 53 96.5 128.5t138 153t157 147.5t152.5 116h101l-124 -521h103l-25 -95h-100l-50 -207h-114l48 207h-400zM293 293h281l93 387q-99 -77 -196.5 -179.5t-177.5 -207.5z" />
<glyph unicode="&#x2085;" d="M119 22l45 99q44 -25 99 -36.5t110 -11.5q48 0 93 9.5t79.5 31t54.5 56.5t20 82q0 32 -11.5 59t-48 47.5t-106.5 32t-186 13.5q37 97 71 195t67 215h429l-27 -104h-328q-12 -46 -33.5 -108t-40.5 -106q170 -10 250.5 -61.5t80.5 -174.5q0 -77 -32 -132t-86.5 -88 t-124 -49t-143.5 -16q-143 0 -232 47z" />
<glyph unicode="&#x2086;" d="M178 248q0 131 49.5 236.5t135.5 179.5t201 114t244 44l-8 -104q-176 -2 -294 -74t-171 -187q49 21 103 34t104 13q57 0 99 -18.5t70 -50t41 -71t13 -82.5q0 -75 -25.5 -132.5t-69.5 -96.5t-103.5 -59.5t-125.5 -20.5q-54 0 -102.5 14.5t-84 48t-56 85t-20.5 127.5z M292 250q0 -31 8 -63t24.5 -57.5t46 -42t72.5 -16.5q49 0 86.5 17.5t63.5 44t39 62.5t13 74q0 140 -138 140q-56 0 -109 -15t-96 -33q-4 -26 -7 -53.5t-3 -57.5z" />
<glyph unicode="&#x2087;" d="M266 -9q33 97 83.5 197.5t113 195t131 177.5t134.5 144h-414l26 109h572l-20 -84q-47 -39 -116 -111t-141.5 -169t-140.5 -213t-113 -246h-115z" />
<glyph unicode="&#x2088;" d="M172 164q0 69 51 141t161 115q-41 24 -67 56t-26 88q0 55 26 104.5t71 86.5t104.5 57t125.5 20q109 0 162 -50t53 -120q0 -69 -46.5 -138.5t-134.5 -114.5q45 -24 77.5 -59.5t32.5 -95.5q0 -66 -30 -119t-80.5 -88.5t-114 -54.5t-127.5 -19q-121 0 -179.5 56.5 t-58.5 134.5zM285 178q0 -19 6 -39.5t23.5 -35.5t46.5 -24.5t72 -9.5q58 0 98.5 15.5t66.5 40t39 53.5t13 57q0 33 -17 55t-44 39t-62.5 30.5t-69.5 25.5q-30 -12 -61 -31.5t-56.5 -45.5t-40 -58.5t-14.5 -71.5zM402 572q0 -28 14.5 -47t38 -33t53.5 -26t62 -25 q27 12 53.5 32.5t49 46t37 55.5t14.5 66q0 39 -30.5 68t-98.5 29q-89 0 -141 -47t-52 -119z" />
<glyph unicode="&#x2089;" d="M146 -13l18 103q198 0 318 70.5t173 190.5q-54 -25 -108 -37.5t-103 -12.5q-58 0 -100 18.5t-70.5 48.5t-41 71t-12.5 84q0 73 25.5 131t70 98t103.5 60t125 20q54 0 102 -15t84 -47t56.5 -84.5t20.5 -128.5q0 -133 -47.5 -238.5t-134.5 -178.5t-208.5 -113t-270.5 -40z M341 535q0 -139 137 -139q56 0 108.5 14t95.5 31q6 28 8 56t2 58q0 33 -7 65t-24.5 56.5t-46.5 41t-72 16.5q-49 0 -87 -17.5t-63.5 -44t-38 -62.5t-12.5 -75z" />
<glyph unicode="&#x20ac;" horiz-adv-x="1212" d="M213 509l25 115h166q17 133 52 256h-155l26 113h168q45 117 111.5 213.5t152.5 165.5t191.5 106.5t229.5 37.5q60 0 112 -9t118 -32l-62 -125q-90 41 -204 41q-90 0 -165.5 -30t-137 -83t-111 -126t-83.5 -159h519l-48 -113h-511q-37 -127 -51 -256h448l-47 -115h-409 q-2 -21 -2 -40.5v-38.5q0 -57 9 -116.5t39 -106.5t88 -77.5t157 -30.5q97 0 166.5 16t119.5 37l4 -119q-43 -17 -131.5 -39t-193.5 -22q-123 0 -202 39.5t-125.5 103t-64.5 142t-18 154.5v49.5t2 48.5h-183z" />
<glyph unicode="&#x2122;" horiz-adv-x="1524" d="M297 1404v86h555v-86h-230v-610h-95v610h-230zM909 794q2 107 10 210.5t15.5 194.5t17 165t18.5 126h79q19 -30 50.5 -85t67 -119.5t73 -134t67.5 -129.5q31 60 68.5 129.5t73 134t67 120t50.5 84.5h75q9 -52 18 -126t17 -165t14.5 -194.5t10.5 -210.5h-97 q-6 154 -16 287.5t-22 229.5q-27 -45 -61 -104.5t-66.5 -120t-59.5 -113t-41 -83.5h-70q-14 31 -41 83.5t-59.5 113t-66.5 120t-60 104.5q-13 -96 -22.5 -229.5t-16.5 -287.5h-93z" />
<glyph unicode="&#x2153;" horiz-adv-x="1887" d="M353 0l1206 1490h151l-1206 -1490h-151zM441 1334q105 36 180.5 75.5t141.5 94.5h78l-196 -823h-116l159 663q-62 -43 -131 -67.5t-99 -33.5zM1159 37l45 95q39 -21 90.5 -32t104.5 -11q117 0 184.5 48t67.5 126q0 69 -55 100t-184 31h-13l23 97h48q116 0 176.5 47 t60.5 110q0 95 -127 95q-56 0 -114 -16.5t-91 -33.5l-23 86q54 31 119.5 47.5t134.5 16.5q109 0 163 -53.5t54 -124.5q0 -62 -45.5 -125.5t-135.5 -98.5q69 -24 99 -70t30 -102q0 -49 -21.5 -99.5t-66.5 -91.5t-117 -66.5t-173 -25.5q-62 0 -123.5 12.5t-110.5 38.5z" />
<glyph unicode="&#x2154;" horiz-adv-x="1887" d="M320 681q6 97 48 165t101.5 117.5t126 87t124 75t94.5 81t37 104.5q0 54 -33 81.5t-82 27.5q-67 0 -124 -21.5t-96 -52.5l-41 80q62 51 126.5 73.5t136.5 22.5q45 0 87 -9t75 -32t52.5 -62.5t19.5 -98.5q0 -69 -36 -122.5t-88.5 -96.5t-117 -80.5t-121 -74.5t-99.5 -75 t-54 -86h409l-27 -104h-518zM443 0l1206 1490h151l-1206 -1490h-151zM1181 37l45 95q39 -21 90.5 -32t104.5 -11q117 0 184.5 48t67.5 126q0 69 -55 100t-184 31h-13l23 97h48q116 0 176.5 47t60.5 110q0 95 -127 95q-56 0 -114 -16.5t-91 -33.5l-23 86q54 31 119.5 47.5 t134.5 16.5q109 0 163 -53.5t54 -124.5q0 -62 -45.5 -125.5t-135.5 -98.5q69 -24 99 -70t30 -102q0 -49 -21.5 -99.5t-66.5 -91.5t-117 -66.5t-173 -25.5q-62 0 -123.5 12.5t-110.5 38.5z" />
<glyph unicode="&#x2155;" horiz-adv-x="1887" d="M407 0l1206 1490h151l-1206 -1490h-151zM484 1334q105 36 180.5 75.5t141.5 94.5h78l-196 -823h-116l159 663q-62 -43 -131 -67.5t-99 -33.5zM1217 33l45 99q44 -25 99 -36.5t110 -11.5q48 0 93 9.5t79.5 31t54.5 56.5t20 82q0 32 -11.5 59t-48 47.5t-106.5 32t-186 13.5 q37 97 71 195t67 215h429l-27 -104h-328q-12 -46 -33.5 -108t-40.5 -106q170 -10 250.5 -61.5t80.5 -174.5q0 -77 -32 -132t-86.5 -88t-124 -49t-143.5 -16q-143 0 -232 47z" />
<glyph unicode="&#x2156;" horiz-adv-x="1887" d="M298 681q6 97 48 165t101.5 117.5t126 87t124 75t94.5 81t37 104.5q0 54 -33 81.5t-82 27.5q-67 0 -124 -21.5t-96 -52.5l-41 80q62 51 126.5 73.5t136.5 22.5q45 0 87 -9t75 -32t52.5 -62.5t19.5 -98.5q0 -69 -36 -122.5t-88.5 -96.5t-117 -80.5t-121 -74.5t-99.5 -75 t-54 -86h409l-27 -104h-518zM473 0l1206 1490h151l-1206 -1490h-151zM1227 33l45 99q44 -25 99 -36.5t110 -11.5q48 0 93 9.5t79.5 31t54.5 56.5t20 82q0 32 -11.5 59t-48 47.5t-106.5 32t-186 13.5q37 97 71 195t67 215h429l-27 -104h-328q-12 -46 -33.5 -108t-40.5 -106 q170 -10 250.5 -61.5t80.5 -174.5q0 -77 -32 -132t-86.5 -88t-124 -49t-143.5 -16q-143 0 -232 47z" />
<glyph unicode="&#x2157;" horiz-adv-x="1887" d="M272 716l45 95q39 -21 90.5 -32t104.5 -11q117 0 184.5 48t67.5 126q0 69 -55 100t-184 31h-13l23 97h48q116 0 176.5 47t60.5 110q0 95 -127 95q-56 0 -114 -16.5t-91 -33.5l-23 86q54 31 119.5 47.5t134.5 16.5q109 0 163 -53.5t54 -124.5q0 -62 -45.5 -125.5 t-135.5 -98.5q69 -24 99 -70t30 -102q0 -49 -21.5 -99.5t-66.5 -91.5t-117 -66.5t-173 -25.5q-62 0 -123.5 12.5t-110.5 38.5zM432 0l1206 1490h151l-1206 -1490h-151zM1217 33l45 99q44 -25 99 -36.5t110 -11.5q48 0 93 9.5t79.5 31t54.5 56.5t20 82q0 32 -11.5 59 t-48 47.5t-106.5 32t-186 13.5q37 97 71 195t67 215h429l-27 -104h-328q-12 -46 -33.5 -108t-40.5 -106q170 -10 250.5 -61.5t80.5 -174.5q0 -77 -32 -132t-86.5 -88t-124 -49t-143.5 -16q-143 0 -232 47z" />
<glyph unicode="&#x2158;" horiz-adv-x="1887" d="M303 888l17 71q34 53 96.5 128.5t138 153t157 147.5t152.5 116h101l-124 -521h103l-25 -95h-100l-50 -207h-114l48 207h-400zM447 983h281l93 387q-99 -77 -196.5 -179.5t-177.5 -207.5zM471 0l1206 1490h151l-1206 -1490h-151zM1227 33l45 99q44 -25 99 -36.5t110 -11.5 q48 0 93 9.5t79.5 31t54.5 56.5t20 82q0 32 -11.5 59t-48 47.5t-106.5 32t-186 13.5q37 97 71 195t67 215h429l-27 -104h-328q-12 -46 -33.5 -108t-40.5 -106q170 -10 250.5 -61.5t80.5 -174.5q0 -77 -32 -132t-86.5 -88t-124 -49t-143.5 -16q-143 0 -232 47z" />
<glyph unicode="&#x2159;" horiz-adv-x="1887" d="M428 0l1206 1490h151l-1206 -1490h-151zM473 1334q105 36 180.5 75.5t141.5 94.5h78l-196 -823h-116l159 663q-62 -43 -131 -67.5t-99 -33.5zM1284 259q0 131 49.5 236.5t135.5 179.5t201 114t244 44l-8 -104q-176 -2 -294 -74t-171 -187q49 21 103 34t104 13 q57 0 99 -18.5t70 -50t41 -71t13 -82.5q0 -75 -25.5 -132.5t-69.5 -96.5t-103.5 -59.5t-125.5 -20.5q-54 0 -102.5 14.5t-84 48t-56 85t-20.5 127.5zM1398 261q0 -31 8 -63t24.5 -57.5t46 -42t72.5 -16.5q49 0 86.5 17.5t63.5 44t39 62.5t13 74q0 140 -138 140 q-56 0 -109 -15t-96 -33q-4 -26 -7 -53.5t-3 -57.5z" />
<glyph unicode="&#x215a;" horiz-adv-x="1887" d="M294 712l45 99q44 -25 99 -36.5t110 -11.5q48 0 93 9.5t79.5 31t54.5 56.5t20 82q0 32 -11.5 59t-48 47.5t-106.5 32t-186 13.5q37 97 71 195t67 215h429l-27 -104h-328q-12 -46 -33.5 -108t-40.5 -106q170 -10 250.5 -61.5t80.5 -174.5q0 -77 -32 -132t-86.5 -88 t-124 -49t-143.5 -16q-143 0 -232 47zM464 0l1206 1490h151l-1206 -1490h-151zM1284 259q0 131 49.5 236.5t135.5 179.5t201 114t244 44l-8 -104q-176 -2 -294 -74t-171 -187q49 21 103 34t104 13q57 0 99 -18.5t70 -50t41 -71t13 -82.5q0 -75 -25.5 -132.5t-69.5 -96.5 t-103.5 -59.5t-125.5 -20.5q-54 0 -102.5 14.5t-84 48t-56 85t-20.5 127.5zM1398 261q0 -31 8 -63t24.5 -57.5t46 -42t72.5 -16.5q49 0 86.5 17.5t63.5 44t39 62.5t13 74q0 140 -138 140q-56 0 -109 -15t-96 -33q-4 -26 -7 -53.5t-3 -57.5z" />
<glyph unicode="&#x215b;" horiz-adv-x="1887" d="M321 0l1206 1490h151l-1206 -1490h-151zM408 1334q105 36 180.5 75.5t141.5 94.5h78l-196 -823h-116l159 663q-62 -43 -131 -67.5t-99 -33.5zM1159 175q0 69 51 141t161 115q-41 24 -67 56t-26 88q0 55 26 104.5t71 86.5t104.5 57t125.5 20q109 0 162 -50t53 -120 q0 -69 -46.5 -138.5t-134.5 -114.5q45 -24 77.5 -59.5t32.5 -95.5q0 -66 -30 -119t-80.5 -88.5t-114 -54.5t-127.5 -19q-121 0 -179.5 56.5t-58.5 134.5zM1272 189q0 -19 6 -39.5t23.5 -35.5t46.5 -24.5t72 -9.5q58 0 98.5 15.5t66.5 40t39 53.5t13 57q0 33 -17 55t-44 39 t-62.5 30.5t-69.5 25.5q-30 -12 -61 -31.5t-56.5 -45.5t-40 -58.5t-14.5 -71.5zM1389 583q0 -28 14.5 -47t38 -33t53.5 -26t62 -25q27 12 53.5 32.5t49 46t37 55.5t14.5 66q0 39 -30.5 68t-98.5 29q-89 0 -141 -47t-52 -119z" />
<glyph unicode="&#x215c;" horiz-adv-x="1887" d="M272 716l45 95q39 -21 90.5 -32t104.5 -11q117 0 184.5 48t67.5 126q0 69 -55 100t-184 31h-13l23 97h48q116 0 176.5 47t60.5 110q0 95 -127 95q-56 0 -114 -16.5t-91 -33.5l-23 86q54 31 119.5 47.5t134.5 16.5q109 0 163 -53.5t54 -124.5q0 -62 -45.5 -125.5 t-135.5 -98.5q69 -24 99 -70t30 -102q0 -49 -21.5 -99.5t-66.5 -91.5t-117 -66.5t-173 -25.5q-62 0 -123.5 12.5t-110.5 38.5zM432 0l1206 1490h151l-1206 -1490h-151zM1202 175q0 69 51 141t161 115q-41 24 -67 56t-26 88q0 55 26 104.5t71 86.5t104.5 57t125.5 20 q109 0 162 -50t53 -120q0 -69 -46.5 -138.5t-134.5 -114.5q45 -24 77.5 -59.5t32.5 -95.5q0 -66 -30 -119t-80.5 -88.5t-114 -54.5t-127.5 -19q-121 0 -179.5 56.5t-58.5 134.5zM1315 189q0 -19 6 -39.5t23.5 -35.5t46.5 -24.5t72 -9.5q58 0 98.5 15.5t66.5 40t39 53.5 t13 57q0 33 -17 55t-44 39t-62.5 30.5t-69.5 25.5q-30 -12 -61 -31.5t-56.5 -45.5t-40 -58.5t-14.5 -71.5zM1432 583q0 -28 14.5 -47t38 -33t53.5 -26t62 -25q27 12 53.5 32.5t49 46t37 55.5t14.5 66q0 39 -30.5 68t-98.5 29q-89 0 -141 -47t-52 -119z" />
<glyph unicode="&#x215d;" horiz-adv-x="1887" d="M294 712l45 99q44 -25 99 -36.5t110 -11.5q48 0 93 9.5t79.5 31t54.5 56.5t20 82q0 32 -11.5 59t-48 47.5t-106.5 32t-186 13.5q37 97 71 195t67 215h429l-27 -104h-328q-12 -46 -33.5 -108t-40.5 -106q170 -10 250.5 -61.5t80.5 -174.5q0 -77 -32 -132t-86.5 -88 t-124 -49t-143.5 -16q-143 0 -232 47zM443 0l1206 1490h151l-1206 -1490h-151zM1212 175q0 69 51 141t161 115q-41 24 -67 56t-26 88q0 55 26 104.5t71 86.5t104.5 57t125.5 20q109 0 162 -50t53 -120q0 -69 -46.5 -138.5t-134.5 -114.5q45 -24 77.5 -59.5t32.5 -95.5 q0 -66 -30 -119t-80.5 -88.5t-114 -54.5t-127.5 -19q-121 0 -179.5 56.5t-58.5 134.5zM1325 189q0 -19 6 -39.5t23.5 -35.5t46.5 -24.5t72 -9.5q58 0 98.5 15.5t66.5 40t39 53.5t13 57q0 33 -17 55t-44 39t-62.5 30.5t-69.5 25.5q-30 -12 -61 -31.5t-56.5 -45.5t-40 -58.5 t-14.5 -71.5zM1442 583q0 -28 14.5 -47t38 -33t53.5 -26t62 -25q27 12 53.5 32.5t49 46t37 55.5t14.5 66q0 39 -30.5 68t-98.5 29q-89 0 -141 -47t-52 -119z" />
<glyph unicode="&#x215e;" horiz-adv-x="1887" d="M321 0l1206 1490h151l-1206 -1490h-151zM359 681q33 97 83.5 197.5t113 195t131 177.5t134.5 144h-414l26 109h572l-20 -84q-47 -39 -116 -111t-141.5 -169t-140.5 -213t-113 -246h-115zM1202 175q0 69 51 141t161 115q-41 24 -67 56t-26 88q0 55 26 104.5t71 86.5 t104.5 57t125.5 20q109 0 162 -50t53 -120q0 -69 -46.5 -138.5t-134.5 -114.5q45 -24 77.5 -59.5t32.5 -95.5q0 -66 -30 -119t-80.5 -88.5t-114 -54.5t-127.5 -19q-121 0 -179.5 56.5t-58.5 134.5zM1315 189q0 -19 6 -39.5t23.5 -35.5t46.5 -24.5t72 -9.5q58 0 98.5 15.5 t66.5 40t39 53.5t13 57q0 33 -17 55t-44 39t-62.5 30.5t-69.5 25.5q-30 -12 -61 -31.5t-56.5 -45.5t-40 -58.5t-14.5 -71.5zM1432 583q0 -28 14.5 -47t38 -33t53.5 -26t62 -25q27 12 53.5 32.5t49 46t37 55.5t14.5 66q0 39 -30.5 68t-98.5 29q-89 0 -141 -47t-52 -119z" />
<glyph unicode="&#x25fc;" horiz-adv-x="1106" d="M0 0v1108h1108v-1108h-1108z" />
<glyph unicode="&#xf506;" horiz-adv-x="1887" d="M403 0l1206 1490h151l-1206 -1490h-151zM492 1334q105 36 180.5 75.5t141.5 94.5h78l-196 -823h-116l159 663q-62 -43 -131 -67.5t-99 -33.5zM1315 2q33 97 83.5 197.5t113 195t131 177.5t134.5 144h-414l26 109h572l-20 -84q-47 -39 -116 -111t-141.5 -169t-140.5 -213 t-113 -246h-115z" />
<glyph unicode="&#xf507;" horiz-adv-x="1887" d="M331 681q6 97 48 165t101.5 117.5t126 87t124 75t94.5 81t37 104.5q0 54 -33 81.5t-82 27.5q-67 0 -124 -21.5t-96 -52.5l-41 80q62 51 126.5 73.5t136.5 22.5q45 0 87 -9t75 -32t52.5 -62.5t19.5 -98.5q0 -69 -36 -122.5t-88.5 -96.5t-117 -80.5t-121 -74.5t-99.5 -75 t-54 -86h409l-27 -104h-518zM475 0l1206 1490h151l-1206 -1490h-151zM1315 2q33 97 83.5 197.5t113 195t131 177.5t134.5 144h-414l26 109h572l-20 -84q-47 -39 -116 -111t-141.5 -169t-140.5 -213t-113 -246h-115z" />
<glyph unicode="&#xf508;" horiz-adv-x="1887" d="M293 716l45 95q39 -21 90.5 -32t104.5 -11q117 0 184.5 48t67.5 126q0 69 -55 100t-184 31h-13l23 97h48q116 0 176.5 47t60.5 110q0 95 -127 95q-56 0 -114 -16.5t-91 -33.5l-23 86q54 31 119.5 47.5t134.5 16.5q109 0 163 -53.5t54 -124.5q0 -62 -45.5 -125.5 t-135.5 -98.5q69 -24 99 -70t30 -102q0 -49 -21.5 -99.5t-66.5 -91.5t-117 -66.5t-173 -25.5q-62 0 -123.5 12.5t-110.5 38.5zM439 0l1206 1490h151l-1206 -1490h-151zM1305 2q33 97 83.5 197.5t113 195t131 177.5t134.5 144h-414l26 109h572l-20 -84q-47 -39 -116 -111 t-141.5 -169t-140.5 -213t-113 -246h-115z" />
<glyph unicode="&#xf509;" horiz-adv-x="1887" d="M336 888l17 71q34 53 96.5 128.5t138 153t157 147.5t152.5 116h101l-124 -521h103l-25 -95h-100l-50 -207h-114l48 207h-400zM452 0l1206 1490h151l-1206 -1490h-151zM480 983h281l93 387q-99 -77 -196.5 -179.5t-177.5 -207.5zM1315 2q33 97 83.5 197.5t113 195 t131 177.5t134.5 144h-414l26 109h572l-20 -84q-47 -39 -116 -111t-141.5 -169t-140.5 -213t-113 -246h-115z" />
<glyph unicode="&#xf50a;" horiz-adv-x="1887" d="M326 712l45 99q44 -25 99 -36.5t110 -11.5q48 0 93 9.5t79.5 31t54.5 56.5t20 82q0 32 -11.5 59t-48 47.5t-106.5 32t-186 13.5q37 97 71 195t67 215h429l-27 -104h-328q-12 -46 -33.5 -108t-40.5 -106q170 -10 250.5 -61.5t80.5 -174.5q0 -77 -32 -132t-86.5 -88 t-124 -49t-143.5 -16q-143 0 -232 47zM462 0l1206 1490h151l-1206 -1490h-151zM1315 2q33 97 83.5 197.5t113 195t131 177.5t134.5 144h-414l26 109h572l-20 -84q-47 -39 -116 -111t-141.5 -169t-140.5 -213t-113 -246h-115z" />
<glyph unicode="&#xf50b;" horiz-adv-x="1887" d="M379 938q0 131 49.5 236.5t135.5 179.5t201 114t244 44l-8 -104q-176 -2 -294 -74t-171 -187q49 21 103 34t104 13q57 0 99 -18.5t70 -50t41 -71t13 -82.5q0 -75 -25.5 -132.5t-69.5 -96.5t-103.5 -59.5t-125.5 -20.5q-54 0 -102.5 14.5t-84 48t-56 85t-20.5 127.5z M441 0l1206 1490h151l-1206 -1490h-151zM493 940q0 -31 8 -63t24.5 -57.5t46 -42t72.5 -16.5q49 0 86.5 17.5t63.5 44t39 62.5t13 74q0 140 -138 140q-56 0 -109 -15t-96 -33q-4 -26 -7 -53.5t-3 -57.5zM1294 2q33 97 83.5 197.5t113 195t131 177.5t134.5 144h-414l26 109 h572l-20 -84q-47 -39 -116 -111t-141.5 -169t-140.5 -213t-113 -246h-115z" />
<glyph unicode="&#xf50c;" horiz-adv-x="1887" d="M396 0l1206 1490h151l-1206 -1490h-151zM492 1334q105 36 180.5 75.5t141.5 94.5h78l-196 -823h-116l159 663q-62 -43 -131 -67.5t-99 -33.5zM1251 -2l18 103q198 0 318 70.5t173 190.5q-54 -25 -108 -37.5t-103 -12.5q-58 0 -100 18.5t-70.5 48.5t-41 71t-12.5 84 q0 73 25.5 131t70 98t103.5 60t125 20q54 0 102 -15t84 -47t56.5 -84.5t20.5 -128.5q0 -133 -47.5 -238.5t-134.5 -178.5t-208.5 -113t-270.5 -40zM1446 546q0 -139 137 -139q56 0 108.5 14t95.5 31q6 28 8 56t2 58q0 33 -7 65t-24.5 56.5t-46.5 41t-72 16.5 q-49 0 -87 -17.5t-63.5 -44t-38 -62.5t-12.5 -75z" />
<glyph unicode="&#xf50d;" horiz-adv-x="1887" d="M298 681q6 97 48 165t101.5 117.5t126 87t124 75t94.5 81t37 104.5q0 54 -33 81.5t-82 27.5q-67 0 -124 -21.5t-96 -52.5l-41 80q62 51 126.5 73.5t136.5 22.5q45 0 87 -9t75 -32t52.5 -62.5t19.5 -98.5q0 -69 -36 -122.5t-88.5 -96.5t-117 -80.5t-121 -74.5t-99.5 -75 t-54 -86h409l-27 -104h-518zM448 0l1206 1490h151l-1206 -1490h-151zM1229 -2l18 103q198 0 318 70.5t173 190.5q-54 -25 -108 -37.5t-103 -12.5q-58 0 -100 18.5t-70.5 48.5t-41 71t-12.5 84q0 73 25.5 131t70 98t103.5 60t125 20q54 0 102 -15t84 -47t56.5 -84.5 t20.5 -128.5q0 -133 -47.5 -238.5t-134.5 -178.5t-208.5 -113t-270.5 -40zM1424 546q0 -139 137 -139q56 0 108.5 14t95.5 31q6 28 8 56t2 58q0 33 -7 65t-24.5 56.5t-46.5 41t-72 16.5q-49 0 -87 -17.5t-63.5 -44t-38 -62.5t-12.5 -75z" />
<glyph unicode="&#xf50e;" horiz-adv-x="1887" d="M325 888l17 71q34 53 96.5 128.5t138 153t157 147.5t152.5 116h101l-124 -521h103l-25 -95h-100l-50 -207h-114l48 207h-400zM454 0l1206 1490h151l-1206 -1490h-151zM469 983h281l93 387q-99 -77 -196.5 -179.5t-177.5 -207.5zM1251 -2l18 103q198 0 318 70.5t173 190.5 q-54 -25 -108 -37.5t-103 -12.5q-58 0 -100 18.5t-70.5 48.5t-41 71t-12.5 84q0 73 25.5 131t70 98t103.5 60t125 20q54 0 102 -15t84 -47t56.5 -84.5t20.5 -128.5q0 -133 -47.5 -238.5t-134.5 -178.5t-208.5 -113t-270.5 -40zM1446 546q0 -139 137 -139q56 0 108.5 14 t95.5 31q6 28 8 56t2 58q0 33 -7 65t-24.5 56.5t-46.5 41t-72 16.5q-49 0 -87 -17.5t-63.5 -44t-38 -62.5t-12.5 -75z" />
<glyph unicode="&#xf50f;" horiz-adv-x="1887" d="M305 712l45 99q44 -25 99 -36.5t110 -11.5q48 0 93 9.5t79.5 31t54.5 56.5t20 82q0 32 -11.5 59t-48 47.5t-106.5 32t-186 13.5q37 97 71 195t67 215h429l-27 -104h-328q-12 -46 -33.5 -108t-40.5 -106q170 -10 250.5 -61.5t80.5 -174.5q0 -77 -32 -132t-86.5 -88 t-124 -49t-143.5 -16q-143 0 -232 47zM454 0l1206 1490h151l-1206 -1490h-151zM1240 -2l18 103q198 0 318 70.5t173 190.5q-54 -25 -108 -37.5t-103 -12.5q-58 0 -100 18.5t-70.5 48.5t-41 71t-12.5 84q0 73 25.5 131t70 98t103.5 60t125 20q54 0 102 -15t84 -47t56.5 -84.5 t20.5 -128.5q0 -133 -47.5 -238.5t-134.5 -178.5t-208.5 -113t-270.5 -40zM1435 546q0 -139 137 -139q56 0 108.5 14t95.5 31q6 28 8 56t2 58q0 33 -7 65t-24.5 56.5t-46.5 41t-72 16.5q-49 0 -87 -17.5t-63.5 -44t-38 -62.5t-12.5 -75z" />
<glyph unicode="&#xf510;" horiz-adv-x="1887" d="M353 0l1206 1490h151l-1206 -1490h-151zM391 681q33 97 83.5 197.5t113 195t131 177.5t134.5 144h-414l26 109h572l-20 -84q-47 -39 -116 -111t-141.5 -169t-140.5 -213t-113 -246h-115zM1240 -2l18 103q198 0 318 70.5t173 190.5q-54 -25 -108 -37.5t-103 -12.5 q-58 0 -100 18.5t-70.5 48.5t-41 71t-12.5 84q0 73 25.5 131t70 98t103.5 60t125 20q54 0 102 -15t84 -47t56.5 -84.5t20.5 -128.5q0 -133 -47.5 -238.5t-134.5 -178.5t-208.5 -113t-270.5 -40zM1435 546q0 -139 137 -139q56 0 108.5 14t95.5 31q6 28 8 56t2 58q0 33 -7 65 t-24.5 56.5t-46.5 41t-72 16.5q-49 0 -87 -17.5t-63.5 -44t-38 -62.5t-12.5 -75z" />
<glyph unicode="&#xf511;" horiz-adv-x="1887" d="M309 854q0 69 51 141t161 115q-41 24 -67 56t-26 88q0 55 26 104.5t71 86.5t104.5 57t125.5 20q109 0 162 -50t53 -120q0 -69 -46.5 -138.5t-134.5 -114.5q45 -24 77.5 -59.5t32.5 -95.5q0 -66 -30 -119t-80.5 -88.5t-114 -54.5t-127.5 -19q-121 0 -179.5 56.5 t-58.5 134.5zM422 868q0 -19 6 -39.5t23.5 -35.5t46.5 -24.5t72 -9.5q58 0 98.5 15.5t66.5 40t39 53.5t13 57q0 33 -17 55t-44 39t-62.5 30.5t-69.5 25.5q-30 -12 -61 -31.5t-56.5 -45.5t-40 -58.5t-14.5 -71.5zM454 0l1206 1490h151l-1206 -1490h-151zM539 1262 q0 -28 14.5 -47t38 -33t53.5 -26t62 -25q27 12 53.5 32.5t49 46t37 55.5t14.5 66q0 39 -30.5 68t-98.5 29q-89 0 -141 -47t-52 -119zM1240 -2l18 103q198 0 318 70.5t173 190.5q-54 -25 -108 -37.5t-103 -12.5q-58 0 -100 18.5t-70.5 48.5t-41 71t-12.5 84q0 73 25.5 131 t70 98t103.5 60t125 20q54 0 102 -15t84 -47t56.5 -84.5t20.5 -128.5q0 -133 -47.5 -238.5t-134.5 -178.5t-208.5 -113t-270.5 -40zM1435 546q0 -139 137 -139q56 0 108.5 14t95.5 31q6 28 8 56t2 58q0 33 -7 65t-24.5 56.5t-46.5 41t-72 16.5q-49 0 -87 -17.5t-63.5 -44 t-38 -62.5t-12.5 -75z" />
<glyph unicode="&#xf800;" horiz-adv-x="1210" d="M268 417q0 127 21.5 258t62.5 253.5t101 231t134.5 189.5t164 128.5t189.5 47.5q181 -3 257 -125t76 -325q0 -189 -48 -386t-136.5 -357t-212 -262.5t-274.5 -102.5q-90 0 -154.5 33t-104 91.5t-58 141.5t-18.5 184zM414 437q0 -179 50.5 -259.5t149.5 -80.5 q105 0 199 84t163.5 220.5t110.5 308.5t41 346q0 179 -50.5 259t-149.5 80q-105 0 -198.5 -84t-163.5 -220.5t-111 -308t-41 -345.5z" />
<glyph unicode="&#xf801;" horiz-adv-x="784" d="M330 1182q125 45 250 116.5t247 191.5h104l-357 -1490h-138l306 1273q-69 -70 -172.5 -125.5t-212.5 -89.5z" />
<glyph unicode="&#xf802;" horiz-adv-x="991" d="M116 0q27 162 103 280t174.5 208.5t207.5 165.5t199 150.5t149.5 161t59.5 202.5q0 120 -65.5 173.5t-158.5 53.5q-90 0 -184.5 -37.5t-163.5 -95.5l-48 117q82 66 195 104.5t222 38.5q72 0 135.5 -19t111.5 -60t77 -105.5t29 -153.5q0 -100 -38 -183t-96.5 -154 t-134 -132t-152.5 -118q-95 -71 -172.5 -130t-134 -114.5t-93.5 -111.5t-52 -118h690l-28 -123h-832z" />
<glyph unicode="&#xf803;" horiz-adv-x="975" d="M51 47l56 121q60 -37 138.5 -54t162.5 -17q92 0 171.5 22.5t139 67.5t94 115t34.5 164q0 144 -102.5 207.5t-274.5 63.5l30 117h54q103 0 178.5 32t124 81.5t71 109.5t22.5 119q0 54 -17.5 92.5t-47.5 61t-70 33t-85 10.5q-75 0 -151 -23.5t-132 -60.5l-31 113 q76 47 161.5 73.5t178.5 26.5q66 0 129 -17t110 -54.5t76 -96.5t29 -145q0 -65 -19.5 -127t-59 -117.5t-99.5 -99.5t-140 -71q39 -15 76.5 -41t68.5 -65t50.5 -92.5t19.5 -124.5q0 -127 -50.5 -222t-132.5 -157t-188.5 -93.5t-217.5 -31.5q-95 0 -186 19.5t-171 60.5z" />
<glyph unicode="&#xf804;" horiz-adv-x="1089" d="M160 404l21 84q66 117 164 247.5t215 263t248.5 259.5t266.5 232h140l-232 -969h183l-29 -117h-180l-95 -404h-137l94 404h-659zM342 521h503l189 784q-88 -71 -182.5 -161t-185.5 -192.5t-175 -212t-149 -218.5z" />
<glyph unicode="&#xf805;" horiz-adv-x="993" d="M51 45l58 127q62 -37 136.5 -56t150.5 -19q86 0 167 23.5t144.5 69.5t102.5 117t39 167q0 79 -29.5 132.5t-74.5 90t-102.5 56t-114 30.5t-107 13t-82.5 4q35 97 62.5 181t53.5 164t51 164t48 181h650l-28 -122h-525q-15 -49 -33.5 -109.5t-38 -123t-40 -122 t-34.5 -104.5q109 -10 200.5 -39t157 -81t101 -126t35.5 -173q0 -131 -49 -228.5t-131 -163t-191 -98.5t-224 -33q-90 0 -179.5 18.5t-173.5 59.5z" />
<glyph unicode="&#xf806;" horiz-adv-x="1122" d="M245 411q0 219 74 415t209.5 343t329 235t432.5 92l-15 -126q-158 -4 -287.5 -48t-232 -119.5t-177.5 -178.5t-120 -222q82 41 168.5 64.5t176.5 23.5q97 0 167.5 -26.5t115.5 -74t66.5 -112t21.5 -141.5q0 -136 -46 -241.5t-122 -178.5t-171.5 -111t-193.5 -38 q-82 0 -154 28.5t-126 83t-85 137.5t-31 195zM389 411q0 -84 19.5 -145t54 -100t79.5 -57.5t94 -18.5q80 0 150 30t122.5 85t83.5 132.5t31 171.5q0 117 -60 184.5t-202 67.5q-88 0 -178 -25.5t-164 -62.5q-17 -62 -23.5 -128.5t-6.5 -133.5z" />
<glyph unicode="&#xf807;" horiz-adv-x="876" d="M202 0q36 119 92.5 248.5t126 259.5t149 256t163.5 238t168 204.5t161 154.5h-733l28 129h881l-29 -125q-97 -92 -221 -241.5t-245 -333t-226.5 -387t-165.5 -403.5h-149z" />
<glyph unicode="&#xf808;" horiz-adv-x="1167" d="M221 286q0 62 16 128t58 130.5t114.5 125.5t181.5 112q-66 41 -110.5 110t-44.5 159q0 111 42.5 200t114 149.5t164 91t189.5 30.5q157 0 256 -78t99 -238q0 -62 -16.5 -125.5t-56.5 -123.5t-105.5 -116t-164.5 -104q101 -56 151 -133t50 -167q0 -111 -46.5 -199 t-124 -148t-178.5 -91.5t-213 -31.5q-76 0 -143.5 19.5t-119 58.5t-82.5 99.5t-31 141.5zM369 322q0 -62 19.5 -106t53.5 -71.5t79.5 -42t95.5 -14.5q76 0 146 23.5t125.5 67t88.5 105t33 137.5q0 66 -28 114t-73 82.5t-101 60.5t-114 49q-89 -46 -150.5 -97t-100.5 -103.5 t-56.5 -105.5t-17.5 -99zM582 1058q0 -55 24 -96t62.5 -72.5t87 -54t99.5 -41.5q155 82 227.5 181.5t72.5 210.5q0 108 -59.5 162t-169.5 54q-70 0 -130.5 -21.5t-109 -66t-76.5 -108.5t-28 -148z" />
<glyph unicode="&#xf809;" horiz-adv-x="1156" d="M181 -2l26 123q164 -4 299 36t240.5 116t181 182.5t120.5 232.5q-100 -48 -189 -68t-138 -20q-101 0 -173 27t-118 73.5t-67.5 108t-21.5 133.5q0 140 45 247.5t120 181.5t171.5 112.5t200.5 38.5q76 0 144.5 -22.5t122 -72.5t84.5 -133t31 -204q0 -226 -71.5 -426 t-205 -348t-322.5 -234t-424 -86h-25.5t-30.5 2zM491 966q0 -97 59 -167t195 -70q71 0 155.5 19.5t183.5 66.5q33 131 33 279q0 150 -61 228t-178 78q-78 0 -148.5 -28t-123 -82.5t-84 -136.5t-31.5 -187z" />
<glyph unicode="&#xf80a;" d="M400 1187q0 142 39 253t98.5 186t134 114.5t145.5 39.5q45 0 89 -16t78.5 -48t56 -82.5t21.5 -119.5q0 -142 -38.5 -253t-99 -186t-134.5 -114.5t-146 -39.5q-45 0 -89 16t-78 48t-55.5 82.5t-21.5 119.5zM523 1210q0 -90 30 -137t105 -47q74 0 127.5 51t87.5 126 t50.5 153.5t16.5 134.5q0 90 -30 137.5t-106 47.5t-128 -52t-87 -126t-50.5 -154t-15.5 -134z" />
<glyph unicode="&#xf80b;" d="M523 1592q105 36 180.5 75.5t141.5 94.5h78l-196 -823h-116l159 663q-62 -43 -131 -67.5t-99 -33.5z" />
<glyph unicode="&#xf80c;" d="M361 939q6 97 48 165t101.5 117.5t126 87t124 75t94.5 81t37 104.5q0 54 -33 81.5t-82 27.5q-67 0 -124 -21.5t-96 -52.5l-41 80q62 51 126.5 73.5t136.5 22.5q45 0 87 -9t75 -32t52.5 -62.5t19.5 -98.5q0 -69 -36 -122.5t-88.5 -96.5t-117 -80.5t-121 -74.5t-99.5 -75 t-54 -86h409l-27 -104h-518z" />
<glyph unicode="&#xf80d;" d="M332 974l45 95q39 -21 90.5 -32t104.5 -11q117 0 184.5 48t67.5 126q0 69 -55 100t-184 31h-13l23 97h48q116 0 176.5 47t60.5 110q0 95 -127 95q-56 0 -114 -16.5t-91 -33.5l-23 86q54 31 119.5 47.5t134.5 16.5q109 0 163 -53.5t54 -124.5q0 -62 -45.5 -125.5 t-135.5 -98.5q69 -24 99 -70t30 -102q0 -49 -21.5 -99.5t-66.5 -91.5t-117 -66.5t-173 -25.5q-62 0 -123.5 12.5t-110.5 38.5z" />
<glyph unicode="&#xf80e;" d="M377 1146l17 71q34 53 96.5 128.5t138 153t157 147.5t152.5 116h101l-124 -521h103l-25 -95h-100l-50 -207h-114l48 207h-400zM521 1241h281l93 387q-99 -77 -196.5 -179.5t-177.5 -207.5z" />
<glyph unicode="&#xf80f;" d="M369 970l45 99q44 -25 99 -36.5t110 -11.5q48 0 93 9.5t79.5 31t54.5 56.5t20 82q0 32 -11.5 59t-48 47.5t-106.5 32t-186 13.5q37 97 71 195t67 215h429l-27 -104h-328q-12 -46 -33.5 -108t-40.5 -106q170 -10 250.5 -61.5t80.5 -174.5q0 -77 -32 -132t-86.5 -88 t-124 -49t-143.5 -16q-143 0 -232 47z" />
<glyph unicode="&#xf810;" d="M438 1196q0 131 49.5 236.5t135.5 179.5t201 114t244 44l-8 -104q-176 -2 -294 -74t-171 -187q49 21 103 34t104 13q57 0 99 -18.5t70 -50t41 -71t13 -82.5q0 -75 -25.5 -132.5t-69.5 -96.5t-103.5 -59.5t-125.5 -20.5q-54 0 -102.5 14.5t-84 48t-56 85t-20.5 127.5z M552 1198q0 -31 8 -63t24.5 -57.5t46 -42t72.5 -16.5q49 0 86.5 17.5t63.5 44t39 62.5t13 74q0 140 -138 140q-56 0 -109 -15t-96 -33q-4 -26 -7 -53.5t-3 -57.5z" />
<glyph unicode="&#xf811;" d="M472 939q33 97 83.5 197.5t113 195t131 177.5t134.5 144h-414l26 109h572l-20 -84q-47 -39 -116 -111t-141.5 -169t-140.5 -213t-113 -246h-115z" />
<glyph unicode="&#xf812;" d="M367 1112q0 69 51 141t161 115q-41 24 -67 56t-26 88q0 55 26 104.5t71 86.5t104.5 57t125.5 20q109 0 162 -50t53 -120q0 -69 -46.5 -138.5t-134.5 -114.5q45 -24 77.5 -59.5t32.5 -95.5q0 -66 -30 -119t-80.5 -88.5t-114 -54.5t-127.5 -19q-121 0 -179.5 56.5 t-58.5 134.5zM480 1126q0 -19 6 -39.5t23.5 -35.5t46.5 -24.5t72 -9.5q58 0 98.5 15.5t66.5 40t39 53.5t13 57q0 33 -17 55t-44 39t-62.5 30.5t-69.5 25.5q-30 -12 -61 -31.5t-56.5 -45.5t-40 -58.5t-14.5 -71.5zM597 1520q0 -28 14.5 -47t38 -33t53.5 -26t62 -25 q27 12 53.5 32.5t49 46t37 55.5t14.5 66q0 39 -30.5 68t-98.5 29q-89 0 -141 -47t-52 -119z" />
<glyph unicode="&#xf813;" d="M396 935l18 103q198 0 318 70.5t173 190.5q-54 -25 -108 -37.5t-103 -12.5q-58 0 -100 18.5t-70.5 48.5t-41 71t-12.5 84q0 73 25.5 131t70 98t103.5 60t125 20q54 0 102 -15t84 -47t56.5 -84.5t20.5 -128.5q0 -133 -47.5 -238.5t-134.5 -178.5t-208.5 -113t-270.5 -40z M591 1483q0 -139 137 -139q56 0 108.5 14t95.5 31q6 28 8 56t2 58q0 33 -7 65t-24.5 56.5t-46.5 41t-72 16.5q-49 0 -87 -17.5t-63.5 -44t-38 -62.5t-12.5 -75z" />
<glyph unicode="&#xf814;" d="M129 -19q0 142 39 253t98.5 186t134 114.5t145.5 39.5q45 0 89 -16t78.5 -48t56 -82.5t21.5 -119.5q0 -142 -38.5 -253t-99 -186t-134.5 -114.5t-146 -39.5q-45 0 -89 16t-78 48t-55.5 82.5t-21.5 119.5zM252 4q0 -90 30 -137t105 -47q74 0 127.5 51t87.5 126t50.5 153.5 t16.5 134.5q0 90 -30 137.5t-106 47.5t-128 -52t-87 -126t-50.5 -154t-15.5 -134z" />
<glyph unicode="&#xf815;" d="M316 386q105 36 180.5 75.5t141.5 94.5h78l-196 -823h-116l159 663q-62 -43 -131 -67.5t-99 -33.5z" />
<glyph unicode="&#xf816;" d="M87 -267q6 97 48 165t101.5 117.5t126 87t124 75t94.5 81t37 104.5q0 54 -33 81.5t-82 27.5q-67 0 -124 -21.5t-96 -52.5l-41 80q62 51 126.5 73.5t136.5 22.5q45 0 87 -9t75 -32t52.5 -62.5t19.5 -98.5q0 -69 -36 -122.5t-88.5 -96.5t-117 -80.5t-121 -74.5t-99.5 -75 t-54 -86h409l-27 -104h-518z" />
<glyph unicode="&#xf817;" d="M80 -232l45 95q39 -21 90.5 -32t104.5 -11q117 0 184.5 48t67.5 126q0 69 -55 100t-184 31h-13l23 97h48q116 0 176.5 47t60.5 110q0 95 -127 95q-56 0 -114 -16.5t-91 -33.5l-23 86q54 31 119.5 47.5t134.5 16.5q109 0 163 -53.5t54 -124.5q0 -62 -45.5 -125.5 t-135.5 -98.5q69 -24 99 -70t30 -102q0 -49 -21.5 -99.5t-66.5 -91.5t-117 -66.5t-173 -25.5q-62 0 -123.5 12.5t-110.5 38.5z" />
<glyph unicode="&#xf818;" d="M71 -60l17 71q34 53 96.5 128.5t138 153t157 147.5t152.5 116h101l-124 -521h103l-25 -95h-100l-50 -207h-114l48 207h-400zM215 35h281l93 387q-99 -77 -196.5 -179.5t-177.5 -207.5z" />
<glyph unicode="&#xf819;" d="M64 -236l45 99q44 -25 99 -36.5t110 -11.5q48 0 93 9.5t79.5 31t54.5 56.5t20 82q0 32 -11.5 59t-48 47.5t-106.5 32t-186 13.5q37 97 71 195t67 215h429l-27 -104h-328q-12 -46 -33.5 -108t-40.5 -106q170 -10 250.5 -61.5t80.5 -174.5q0 -77 -32 -132t-86.5 -88 t-124 -49t-143.5 -16q-143 0 -232 47z" />
<glyph unicode="&#xf81a;" d="M155 -10q0 131 49.5 236.5t135.5 179.5t201 114t244 44l-8 -104q-176 -2 -294 -74t-171 -187q49 21 103 34t104 13q57 0 99 -18.5t70 -50t41 -71t13 -82.5q0 -75 -25.5 -132.5t-69.5 -96.5t-103.5 -59.5t-125.5 -20.5q-54 0 -102.5 14.5t-84 48t-56 85t-20.5 127.5z M269 -8q0 -31 8 -63t24.5 -57.5t46 -42t72.5 -16.5q49 0 86.5 17.5t63.5 44t39 62.5t13 74q0 140 -138 140q-56 0 -109 -15t-96 -33q-4 -26 -7 -53.5t-3 -57.5z" />
<glyph unicode="&#xf81b;" d="M189 -267q33 97 83.5 197.5t113 195t131 177.5t134.5 144h-414l26 109h572l-20 -84q-47 -39 -116 -111t-141.5 -169t-140.5 -213t-113 -246h-115z" />
<glyph unicode="&#xf81c;" d="M121 -94q0 69 51 141t161 115q-41 24 -67 56t-26 88q0 55 26 104.5t71 86.5t104.5 57t125.5 20q109 0 162 -50t53 -120q0 -69 -46.5 -138.5t-134.5 -114.5q45 -24 77.5 -59.5t32.5 -95.5q0 -66 -30 -119t-80.5 -88.5t-114 -54.5t-127.5 -19q-121 0 -179.5 56.5 t-58.5 134.5zM234 -80q0 -19 6 -39.5t23.5 -35.5t46.5 -24.5t72 -9.5q58 0 98.5 15.5t66.5 40t39 53.5t13 57q0 33 -17 55t-44 39t-62.5 30.5t-69.5 25.5q-30 -12 -61 -31.5t-56.5 -45.5t-40 -58.5t-14.5 -71.5zM351 314q0 -28 14.5 -47t38 -33t53.5 -26t62 -25 q27 12 53.5 32.5t49 46t37 55.5t14.5 66q0 39 -30.5 68t-98.5 29q-89 0 -141 -47t-52 -119z" />
<glyph unicode="&#xf81d;" d="M79 -271l18 103q198 0 318 70.5t173 190.5q-54 -25 -108 -37.5t-103 -12.5q-58 0 -100 18.5t-70.5 48.5t-41 71t-12.5 84q0 73 25.5 131t70 98t103.5 60t125 20q54 0 102 -15t84 -47t56.5 -84.5t20.5 -128.5q0 -133 -47.5 -238.5t-134.5 -178.5t-208.5 -113t-270.5 -40z M274 277q0 -139 137 -139q56 0 108.5 14t95.5 31q6 28 8 56t2 58q0 33 -7 65t-24.5 56.5t-46.5 41t-72 16.5q-49 0 -87 -17.5t-63.5 -44t-38 -62.5t-12.5 -75z" />
<glyph horiz-adv-x="505" d="M178 0l269 1112h140l-269 -1112h-140zM503 1436q0 56 31.5 85.5t67.5 29.5q43 0 66.5 -27.5t23.5 -70.5q0 -51 -34 -79t-69 -28q-43 0 -64.5 24.5t-21.5 65.5z" />
<glyph horiz-adv-x="648" d="M296 369q0 191 42 382.5t125 373.5t203 347.5t278 305.5l97 -71q-148 -134 -262.5 -290.5t-192 -328t-117.5 -351t-40 -357.5q0 -155 28 -311t87 -299l-108 -61q-70 163 -105 325.5t-35 334.5z" />
<glyph horiz-adv-x="648" d="M-23 -224q148 134 262 287t191.5 322t117.5 348.5t40 362.5q0 158 -29.5 319t-91.5 309l111 56q72 -166 107.5 -328.5t35.5 -335.5q0 -193 -42 -384.5t-125 -373.5t-203 -347.5t-278 -305.5z" />
<glyph horiz-adv-x="599" d="M198 675l33 136h489l-32 -136h-490z" />
<glyph horiz-adv-x="812" d="M-109 -297l1200 2082h137l-1202 -2082h-135z" />
<glyph horiz-adv-x="1995" d="M289 526q0 277 89.5 490.5t239.5 358.5t348 219t417 74q155 0 283 -42t219 -128t142 -214.5t51 -304.5q0 -191 -52 -325t-131 -219.5t-175 -124.5t-181 -39q-60 0 -106 20.5t-62 59.5q-50 -35 -122.5 -59.5t-142.5 -24.5q-78 0 -142.5 20.5t-110.5 63.5t-73 108t-27 153 q0 136 43 250.5t120.5 195.5t186 127.5t241.5 46.5q103 0 185 -17.5t119 -32.5l-162 -653q-4 -17 -9.5 -36.5t-5.5 -38.5q0 -21 13.5 -42t77.5 -21q103 0 176.5 59t118.5 148.5t65.5 196t20.5 200.5q0 138 -41 242.5t-117.5 172t-184 102t-240.5 34.5q-176 0 -343 -66 t-297.5 -192.5t-209.5 -312.5t-79 -429q0 -293 158 -450t446 -157q137 0 303 39l-10 -118q-166 -43 -310 -43q-160 0 -294.5 47.5t-231 137.5t-150 222.5t-53.5 301.5zM901 626q0 -127 56.5 -184.5t152.5 -57.5q95 0 145 19.5t87 39.5q0 45 5.5 73t10.5 49l130 533 q-2 2 -16.5 5.5t-37 6t-49.5 4.5t-53 2q-95 0 -173.5 -36.5t-135.5 -102.5t-89.5 -156t-32.5 -195z" />
<glyph horiz-adv-x="655" d="M149 -297l501 2082h421l-23 -108h-293l-452 -1866h295l-28 -108h-421z" />
<glyph horiz-adv-x="775" d="M407 1785h128l226 -2082h-128z" />
<glyph horiz-adv-x="657" d="M-87 -297l25 108h293l451 1866h-295l29 108h421l-501 -2082h-423z" />
<glyph horiz-adv-x="655" d="M260 691l26 105q62 0 104 31t70 79t45.5 101.5t27.5 98.5l57 223q30 123 57.5 209.5t75 141t125 80t206.5 25.5l-28 -107q-54 0 -98 -8t-79.5 -32.5t-62.5 -70.5t-46 -121l-63 -254q-26 -101 -49.5 -177.5t-51 -132t-63.5 -92.5t-85 -58q54 -33 70 -80t16 -101 q0 -38 -7.5 -78t-16.5 -77l-86 -355q-15 -58 -15 -101q0 -69 47.5 -99t139.5 -30l-29 -107q-134 0 -208.5 52.5t-74.5 166.5q0 25 7 64t17 82l82 331q11 39 16 74.5t5 65.5q0 62 -28.5 103.5t-102.5 47.5z" />
<glyph horiz-adv-x="655" d="M-11 -296l29 107q53 0 97 7.5t80 32t62.5 71.5t45.5 121l63 254q26 101 49.5 177.5t51 132.5t63.5 92.5t85 57.5q-54 33 -70 80t-16 101q0 39 8 78.5t16 76.5l86 355q15 58 15 101q0 69 -47.5 99t-139.5 30l29 107q134 0 208.5 -52.5t74.5 -166.5q0 -24 -7 -63.5 t-17 -82.5l-82 -331q-11 -39 -16 -74.5t-5 -66.5q0 -62 28.5 -103t102.5 -47l-26 -105q-62 0 -104 -31.5t-70 -78.5t-45.5 -100.5t-27.5 -99.5l-56 -223q-30 -123 -58 -210t-75.5 -142t-125 -79.5t-206.5 -24.5z" />
<glyph horiz-adv-x="646" d="M287 744l406 454l77 -65l-318 -398l178 -399l-98 -49z" />
<glyph horiz-adv-x="722" d="M318 746q0 52 17.5 98t50.5 81.5t82 57t108 21.5q60 0 107.5 -21.5t81 -57t52 -81.5t18.5 -98q0 -51 -18.5 -98.5t-52 -83t-81 -56t-107.5 -20.5q-59 0 -108 20.5t-82 56t-50.5 83t-17.5 98.5z" />
<glyph horiz-adv-x="1051" d="M144 681l29 123h1073l-27 -123h-1075z" />
<glyph horiz-adv-x="2128" d="M144 681l29 123h2151l-32 -123h-2148z" />
<glyph horiz-adv-x="646" d="M265 352l318 398l-178 400l99 48l245 -456l-406 -455z" />
<glyph horiz-adv-x="571" d="M287 0h152l98 415q43 183 67 329t40 288h-76q-21 -55 -48.5 -144.5t-54 -182t-48 -173t-30.5 -115.5zM574 1385q0 47 32.5 89t90.5 42q56 0 81.5 -31t25.5 -72q0 -47 -32.5 -89t-90.5 -42q-55 0 -81 31t-26 72z" />
<glyph horiz-adv-x="1026" d="M287 744l406 454l77 -65l-318 -398l178 -399l-98 -49zM667 744l406 454l77 -65l-318 -398l178 -399l-98 -49z" />
<glyph horiz-adv-x="1026" d="M265 352l318 398l-178 400l99 48l245 -456l-406 -455zM645 352l318 398l-178 400l99 48l245 -456l-406 -455z" />
<glyph horiz-adv-x="827" d="M285 255q0 -79 26.5 -134t70.5 -88t102 -48t123 -15q79 0 158.5 19.5t143.5 49.5l-17 118q-51 -25 -121 -43.5t-139 -18.5q-39 0 -74 8.5t-62.5 27.5t-43 50t-15.5 79q0 84 47 152.5t166 156.5l25 20q58 45 106.5 91.5t85 99t58 115t23.5 139.5h-118q0 -81 -39.5 -146 t-101 -122t-131.5 -110.5t-131.5 -113t-101.5 -129t-40 -158.5zM806 1387q0 47 32.5 89t90.5 42q56 0 81.5 -31t25.5 -72q0 -48 -32 -90t-91 -42q-55 0 -81 31.5t-26 72.5z" />
<glyph horiz-adv-x="1438" d="M211 376q0 73 24.5 147t72 139t118.5 115t163 81q-82 43 -122.5 116t-40.5 155q0 71 30 141t91.5 126.5t154 91t214.5 34.5q139 0 270 -55l-59 -131q-50 28 -106.5 41.5t-115.5 13.5q-82 0 -143 -22.5t-101.5 -60.5t-61 -84t-20.5 -93q0 -103 55.5 -163.5t190.5 -60.5h31 l-31 -129h-21q-109 0 -191 -33t-137 -88t-83 -123t-28 -136q0 -58 20.5 -112t61.5 -96t104.5 -66.5t147.5 -24.5t173 32.5t166.5 97t137 162t84.5 231.5q-80 0 -129 -13.5t-78 -31.5t-44.5 -36t-27.5 -32l-78 80q28 41 60 72t74 50.5t95.5 29.5t125.5 10h357l-33 -129h-193 q-35 -175 -105.5 -298.5t-164 -203t-202.5 -116.5t-218 -37q-129 0 -221.5 35t-151.5 90.5t-87 130t-28 153.5z" />
</font>
</defs>
</svg>
