<?xml version="1.0" standalone="no"?>
<!DOCTYPE svg PUBLIC "-//W3C//DTD SVG 1.1//EN" "http://www.w3.org/Graphics/SVG/1.1/DTD/svg11.dtd" >
<svg xmlns="http://www.w3.org/2000/svg">
<metadata></metadata>
<defs>
<font id="ubuntulight" horiz-adv-x="771" >
<font-face units-per-em="2048" ascent="1638" descent="-410" />
<missing-glyph horiz-adv-x="489" />
<glyph unicode="&#xfb00;" horiz-adv-x="1617" d="M185 0v1233q0 217 99.5 326t308.5 109q91 0 148 -13.5t74 -24.5l-27 -120q-25 10 -71 22t-117 12q-148 0 -212 -75.5t-64 -241.5v-115h448v-119h-448v-993h-139zM993 0v1233q0 217 99.5 326t308.5 109q91 0 148 -13.5t74 -24.5l-27 -120q-25 10 -71 22t-117 12 q-148 0 -212 -75.5t-64 -241.5v-115h448v-119h-448v-993h-139z" />
<glyph unicode="&#xfb01;" horiz-adv-x="1317" d="M185 0v1233q0 217 99.5 326t308.5 109q91 0 148 -13.5t74 -24.5l-27 -120q-25 10 -71 22t-117 12q-148 0 -212 -75.5t-64 -241.5v-115h448v-119h-448v-993h-139zM958 1447q0 49 30.5 78.5t73.5 29.5t73 -29.5t30 -78.5t-30 -78t-73 -29t-73.5 29t-30.5 78zM993 0v1112 h139v-1112h-139z" />
<glyph unicode="&#xfb02;" horiz-adv-x="1356" d="M185 0v1233q0 217 99.5 326t308.5 109q91 0 148 -13.5t74 -24.5l-27 -120q-25 10 -71 22t-117 12q-148 0 -212 -75.5t-64 -241.5v-115h448v-119h-448v-993h-139zM991 267v1376l139 25v-1397q0 -52 10 -82.5t29 -49t50.5 -27.5t74.5 -15l-20 -116q-71 2 -123.5 18 t-88 49.5t-53.5 86t-18 132.5z" />
<glyph unicode="&#xfb03;" horiz-adv-x="2126" d="M185 0v1233q0 217 99.5 326t308.5 109q91 0 148 -13.5t74 -24.5l-27 -120q-25 10 -71 22t-117 12q-148 0 -212 -75.5t-64 -241.5v-115h448v-119h-448v-993h-139zM993 0v1233q0 217 99.5 326t308.5 109q91 0 148 -13.5t74 -24.5l-27 -120q-25 10 -71 22t-117 12 q-148 0 -212 -75.5t-64 -241.5v-115h448v-119h-448v-993h-139zM1767 1447q0 49 30.5 78.5t73.5 29.5t73 -29.5t30 -78.5t-30 -78t-73 -29t-73.5 29t-30.5 78zM1802 0v1112h139v-1112h-139z" />
<glyph unicode="&#xfb04;" horiz-adv-x="2165" d="M185 0v1233q0 217 99.5 326t308.5 109q91 0 148 -13.5t74 -24.5l-27 -120q-25 10 -71 22t-117 12q-148 0 -212 -75.5t-64 -241.5v-115h448v-119h-448v-993h-139zM993 0v1233q0 217 99.5 326t308.5 109q91 0 148 -13.5t74 -24.5l-27 -120q-25 10 -71 22t-117 12 q-148 0 -212 -75.5t-64 -241.5v-115h448v-119h-448v-993h-139zM1800 267v1376l139 25v-1397q0 -52 10 -82.5t29 -49t50.5 -27.5t74.5 -15l-20 -116q-71 2 -123.5 18t-88 49.5t-53.5 86t-18 132.5z" />
<glyph unicode="&#xd;" horiz-adv-x="489" />
<glyph horiz-adv-x="0" />
<glyph unicode=" "  horiz-adv-x="489" />
<glyph unicode="&#x09;" horiz-adv-x="489" />
<glyph unicode="&#xa0;" horiz-adv-x="489" />
<glyph unicode="!" horiz-adv-x="589" d="M176 92q0 50 31 84.5t88 34.5q56 0 87 -34.5t31 -84.5q0 -49 -31 -83.5t-87 -34.5t-87.5 34.5t-31.5 83.5zM219 1075v415h151v-415q0 -92 -3.5 -173t-9.5 -156t-14 -146l-16 -142h-65q-18 144 -30.5 288t-12.5 329z" />
<glyph unicode="&#x22;" horiz-adv-x="842" d="M181 1555v79h154v-81q0 -107 -11.5 -218.5t-30.5 -220.5h-71q-17 109 -29 220t-12 221zM508 1555v79h154v-81q0 -107 -11.5 -218.5t-30.5 -220.5h-71q-17 109 -29 220t-12 221z" />
<glyph unicode="#" horiz-adv-x="1403" d="M101 406v117h228l84 445h-312v114h336l76 408h132l-77 -408h398l77 408h131l-78 -408h207v-114h-230l-84 -445h314v-117h-335l-80 -406h-131l80 406h-398l-80 -406h-131l80 406h-207zM460 523h398l86 445h-398z" />
<glyph unicode="$" horiz-adv-x="1212" d="M162 131l41 121q28 -15 62 -30t79.5 -28t104 -20.5t138.5 -7.5q84 0 143.5 17t96.5 46t53.5 70t16.5 86q0 72 -27 118.5t-75 82.5t-117 62.5t-151 57.5q-58 21 -118 47.5t-108.5 66.5t-79 97t-30.5 137q0 160 87 246.5t270 112.5v255h127v-248q101 -2 177.5 -20.5 t128.5 -40.5l-37 -118q-37 15 -108 35.5t-191 20.5q-306 0 -305 -222q0 -60 21.5 -99.5t62 -69.5t99 -54.5t129.5 -49.5q78 -30 149.5 -61t126.5 -76t87 -110t32 -157q0 -150 -99 -243t-273 -106v-283h-127v277q-146 2 -242.5 31t-143.5 57z" />
<glyph unicode="%" horiz-adv-x="1786" d="M127 1137q0 95 25.5 167.5t71 120.5t103.5 72.5t122 24.5t122.5 -24.5t103.5 -72.5t71 -120.5t26 -167.5q0 -94 -26 -166t-71 -120.5t-103.5 -73t-122.5 -24.5t-122 24.5t-103.5 73t-71 120.5t-25.5 166zM254 1137q0 -123 49.5 -197t145.5 -74q97 0 146.5 74t49.5 197 t-49.5 197t-146.5 74q-96 0 -145.5 -74t-49.5 -197zM398 0l849 1490h142l-849 -1490h-142zM1015 353q0 94 26 166t71 120.5t103 73t123 24.5q64 0 122 -24.5t103.5 -73t71 -120.5t25.5 -166q0 -95 -25.5 -167t-71 -120.5t-103.5 -73.5t-122 -25t-122.5 25t-103.5 73.5 t-71 120.5t-26 167zM1141 353q0 -123 50 -197t147 -74q96 0 145.5 74t49.5 197t-49.5 197t-145.5 74q-97 0 -147 -74t-50 -197z" />
<glyph unicode="&#x26;" horiz-adv-x="1393" d="M107 385q0 86 27.5 154t72.5 120.5t105 93.5t125 70q-95 88 -132.5 172t-37.5 171q0 84 26.5 150.5t75 112.5t115 69.5t144.5 23.5q80 0 144.5 -24.5t107.5 -66.5t66.5 -100t23.5 -125q0 -79 -28 -142.5t-73.5 -113t-104 -88.5t-119.5 -70l400 -409q45 76 73.5 164.5 t38.5 179.5l121 -15q-11 -105 -47.5 -212.5t-101.5 -204.5q80 -82 143.5 -155.5t99.5 -139.5h-157q-31 49 -72.5 97.5t-91.5 97.5q-90 -96 -209.5 -155t-267.5 -59q-131 0 -220 37.5t-144.5 96.5t-79 130t-23.5 140zM258 385q0 -49 17.5 -100t53.5 -91t96.5 -65.5 t148.5 -25.5q125 0 223 47t171 129l-451 463q-43 -21 -90 -49t-84 -70t-61 -100.5t-24 -137.5zM408 1180q0 -75 34 -149t128 -161q117 56 192 131.5t75 202.5q0 84 -57.5 141t-147.5 57q-109 0 -166.5 -59t-57.5 -163z" />
<glyph unicode="'" horiz-adv-x="515" d="M181 1555v79h154v-81q0 -107 -11.5 -218.5t-30.5 -220.5h-71q-17 109 -29 220t-12 221z" />
<glyph unicode="(" horiz-adv-x="665" d="M178 643q0 311 102.5 573.5t265.5 467.5l101 -69q-170 -211 -248.5 -446.5t-78.5 -525.5t79 -526t248 -446l-101 -69q-164 205 -266 467t-102 574z" />
<glyph unicode=")" horiz-adv-x="665" d="M19 -329q170 211 248.5 446.5t78.5 525.5q0 289 -78.5 525t-248.5 447l102 69q164 -205 265.5 -467.5t101.5 -573.5q0 -312 -102 -574t-265 -467z" />
<glyph unicode="*" horiz-adv-x="1014" d="M84 1127l45 139q52 -16 95 -33.5t84 -37t81.5 -40t86.5 -41.5q-9 52 -16.5 97t-13 89t-8.5 90t-3 100h146q0 -54 -3.5 -100t-8.5 -90t-13 -89t-16 -97q45 21 86 41.5t82 40t84 37t94 33.5l45 -139q-100 -33 -186 -48t-186 -30q73 -74 132.5 -133.5t123.5 -145.5l-120 -89 q-30 43 -55 83t-46.5 80t-42 82t-44.5 87q-24 -45 -44 -87t-41.5 -82t-46 -80t-55.5 -83l-120 89q32 43 62.5 78.5t60.5 67.5t63 64.5t70 68.5q-101 15 -186 30t-186 48z" />
<glyph unicode="+" horiz-adv-x="1212" d="M121 562v119h423v468h125v-468h423v-119h-423v-470h-125v470h-423z" />
<glyph unicode="," horiz-adv-x="528" d="M105 -295q49 94 69.5 198.5t20.5 217.5q0 26 -1 43t-3 41h158q2 -19 2 -35v-26q0 -134 -38 -256t-104 -230z" />
<glyph unicode="-" horiz-adv-x="605" d="M60 554v136h486v-136h-486z" />
<glyph unicode="." horiz-adv-x="528" d="M146 92q0 50 31.5 84.5t87.5 34.5q55 0 86.5 -34.5t31.5 -84.5q0 -49 -31.5 -83.5t-86.5 -34.5q-56 0 -87.5 34.5t-31.5 83.5z" />
<glyph unicode="/" d="M-49 -398l733 2082h137l-729 -2082h-141z" />
<glyph unicode="0" horiz-adv-x="1212" d="M127 744q0 378 124.5 578t355.5 200q228 0 353.5 -200t125.5 -578q0 -375 -125.5 -576t-353.5 -201t-354 201t-126 576zM279 744q0 -129 16.5 -246.5t54 -206t99.5 -143t158 -54.5q92 0 154 54.5t101 143t55 206t16 246.5q0 130 -16 247t-55 207t-101 143.5t-154 53.5 q-95 0 -157.5 -53.5t-100 -143.5t-54 -207.5t-16.5 -246.5z" />
<glyph unicode="1" horiz-adv-x="1212" d="M230 1184q129 46 230.5 116t199.5 190h99v-1490h-139v1278q-25 -26 -62 -54t-84.5 -55.5t-99.5 -52t-103 -39.5z" />
<glyph unicode="2" horiz-adv-x="1212" d="M148 1352q13 15 46.5 44.5t84 57.5t117 48t148.5 20q217 0 327 -106.5t110 -295.5q0 -84 -30 -158t-81 -142.5t-115.5 -133l-130.5 -130.5q-56 -53 -109 -107.5t-95 -109.5t-66.5 -108t-24.5 -104v-4h703v-123h-858q0 4 -1 16t-1 35q0 101 36.5 188.5t93.5 165t127 144 t135 128.5q53 52 101.5 100t85.5 100t58.5 110t21.5 127q0 150 -81 215.5t-204 65.5q-69 0 -122.5 -17t-93.5 -39.5t-68 -46.5t-40 -36z" />
<glyph unicode="3" horiz-adv-x="1212" d="M144 47l37 125q12 -8 42.5 -21t72.5 -25t94.5 -20.5t114.5 -8.5q205 0 293 85t88 229q0 94 -35.5 156.5t-97 100.5t-142 53.5t-170.5 15.5h-22v117h49q58 0 119.5 12t112.5 44t84 85.5t33 137.5q0 71 -23.5 121.5t-63.5 80.5t-92.5 44t-110.5 14q-116 0 -181 -32 t-106 -60l-59 109q21 15 54.5 35t78.5 36.5t99.5 28.5t119.5 12q112 0 192.5 -27.5t134.5 -78.5t80 -121t26 -151q0 -131 -70.5 -214t-179.5 -119q60 -15 117 -46.5t102.5 -80t73 -117t27.5 -161.5q0 -94 -33 -174t-98.5 -138.5t-167 -92.5t-236.5 -34q-72 0 -130.5 10 t-103.5 23t-76 26t-47 21z" />
<glyph unicode="4" horiz-adv-x="1212" d="M107 404v86q39 103 109 232.5t158 264.5t191.5 265.5t208.5 237.5h147v-971h185v-115h-185v-404h-139v404h-675zM252 519h530v815q-75 -78 -152.5 -179t-147 -209.5t-129.5 -218.5t-101 -208z" />
<glyph unicode="5" horiz-adv-x="1212" d="M154 47l37 125q13 -8 44.5 -21t73.5 -25t94.5 -20.5t109.5 -8.5q108 0 180 24.5t115.5 67.5t61.5 100t18 124q0 86 -27.5 154.5t-99 116t-192 72t-304.5 24.5q12 109 21 201t15.5 177t9.5 165.5t5 166.5h671v-122h-548q-2 -41 -6.5 -105.5t-9 -132t-11 -130t-10.5 -99.5 q166 -4 286 -41t198 -99t115 -150t37 -196q0 -95 -31 -176t-95.5 -141.5t-163.5 -95.5t-235 -35q-69 0 -127.5 10t-105 23t-78.5 26t-48 21z" />
<glyph unicode="6" horiz-adv-x="1212" d="M166 591q0 437 209.5 662.5t609.5 242.5l8 -117q-131 -9 -242 -40.5t-197 -97t-143.5 -168.5t-79.5 -254q57 30 139 53t175 23q120 0 204 -38t135.5 -100t75.5 -144t24 -172q0 -84 -26 -168t-80.5 -151.5t-137.5 -111t-197 -43.5q-235 0 -356 164.5t-121 459.5zM316 589 q0 -101 14 -191t51.5 -159t100 -109t158.5 -40q80 0 136.5 29t90.5 76.5t50 110t16 131.5q0 172 -76.5 253.5t-224.5 81.5q-99 0 -173 -22.5t-139 -52.5q-4 -37 -4 -57v-51z" />
<glyph unicode="7" horiz-adv-x="1212" d="M148 1361v129h906v-125q-73 -88 -160.5 -235t-164.5 -331t-134 -390t-70 -409h-149q12 178 65.5 378.5t129.5 387t165 343.5t173 252h-761z" />
<glyph unicode="8" horiz-adv-x="1212" d="M142 374q0 75 21.5 136.5t57 110t82 86t97.5 65.5q-131 64 -178.5 152.5t-47.5 191.5q0 93 32 168t89.5 128t136.5 81.5t175 28.5q111 0 193 -33.5t134.5 -87t77 -122t24.5 -142.5q0 -71 -21.5 -130t-55.5 -107t-77 -85t-84 -62q150 -64 211.5 -161t61.5 -205 q0 -92 -33.5 -169.5t-93.5 -132.5t-146 -86.5t-191 -31.5t-190.5 30.5t-146.5 85.5t-94.5 129t-33.5 162zM290 374q0 -60 19.5 -111.5t59 -90.5t99 -61.5t139.5 -22.5t138.5 22.5t98.5 61.5t59.5 90.5t19.5 111.5q0 92 -35.5 150.5t-93 95t-129.5 58t-144 44.5 q-109 -51 -170 -138t-61 -210zM320 1131q0 -60 14.5 -109.5t53 -89.5t107.5 -73.5t180 -62.5q99 56 157 137.5t58 203.5q0 49 -16 97t-49 85.5t-87 60t-131 22.5q-71 0 -125 -21.5t-89.5 -59t-54 -87.5t-18.5 -103z" />
<glyph unicode="9" horiz-adv-x="1212" d="M135 1051q0 82 26 166t81 151.5t137.5 110.5t196.5 43q235 0 356.5 -164t121.5 -459q0 -450 -215 -676.5t-628 -226.5l-4 115q142 0 260 32.5t205 100.5t141.5 174.5t74.5 256.5q-57 -30 -139 -52.5t-175 -22.5q-120 0 -204 37.5t-135.5 100t-75.5 144.5t-24 169z M286 1056q0 -170 76.5 -252t224.5 -82q99 0 173.5 23t138.5 53q2 26 3 49t1 54q0 101 -13.5 191t-51.5 159t-100.5 109t-158.5 40q-80 0 -136 -29t-90.5 -76.5t-50.5 -110t-16 -128.5z" />
<glyph unicode=":" horiz-adv-x="528" d="M146 92q0 50 31.5 84.5t87.5 34.5q55 0 86.5 -34.5t31.5 -84.5q0 -49 -31.5 -83.5t-86.5 -34.5q-56 0 -87.5 34.5t-31.5 83.5zM146 993q0 50 31.5 84.5t87.5 34.5q55 0 86.5 -34.5t31.5 -84.5q0 -49 -31.5 -83.5t-86.5 -34.5q-56 0 -87.5 34.5t-31.5 83.5z" />
<glyph unicode=";" horiz-adv-x="528" d="M105 -295q49 94 69.5 198.5t20.5 217.5q0 26 -1 43t-3 41h158q2 -19 2 -35v-26q0 -134 -38 -256t-104 -230zM146 993q0 50 31.5 84.5t87.5 34.5q55 0 86.5 -34.5t31.5 -84.5q0 -49 -31.5 -83.5t-86.5 -34.5q-56 0 -87.5 34.5t-31.5 83.5z" />
<glyph unicode="&#x3c;" horiz-adv-x="1212" d="M119 556v125l930 396l43 -118l-811 -339l811 -341l-43 -117z" />
<glyph unicode="=" horiz-adv-x="1212" d="M121 335v121h971v-121h-971zM121 788v119h971v-119h-971z" />
<glyph unicode="&#x3e;" horiz-adv-x="1212" d="M119 279l810 341l-810 339l43 118l930 -396v-125l-930 -394z" />
<glyph unicode="?" horiz-adv-x="816" d="M43 1449q45 26 130 49.5t188 23.5q115 0 191 -28.5t121 -75t64.5 -104.5t19.5 -114q0 -78 -28 -138t-71 -111.5t-91 -99t-91 -97.5t-71.5 -108.5t-28.5 -128.5v-37t2 -22h-111q-5 21 -7 46t-2 50q0 74 26 131t64.5 106.5t84 93.5t83.5 90.5t64.5 99t26.5 119.5 q0 60 -21.5 100t-57.5 63.5t-83 32t-99 8.5q-143 0 -262 -64zM215 92q0 50 31 84.5t87 34.5q55 0 87 -34.5t32 -84.5q0 -49 -31 -83.5t-88 -34.5q-56 0 -87 34.5t-31 83.5z" />
<glyph unicode="@" horiz-adv-x="2021" d="M154 604q0 230 69.5 402t188.5 286t279.5 170t340.5 56q172 0 324 -58t266 -166t179.5 -260t65.5 -342q0 -140 -30.5 -246t-83 -177.5t-123.5 -107.5t-153 -36q-69 0 -110.5 23.5t-61.5 51.5q-39 -27 -105.5 -52t-145.5 -25q-98 0 -181 29t-144.5 88t-96.5 149.5 t-35 212.5q0 100 31.5 189t90.5 154.5t146 103t200 37.5q103 0 186 -18.5t130 -37.5v-630q0 -84 28.5 -120.5t76.5 -36.5q73 0 119.5 46t73 116.5t37.5 148.5t11 143q0 140 -47.5 266.5t-137 222.5t-218 152.5t-292.5 56.5q-166 0 -301.5 -52.5t-232 -153.5t-150 -248 t-53.5 -337q0 -200 59 -350.5t162.5 -251.5t244 -151.5t304.5 -50.5q125 0 197 12t95 20l15 -118q-36 -10 -122.5 -23t-184.5 -13q-187 0 -353 54.5t-289.5 169.5t-196 289t-72.5 413zM742 604q0 -95 24 -163.5t64 -114t96.5 -67t118.5 -21.5q73 0 118.5 12t94.5 43 q-8 21 -11.5 54t-3.5 57v546q-17 4 -55.5 12t-108.5 8q-81 0 -145 -27t-106.5 -75.5t-64 -116t-21.5 -147.5z" />
<glyph unicode="A" horiz-adv-x="1377" d="M21 0q86 232 161.5 433t147.5 380.5t143 345.5t151 331h129q80 -166 150.5 -331.5t142.5 -345t147 -380.5t164 -433h-161q-41 109 -77.5 210.5t-71.5 197.5h-725q-36 -96 -72.5 -197.5t-75.5 -210.5h-153zM368 533h634q-82 222 -159.5 413.5t-158.5 376.5 q-82 -185 -158.5 -376.5t-157.5 -413.5z" />
<glyph unicode="B" horiz-adv-x="1354" d="M193 28v1435q39 10 86.5 17.5t98 12.5t99 8t89.5 3q121 0 229 -19.5t190 -65t130 -120t48 -183.5q0 -121 -61 -206t-164 -116q64 -15 118 -43.5t95 -72.5t63.5 -107.5t22.5 -151.5q0 -211 -168 -321.5t-519 -110.5q-37 0 -85 3.5t-98.5 8.5t-95.5 12.5t-78 16.5zM340 127 q33 -4 97 -10t131 -6q99 0 192.5 13.5t164 48t114 94.5t43.5 154q0 86 -30 143.5t-86.5 90.5t-136.5 46t-180 13h-309v-587zM340 839h284q80 0 150.5 11.5t123 43t83 84t30.5 134.5q0 73 -32.5 123.5t-92 82.5t-140.5 46.5t-180 14.5q-80 0 -135 -4.5t-91 -11.5v-524z" />
<glyph unicode="C" horiz-adv-x="1309" d="M133 747q0 186 57.5 331t152 244.5t219 149.5t259.5 50q84 0 153 -10t121 -26.5t88 -33t56 -28.5l-47 -127q-54 32 -137 63t-206 31q-139 0 -243.5 -47t-175.5 -133t-106.5 -204.5t-35.5 -262.5q0 -148 35.5 -267.5t104.5 -203.5t169 -129t228 -45q142 0 238 26.5 t146 55.5l41 -125q-15 -11 -52 -25t-93 -29t-129 -25t-163 -10q-144 0 -268 52t-215.5 151t-144 244t-52.5 333z" />
<glyph unicode="D" horiz-adv-x="1508" d="M193 26v1437q76 21 174.5 31t188.5 10q181 0 331.5 -48t259.5 -142.5t169.5 -236t60.5 -330.5q0 -192 -60.5 -334t-169.5 -236.5t-259.5 -142t-331.5 -47.5q-90 0 -188.5 9.5t-174.5 29.5zM340 129q13 -2 65.5 -8.5t168.5 -6.5q162 0 282 44.5t201.5 125.5t122.5 198.5 t41 264.5q0 145 -41 261.5t-122.5 198t-202 126t-281.5 44.5q-116 0 -168.5 -7t-65.5 -9v-1232z" />
<glyph unicode="E" horiz-adv-x="1192" d="M193 0v1490h861v-127h-714v-518h636v-125h-636v-593h770v-127h-917z" />
<glyph unicode="F" horiz-adv-x="1117" d="M193 0v1490h850v-127h-703v-524h624v-127h-624v-712h-147z" />
<glyph unicode="G" horiz-adv-x="1414" d="M133 747q0 186 56 331t152 243.5t222.5 149.5t271.5 51q166 0 273 -35.5t156 -66.5l-49 -125q-60 43 -163.5 69.5t-224.5 26.5q-111 0 -209.5 -41t-172 -122t-115.5 -202t-42 -279q0 -149 34.5 -268.5t104.5 -204.5t173.5 -130t238.5 -45q109 0 183 12t100 22v573h146 v-665q-41 -17 -160 -44t-293 -27q-146 0 -271 52t-216.5 149.5t-143 242.5t-51.5 333z" />
<glyph unicode="H" horiz-adv-x="1487" d="M193 0v1490h147v-647h809v647h146v-1490h-146v716h-809v-716h-147z" />
<glyph unicode="I" horiz-adv-x="532" d="M193 0v1490h147v-1490h-147z" />
<glyph unicode="J" horiz-adv-x="1046" d="M17 94l69 119q19 -17 48.5 -38t67.5 -37.5t85.5 -27.5t104.5 -11q166 0 244 87t78 298v1006h146v-1022q0 -107 -21.5 -198.5t-74 -159t-139.5 -105.5t-219 -38q-77 0 -141.5 14.5t-114 34t-82.5 41t-51 37.5z" />
<glyph unicode="K" horiz-adv-x="1287" d="M193 0v1490h147v-694q82 73 182 168.5t197.5 192.5t183.5 185t138 148h176q-62 -66 -150 -157.5t-187.5 -188.5t-197 -190.5t-175.5 -163.5q62 -39 134.5 -96.5t146.5 -125t146 -141.5t135.5 -149t114.5 -146.5t82 -131.5h-162q-74 111 -165.5 221t-192.5 207t-205 176.5 t-201 132.5v-737h-147z" />
<glyph unicode="L" horiz-adv-x="1079" d="M193 0v1490h147v-1363h701v-127h-848z" />
<glyph unicode="M" horiz-adv-x="1859" d="M158 0q18 406 43 778.5t61 711.5h130q64 -107 137 -248t145.5 -292.5t140 -299t118.5 -265.5q52 119 119.5 266t139.5 298.5t145 292.5t138 248h123q37 -340 61.5 -712t43.5 -778h-148q-13 346 -29 661t-44 584q-17 -30 -54 -103t-84 -169.5t-98.5 -207.5t-101.5 -215.5 t-89.5 -192.5t-61.5 -142h-131q-21 54 -61 142t-89 192.5t-101 215.5t-99.5 207.5t-83.5 169.5t-54 103q-29 -269 -44.5 -584t-28.5 -661h-143z" />
<glyph unicode="N" horiz-adv-x="1524" d="M193 0v1490h117q109 -123 235 -283t246 -326.5t224.5 -325.5t170.5 -278v1213h145v-1490h-122q-41 76 -104.5 176.5t-139 215.5t-159.5 237t-167 237t-161 215.5t-140 174.5v-1256h-145z" />
<glyph unicode="O" horiz-adv-x="1664" d="M133 747q0 191 56 335.5t152 243t222.5 147.5t269.5 49q141 0 267.5 -49t223 -147.5t152 -243t55.5 -335.5q0 -192 -55.5 -338.5t-152 -244.5t-223 -147.5t-267.5 -49.5q-142 0 -269 49.5t-223 147.5t-152 244t-56 339zM288 747q0 -151 38.5 -270.5t109.5 -203.5 t171.5 -129t225.5 -45t224.5 45t170.5 129t110 203.5t39 270.5q0 150 -39 269t-110 203t-171 128t-224 44q-125 0 -225.5 -44t-171.5 -128t-109.5 -203t-38.5 -269z" />
<glyph unicode="P" horiz-adv-x="1272" d="M193 0v1463q78 21 182.5 31t194.5 10q316 0 471 -121t155 -342q0 -127 -45 -216.5t-129 -144t-205.5 -79.5t-274.5 -25h-202v-576h-147zM340 704h185q119 0 214.5 13.5t163 51t104 104.5t36.5 170q0 98 -39.5 162.5t-105 102.5t-149.5 53.5t-173 15.5q-81 0 -138.5 -6 t-97.5 -10v-657z" />
<glyph unicode="Q" horiz-adv-x="1664" d="M133 747q0 191 56 335.5t152 243t222.5 147.5t269.5 49q141 0 267.5 -49t223 -147.5t152 -243t55.5 -335.5q0 -173 -45 -306t-122.5 -230t-183 -155t-226.5 -77q9 -60 55.5 -103.5t111.5 -73.5t145 -48.5t156 -28.5l-31 -123q-82 15 -176.5 37.5t-179.5 63.5 t-147.5 104.5t-81.5 159.5q-137 5 -260 57t-214.5 149.5t-145 241.5t-53.5 332zM288 747q0 -151 38.5 -270.5t109.5 -203.5t171.5 -129t225.5 -45t224.5 45t170.5 129t110 203.5t39 270.5q0 150 -39 269t-110 203t-171 128t-224 44q-125 0 -225.5 -44t-171.5 -128 t-109.5 -203t-38.5 -269z" />
<glyph unicode="R" horiz-adv-x="1328" d="M193 0v1463q78 21 182.5 31t192.5 10q308 0 463 -117t155 -344q0 -168 -87.5 -265t-232.5 -140q35 -43 90 -116t113 -160t114 -181.5t95 -180.5h-158q-45 86 -97.5 172t-107.5 166.5t-106.5 149t-90.5 121.5q-69 -6 -137 -7h-241v-602h-147zM340 727h202q101 0 191 10 t157 43t105.5 95.5t38.5 169.5q0 98 -38.5 163t-100.5 102.5t-143 52t-167 14.5q-82 0 -143.5 -6t-101.5 -10v-634z" />
<glyph unicode="S" horiz-adv-x="1110" d="M74 69l47 126q21 -12 57.5 -29.5t86 -33t111.5 -27t137 -11.5q175 0 272 64t97 205q0 82 -31.5 136.5t-83 92.5t-118 65t-140.5 57q-92 37 -165 75t-124.5 87t-78.5 111t-27 146q0 191 127 290t352 99q60 0 118.5 -8t108.5 -22.5t92 -31.5t71 -36l-52 -123 q-62 43 -151.5 68.5t-192.5 25.5q-71 0 -130 -13.5t-102 -45t-68 -78.5t-25 -114q0 -69 26 -116t72 -82t108.5 -62.5t135.5 -58.5q88 -36 166.5 -72.5t137 -86t92.5 -120t34 -174.5q0 -203 -140.5 -304t-382.5 -101q-86 0 -156.5 11.5t-126.5 27t-95 33t-59 30.5z" />
<glyph unicode="T" horiz-adv-x="1178" d="M39 1363v127h1100v-127h-476v-1363h-146v1363h-478z" />
<glyph unicode="U" horiz-adv-x="1461" d="M187 552v938h146v-918q0 -123 29.5 -212t81 -147.5t124 -86t163.5 -27.5q90 0 163.5 27.5t125 86t80.5 147.5t29 212v918h146v-938q0 -123 -29 -229t-93.5 -185.5t-169 -125t-252.5 -45.5t-252.5 45.5t-169 125t-93.5 186t-29 228.5z" />
<glyph unicode="V" horiz-adv-x="1340" d="M21 1490h164q64 -191 124.5 -362t118.5 -331.5t118.5 -314t128.5 -310.5q66 155 127.5 308.5t121 313.5t118.5 332.5t124 363.5h154q-99 -281 -177 -494.5t-146 -385t-129.5 -317t-127.5 -293.5h-136q-66 148 -128.5 293.5t-130.5 317t-146 385t-178 494.5z" />
<glyph unicode="W" horiz-adv-x="1980" d="M78 1490h150q32 -189 66.5 -370.5t72 -352t77.5 -321.5t79 -280q92 238 197 516.5t209 624.5h127q103 -346 207.5 -626.5t203.5 -514.5q75 254 149 598t143 726h144q-39 -230 -78.5 -431t-82.5 -382.5t-90.5 -348t-102.5 -328.5h-158q-51 123 -101.5 245.5t-100.5 252.5 t-99 271.5t-101 301.5q-51 -160 -101.5 -301.5t-100.5 -271.5t-100.5 -252.5t-101.5 -245.5h-155q-57 162 -106 328.5t-91 348t-79 382.5t-76 431z" />
<glyph unicode="X" horiz-adv-x="1307" d="M58 0q98 195 231.5 393t272.5 395l-480 702h168l402 -600l402 600h163l-480 -698q140 -198 273.5 -397.5t232.5 -394.5h-159q-33 64 -83.5 148t-109 176.5t-122 185t-122.5 174.5q-58 -82 -121.5 -174.5t-122.5 -185t-109.5 -176.5t-82.5 -148h-153z" />
<glyph unicode="Y" horiz-adv-x="1223" d="M21 1490h170q90 -189 199 -384t227 -371q115 176 224 371t202 384h159q-114 -205 -240.5 -425t-275.5 -448v-617h-146v613q-153 234 -281 452.5t-238 424.5z" />
<glyph unicode="Z" horiz-adv-x="1203" d="M82 0v109q47 93 112.5 203.5t141 228t157 236t161 227t152 201t132.5 158.5h-815v127h973v-133q-51 -60 -119 -146t-145 -188t-158 -217.5t-159 -232.5t-148 -231t-127 -215h878v-127h-1036z" />
<glyph unicode="[" horiz-adv-x="665" d="M215 -398v2082h434v-108h-300v-1866h300v-108h-434z" />
<glyph unicode="\" d="M-49 1684h137l733 -2082h-142z" />
<glyph unicode="]" horiz-adv-x="665" d="M17 -290h301v1866h-301v108h435v-2082h-435v108z" />
<glyph unicode="^" horiz-adv-x="1212" d="M133 765l405 725h137l404 -725l-105 -55l-367 662l-369 -662z" />
<glyph unicode="_" horiz-adv-x="1053" d="M-10 -277h1075v-121h-1075v121z" />
<glyph unicode="`" horiz-adv-x="808" d="M129 1553l99 109l340 -326l-71 -82z" />
<glyph unicode="a" horiz-adv-x="1094" d="M103 324q0 91 34.5 155.5t97 106.5t148 61.5t187.5 19.5q31 0 64 -3.5t64 -9t53.5 -11t30.5 -9.5v70q0 57 -8.5 111.5t-37 99t-81.5 71.5t-138 27q-123 0 -183.5 -17t-88.5 -28l-19 122q36 17 113 32t184 15q109 0 185.5 -31t124 -85.5t69 -130t21.5 -163.5v-701 q-21 -6 -62.5 -14t-95 -16.5t-119 -14t-135.5 -5.5q-88 0 -162 19.5t-128.5 61.5t-86 107.5t-31.5 159.5zM248 324q0 -62 20 -105t57.5 -68.5t90.5 -37.5t120 -12q81 0 142.5 5t103.5 15v390q-24 11 -75 23t-141 12q-52 0 -108 -7.5t-103 -32t-77 -67.5t-30 -115z" />
<glyph unicode="b" horiz-adv-x="1252" d="M185 35v1608l139 25v-623q37 28 118 59t190 31q121 0 214.5 -43t158 -120t97.5 -184t33 -234q0 -135 -39.5 -242t-112 -182.5t-172 -115.5t-222.5 -40q-148 0 -244.5 19.5t-159.5 41.5zM324 131q33 -10 96.5 -20t166.5 -10q181 0 290.5 117t109.5 336q0 93 -19.5 176 t-62.5 144.5t-113 98t-172 36.5q-50 0 -95 -10t-84 -25t-68 -32t-49 -33v-778z" />
<glyph unicode="c" horiz-adv-x="989" d="M119 552q0 132 35 239.5t101.5 185t161 119t213.5 41.5q90 0 169 -14.5t122 -38.5l-37 -120q-43 21 -97 34t-144 13q-185 0 -280.5 -119.5t-95.5 -339.5q0 -98 21.5 -181t69.5 -142t124.5 -92.5t186.5 -33.5q90 0 151.5 20.5t88.5 36.5l31 -121q-39 -21 -122 -42 t-173 -21q-129 0 -228 41t-164.5 117.5t-99.5 182.5t-34 235z" />
<glyph unicode="d" horiz-adv-x="1252" d="M119 554q0 127 33 234t97.5 184t158 120t214.5 43q109 0 189.5 -31t117.5 -59v598l140 25v-1633q-62 -21 -159 -41t-245 -20q-123 0 -223 40t-172.5 115.5t-111.5 182.5t-39 242zM267 554q0 -219 109.5 -336t290.5 -117q103 0 166.5 10t95.5 20v778q-19 15 -48 32.5 t-68 32.5t-84 25t-95 10q-103 0 -172.5 -36.5t-112.5 -98t-62.5 -144.5t-19.5 -176z" />
<glyph unicode="e" horiz-adv-x="1178" d="M119 556q0 146 42 255.5t109.5 182.5t154 108t179.5 35q204 0 325.5 -133.5t121.5 -410.5q0 -17 -1 -34t-3 -32h-780q6 -205 100.5 -314.5t301.5 -109.5q114 0 180.5 21.5t96.5 37.5l26 -121q-30 -17 -113 -41t-194 -24q-146 0 -249.5 43t-170.5 120.5t-96.5 183.5 t-29.5 233zM271 645h636q-4 174 -81 271t-219 97q-76 0 -135 -30.5t-103.5 -80.5t-69 -117t-28.5 -140z" />
<glyph unicode="f" horiz-adv-x="808" d="M185 0v1233q0 217 99.5 326t308.5 109q91 0 148 -13.5t74 -24.5l-27 -120q-25 10 -71 22t-117 12q-148 0 -212 -75.5t-64 -241.5v-115h448v-119h-448v-993h-139z" />
<glyph unicode="g" horiz-adv-x="1231" d="M119 581q0 118 36 219t104 175t166 116t220 42q154 0 248 -20.5t154 -39.5v-1015q0 -250 -128.5 -356t-389.5 -106q-107 0 -194 16t-150 37l28 127q52 -24 141 -40.5t179 -16.5q198 0 287 76t89 261v73q-12 -10 -38 -24.5t-63.5 -29.5t-86 -24.5t-108.5 -9.5 q-96 0 -187 30t-158.5 94.5t-108 167t-40.5 248.5zM267 579q0 -110 30 -188.5t78 -128t110.5 -72t127.5 -22.5q95 0 173 28t121 64v716q-37 11 -94.5 20.5t-165.5 9.5q-91 0 -160.5 -31t-119 -87.5t-75 -135.5t-25.5 -173z" />
<glyph unicode="h" horiz-adv-x="1223" d="M185 0v1643l139 25v-589q70 27 141 40.5t142 13.5q129 0 214.5 -36.5t137.5 -104t72 -162.5t20 -208v-622h-140v576q0 119 -15.5 200.5t-53.5 133t-100.5 74t-156.5 22.5q-37 0 -79 -6.5t-78 -13.5t-65.5 -16t-38.5 -13v-957h-139z" />
<glyph unicode="i" horiz-adv-x="509" d="M150 1447q0 49 30.5 78.5t73.5 29.5t73 -29.5t30 -78.5t-30 -78t-73 -29t-73.5 29t-30.5 78zM185 0v1112h139v-1112h-139z" />
<glyph unicode="j" horiz-adv-x="509" d="M-135 -380l18 113q15 -4 41.5 -8t49.5 -4q127 0 169 70.5t42 212.5v1108h139v-1102q0 -211 -79.5 -311.5t-268.5 -100.5q-24 0 -59.5 6t-51.5 16zM150 1447q0 49 30.5 78.5t73.5 29.5t73 -29.5t30 -78.5t-30 -78t-73 -29t-73.5 29t-30.5 78z" />
<glyph unicode="k" horiz-adv-x="1063" d="M185 0v1643l139 25v-1057q54 52 120.5 118.5t134.5 135t128.5 133.5t103.5 114h168q-50 -52 -112.5 -116.5t-130 -134t-134 -137t-120.5 -120.5q66 -45 142.5 -116t150.5 -153.5t140 -169.5t111 -165h-166q-52 86 -117.5 169t-137.5 156t-143.5 133.5t-137.5 100.5v-559 h-139z" />
<glyph unicode="l" horiz-adv-x="548" d="M183 267v1376l139 25v-1397q0 -52 10 -82.5t29 -49t50.5 -27.5t74.5 -15l-20 -116q-71 2 -123.5 18t-88 49.5t-53.5 86t-18 132.5z" />
<glyph unicode="m" horiz-adv-x="1855" d="M185 0v1073q62 17 162 38.5t260 21.5q211 0 304 -122q11 9 42.5 29t78.5 42t110.5 36.5t141.5 14.5q127 0 205.5 -37.5t121.5 -105t58 -162.5t15 -206v-622h-140v576q0 110 -9.5 190.5t-38.5 133t-83 79.5t-140 27q-64 0 -116.5 -11.5t-91.5 -29t-64 -34.5t-35 -26 q19 -56 28.5 -125.5t9.5 -147.5v-632h-140v576q0 110 -9.5 190.5t-39.5 133t-85 79.5t-145 27q-101 0 -171 -10.5t-90 -19.5v-976h-139z" />
<glyph unicode="n" horiz-adv-x="1223" d="M185 0v1073q62 17 167.5 38.5t258.5 21.5q127 0 211.5 -36.5t135.5 -104t72 -162.5t21 -208v-622h-140v576q0 119 -15.5 200.5t-53.5 133t-99.5 74t-153.5 22.5q-99 0 -171 -10.5t-94 -19.5v-976h-139z" />
<glyph unicode="o" horiz-adv-x="1250" d="M119 554q0 132 37 239.5t105 184t160 118t205 41.5q111 0 204 -41.5t160.5 -118t105 -184t37.5 -239.5q0 -131 -37.5 -238t-105 -182.5t-160.5 -117.5t-204 -42q-112 0 -204.5 42t-160.5 117.5t-105 182.5t-37 238zM267 554q0 -209 96.5 -331t262.5 -122t262.5 122 t96.5 331t-96.5 333t-262.5 124t-262.5 -124t-96.5 -333z" />
<glyph unicode="p" horiz-adv-x="1252" d="M185 -398v1471q62 21 159 40.5t245 19.5q123 0 222.5 -39.5t172 -115t112 -183t39.5 -243.5q0 -127 -33 -233t-97.5 -182.5t-158 -119.5t-214.5 -43q-109 0 -190 31.5t-118 58.5v-462h-139zM324 200q19 -15 48.5 -32.5t68.5 -32t84 -24.5t95 -10q102 0 172 35.5t113 97 t62.5 144t19.5 174.5q0 220 -109.5 337t-290.5 117q-103 0 -166.5 -9.5t-96.5 -20.5v-776z" />
<glyph unicode="q" horiz-adv-x="1252" d="M119 552q0 136 39 243.5t111.5 183t172.5 115t223 39.5q148 0 244.5 -19.5t159.5 -40.5v-1471h-140v462q-37 -28 -117.5 -59t-189.5 -31q-121 0 -214.5 43t-158 119.5t-97.5 183t-33 232.5zM267 552q0 -92 19.5 -174.5t62.5 -144t112.5 -97t172.5 -35.5q50 0 95 10 t84 24.5t67.5 32t48.5 32.5v776q-32 11 -95.5 20.5t-166.5 9.5q-181 0 -290.5 -117t-109.5 -337z" />
<glyph unicode="r" horiz-adv-x="803" d="M185 0v1060q53 25 148 49t231 24q69 0 130 -10.5t84 -21.5l-27 -120q-17 8 -70 18t-139 10q-90 0 -145 -13t-73 -22v-974h-139z" />
<glyph unicode="s" horiz-adv-x="919" d="M86 37l37 127q6 -4 27.5 -14t58 -21.5t87 -20.5t117.5 -9q120 0 198.5 39.5t78.5 134.5q0 45 -13.5 77.5t-46.5 58.5t-85.5 49.5t-129.5 54.5q-62 27 -118.5 53.5t-99.5 62.5t-68.5 85t-25.5 121q0 135 102.5 218.5t280.5 83.5q115 0 189 -19t103 -34l-31 -125 q-27 12 -88.5 34t-178.5 22q-47 0 -89 -10t-74.5 -30.5t-52 -51.5t-19.5 -76t17 -77.5t50.5 -57t82 -46t110.5 -46.5q64 -27 123.5 -53.5t104.5 -64.5t73.5 -90.5t28.5 -132.5q0 -150 -113 -227.5t-309 -77.5q-146 0 -224 25t-103 38z" />
<glyph unicode="t" horiz-adv-x="831" d="M176 415v1023l140 27v-353h443v-119h-443v-591q0 -94 16.5 -153.5t46 -91.5t73 -43t94.5 -11q88 0 142 20.5t84 38.5l34 -117q-30 -19 -105 -44t-163 -25q-103 0 -173 27t-112 82t-59.5 136.5t-17.5 193.5z" />
<glyph unicode="u" horiz-adv-x="1223" d="M172 488v624h140v-579q0 -118 17 -199.5t55.5 -132.5t100 -73.5t149.5 -22.5q99 0 172.5 11t92.5 19v977h139v-1073q-62 -17 -167.5 -38.5t-257.5 -21.5q-125 0 -209 36t-135.5 103t-74 161.5t-22.5 208.5z" />
<glyph unicode="v" horiz-adv-x="1032" d="M43 1112h148q26 -114 64 -244.5t81.5 -258t91.5 -247t93 -212.5q45 93 92 212.5t91.5 247t81.5 258t63 244.5h140q-39 -152 -86 -300.5t-99.5 -291t-110 -273t-110.5 -247.5h-134q-55 117 -111.5 247.5t-109 273t-99.5 290.5t-86 301z" />
<glyph unicode="w" horiz-adv-x="1666" d="M49 1112h148q25 -114 60.5 -246.5t76 -262t82.5 -246.5t79 -197q41 107 83 229t78 247t68.5 246.5t55.5 229.5h121q19 -107 50.5 -229t69 -248t79 -248t84.5 -229q37 81 78 198.5t82 247t76 262t59 246.5h138q-78 -327 -169 -598t-201 -514h-131q-32 76 -67.5 169 t-73 200t-73.5 224t-67 240q-33 -123 -68.5 -240t-73 -224t-73 -200t-68.5 -169h-133q-109 243 -200.5 514t-169.5 598z" />
<glyph unicode="x" horiz-adv-x="1072" d="M60 0q88 166 185 309t198 280l-361 523h163l288 -426l292 426h154l-355 -515q45 -59 96.5 -130t103.5 -147.5t100 -158t89 -161.5h-151q-26 47 -62.5 108.5t-80.5 128t-92 135.5t-94 131q-47 -62 -94 -131t-91.5 -135.5t-81 -128t-61.5 -108.5h-145z" />
<glyph unicode="y" horiz-adv-x="1018" d="M2 -372l28 116q9 -6 49 -18t83 -12q60 0 108 13t87 44.5t70 80t61 124.5q-71 131 -136.5 273.5t-122.5 287t-104 290t-82 285.5h148q24 -103 60.5 -222.5t82.5 -246t102 -260t120 -262.5q48 133 84.5 251t68 235t60.5 240t62 265h139q-69 -312 -157.5 -606.5 t-190.5 -540.5q-41 -96 -84 -166t-95.5 -115t-122.5 -66.5t-166 -21.5q-53 0 -97 13t-55 19z" />
<glyph unicode="z" horiz-adv-x="977" d="M82 0v101q56 105 138.5 232t171 251t172 232.5t142.5 176.5h-592v119h762v-114q-50 -56 -129.5 -155t-170 -220.5t-178.5 -254t-155 -249.5h652v-119h-813z" />
<glyph unicode="{" horiz-adv-x="685" d="M92 568v105q54 0 93 19.5t64.5 49.5t37.5 67.5t12 76.5v417q0 86 16 154t56 113t108.5 68.5t172.5 23.5h17v-107q-88 0 -135.5 -17.5t-70 -59.5t-26.5 -109.5t-4 -168.5v-230q0 -80 -10 -137t-29.5 -97.5t-47.5 -68t-62 -45.5q34 -19 62 -46.5t47.5 -68.5t29.5 -98.5 t10 -137.5v-230q0 -101 4 -168.5t26.5 -109.5t70 -59.5t135.5 -17.5v-107h-17q-103 0 -172 23.5t-109 68.5t-56 112t-16 155v417q0 39 -12 76t-37.5 67.5t-64.5 50t-93 19.5z" />
<glyph unicode="|" horiz-adv-x="562" d="M215 -398v2082h134v-2082h-134z" />
<glyph unicode="}" horiz-adv-x="685" d="M17 -314q88 0 135.5 17.5t70 59.5t27 109.5t4.5 168.5v230q0 80 9.5 137.5t29 98.5t47.5 68.5t62 46.5q-34 18 -62 45.5t-47.5 68t-29 97.5t-9.5 137v230q0 101 -4.5 168.5t-27 109.5t-70 59.5t-135.5 17.5v107h18q103 0 171.5 -23.5t108.5 -68.5t56 -113t16 -154v-417 q0 -39 12 -76.5t37.5 -67.5t64.5 -49.5t92 -19.5v-105q-53 0 -92 -19.5t-64.5 -50t-37.5 -67.5t-12 -76v-417q0 -88 -16 -155t-56 -112t-108.5 -68.5t-171.5 -23.5h-18v107z" />
<glyph unicode="~" horiz-adv-x="1212" d="M107 523q9 39 27 85t49.5 85.5t81 67t122.5 27.5q74 0 131.5 -30.5t110 -67t103 -67t107.5 -30.5q41 0 69 20.5t46 49.5t27.5 58.5t13.5 46.5l111 -26q-11 -38 -28.5 -84.5t-48.5 -86.5t-80.5 -66.5t-123.5 -26.5q-73 0 -131 30t-110.5 66.5t-103 66.5t-106.5 30 q-41 0 -69 -20.5t-46.5 -49.5t-27.5 -58.5t-14 -45.5z" />
<glyph unicode="&#xa1;" horiz-adv-x="589" d="M176 993q0 50 31 84.5t88 34.5q56 0 87 -34.5t31 -84.5q0 -49 -31 -83t-87 -34t-87.5 34t-31.5 83zM219 10q0 185 12 329.5t31 288.5h65q8 -72 16 -142.5t14 -145.5t9.5 -156t3.5 -174v-408h-151v408z" />
<glyph unicode="&#xa2;" horiz-adv-x="1212" d="M230 624q0 109 29 205t84 169t133 121.5t178 62.5v308h126v-304q66 0 128 -13.5t122 -37.5l-37 -118q-45 19 -106.5 34.5t-127.5 15.5q-187 0 -284 -111t-97 -332q0 -95 22.5 -174.5t71.5 -137.5t125 -90.5t183 -32.5q90 0 152.5 18.5t91.5 30.5l25 -115 q-13 -9 -41.5 -19t-65.5 -17t-79 -12.5t-83 -8.5v-300h-126v308q-103 14 -182.5 61.5t-132.5 119.5t-81 165t-28 204z" />
<glyph unicode="&#xa3;" horiz-adv-x="1212" d="M170 665v117h206v207q0 160 32.5 262.5t91.5 162t139.5 82t177.5 22.5q90 0 158 -18t117 -42l-38 -127q-105 56 -254 56q-66 0 -119 -17.5t-89 -61.5t-53.5 -117t-17.5 -182v-227h431v-117h-431v-20q0 -127 -8 -259t-29 -263h651v-123h-815q24 148 40 304t16 334v27h-206 z" />
<glyph unicode="&#xa4;" horiz-adv-x="1212" d="M121 335l158 164q-36 49 -55 112.5t-19 135.5q0 71 19 134t55 112l-158 164l86 88l163 -168q49 37 109.5 56.5t127.5 19.5q66 0 126.5 -19.5t109.5 -56.5l163 168l86 -88l-159 -164q37 -49 56.5 -112.5t19.5 -133.5q0 -72 -19.5 -135.5t-56.5 -112.5l159 -164l-86 -87 l-163 167q-49 -37 -109.5 -56t-126.5 -19t-127 19t-110 56l-163 -167zM329 747q0 -65 21.5 -119t59 -92.5t88 -60t109.5 -21.5q58 0 108 21.5t88 60t59.5 92.5t21.5 119q0 64 -21.5 117.5t-59.5 92t-88 60t-108 21.5t-109 -21.5t-88.5 -60t-59 -92t-21.5 -117.5z" />
<glyph unicode="&#xa5;" horiz-adv-x="1212" d="M66 1490h149q84 -179 185 -354t211 -338q109 164 209.5 338.5t183.5 353.5h143q-93 -187 -203.5 -373t-239.5 -386h324v-114h-351v-256h351v-113h-351v-248h-139v248h-351v113h351v256h-351v114h320q-129 199 -238 385.5t-203 373.5z" />
<glyph unicode="&#xa6;" horiz-adv-x="562" d="M215 -398v809h134v-809h-134zM215 876v808h134v-808h-134z" />
<glyph unicode="&#xa7;" horiz-adv-x="1036" d="M101 665q0 59 20.5 109.5t51 89.5t67.5 67t70 48q-64 47 -95.5 101.5t-31.5 134.5q0 142 95.5 224.5t283.5 82.5q129 0 204 -20t107 -33l-34 -115q-37 17 -104.5 38t-175.5 21q-105 0 -174 -42t-69 -132q0 -88 57 -138t191 -90q71 -24 137.5 -49.5t120.5 -65.5t86 -100.5 t32 -150.5q0 -54 -17.5 -101t-46.5 -88t-66.5 -72t-76.5 -53q71 -43 111 -107t40 -144q0 -155 -115 -234.5t-309 -79.5q-129 0 -209.5 20.5t-129.5 43.5l33 110q56 -24 125.5 -44.5t196.5 -20.5q55 0 104.5 11t87.5 33.5t59.5 56.5t21.5 84q0 45 -15.5 79.5t-48.5 62.5 t-86 51.5t-125 49.5q-76 27 -144 53.5t-118 66t-80.5 98t-30.5 144.5zM234 681q0 -61 25 -102t68 -71t101 -52.5t124 -44.5q21 -7 45.5 -15.5t38.5 -15.5q82 41 126 110t44 144q0 60 -27.5 103t-73 73.5t-102.5 52t-115 40.5q-24 8 -46.5 16t-33.5 12q-75 -39 -124.5 -99 t-49.5 -151z" />
<glyph unicode="&#xa8;" horiz-adv-x="808" d="M121 1447q0 47 27.5 75.5t70.5 28.5t71 -28.5t28 -75.5t-28 -75t-71 -28t-70.5 28t-27.5 75zM490 1447q0 47 28 75.5t71 28.5t71 -28.5t28 -75.5t-28 -75t-71 -28t-71 28t-28 75z" />
<glyph unicode="&#xa9;" horiz-adv-x="1775" d="M160 747q0 182 59.5 327t160 244.5t232.5 151.5t276 52t276.5 -52t232 -151.5t160 -244.5t60.5 -327q0 -185 -60.5 -329.5t-160 -244t-232 -153t-276.5 -53.5t-276 53.5t-232.5 153t-160 244t-59.5 329.5zM286 747q0 -149 45 -271.5t125 -210t190.5 -135.5t241.5 -48 q132 0 242.5 48t190 135.5t124.5 210t45 271.5q0 148 -45 270t-124.5 209.5t-190 134.5t-242.5 47q-131 0 -241.5 -47t-190.5 -134.5t-125 -209.5t-45 -270zM503 749q0 103 33.5 183.5t89 137.5t128.5 85.5t153 28.5q105 0 171 -28.5t90 -45.5l-41 -97q-33 17 -83.5 37.5 t-136.5 20.5q-118 0 -196.5 -84t-78.5 -238q0 -160 76.5 -245t207.5 -85q92 0 145 20.5t76 36.5l37 -104q-28 -17 -99 -41.5t-176 -24.5q-84 0 -156 29.5t-125.5 86t-84 139t-30.5 188.5z" />
<glyph unicode="&#xaa;" horiz-adv-x="829" d="M99 952q0 64 26.5 111t73 76t108 43t130.5 14q24 0 62.5 -5t81.5 -13v20q0 39 -4.5 76t-21.5 67.5t-53 49.5t-96 19q-55 0 -108 -5t-95 -20l-16 99q37 10 93.5 20t125.5 10q80 0 135.5 -20.5t90.5 -58t50 -90t15 -115.5v-486q-26 -6 -61.5 -11.5t-73 -10t-75.5 -6.5 t-66 -2q-144 0 -233 56.5t-89 181.5zM217 961q0 -70 42.5 -108t159.5 -38q47 0 92 3t70 7v259q-29 4 -65 8t-75 4q-45 0 -86 -6t-72 -21t-48.5 -42t-17.5 -66z" />
<glyph unicode="&#xab;" horiz-adv-x="971" d="M78 611l326 454l88 -56l-249 -398l249 -400l-88 -57zM458 611l326 454l88 -56l-249 -398l249 -400l-88 -57z" />
<glyph unicode="&#xac;" horiz-adv-x="1212" d="M121 697v120h971v-714h-124v594h-847z" />
<glyph unicode="&#xad;" horiz-adv-x="605" d="M60 554v136h486v-136h-486z" />
<glyph unicode="&#xae;" horiz-adv-x="1775" d="M160 747q0 182 59.5 327t160 244.5t232.5 151.5t276 52t276.5 -52t232 -151.5t160 -244.5t60.5 -327q0 -185 -60.5 -329.5t-160 -244t-232 -153t-276.5 -53.5t-276 53.5t-232.5 153t-160 244t-59.5 329.5zM286 747q0 -149 45 -271.5t125 -210t190.5 -135.5t241.5 -48 q132 0 242.5 48t190 135.5t124.5 210t45 271.5q0 148 -45 270t-124.5 209.5t-190 134.5t-242.5 47q-131 0 -241.5 -47t-190.5 -134.5t-125 -209.5t-45 -270zM593 320v833q50 10 111 16.5t115 6.5q183 0 279 -66.5t96 -202.5q0 -77 -43 -138t-127 -92q17 -19 46 -58.5t61 -89 t64 -105.5t57 -104h-132q-55 101 -115.5 192.5t-105.5 145.5q-15 -2 -28 -2h-24h-135v-336h-119zM712 753h107q54 0 99.5 6t78.5 24.5t51.5 48.5t18.5 77q0 45 -20.5 76.5t-54 51t-76.5 28t-91 8.5q-32 0 -61 -1t-52 -3v-316z" />
<glyph unicode="&#xaf;" horiz-adv-x="808" d="M121 1395v119h569v-119h-569z" />
<glyph unicode="&#xb0;" horiz-adv-x="683" d="M62 1381q0 66 22.5 119t61.5 88t89.5 54.5t106.5 19.5t106.5 -19.5t89 -54.5t61.5 -88t23 -119t-23 -119t-61.5 -89t-89 -55t-106.5 -19q-55 0 -106 19t-90 55t-61.5 88.5t-22.5 119.5zM166 1381q0 -86 50.5 -135.5t125.5 -49.5q76 0 126.5 49.5t50.5 135.5t-51 135.5 t-126 49.5t-125.5 -49.5t-50.5 -135.5z" />
<glyph unicode="&#xb1;" horiz-adv-x="1212" d="M121 0v121h971v-121h-971zM121 742v120h423v467h125v-467h423v-120h-423v-467h-125v467h-423z" />
<glyph unicode="&#xb2;" d="M92 1418q37 38 102.5 71t162.5 33q121 0 187.5 -57.5t66.5 -174.5q0 -45 -16 -83.5t-42 -72t-59.5 -63.5t-70.5 -58q-55 -45 -90.5 -79.5t-56 -60.5t-28.5 -47.5t-8 -40.5h412v-104h-533q-2 11 -2 22v21q0 65 21.5 115.5t54.5 92.5t74 77.5t79 72.5q31 26 56.5 48.5 t44.5 47t31 52.5t12 65q0 71 -43 98t-101 27q-36 0 -67 -10t-57.5 -24t-44 -28l-27.5 -22z" />
<glyph unicode="&#xb3;" d="M97 710l28 101q30 -15 76.5 -29t112.5 -14q123 0 166 42t43 104q0 45 -21.5 75.5t-56 49.5t-81 26.5t-93.5 7.5h-28v97h32q39 0 77 5t65.5 21.5t45 42t17.5 68.5q0 62 -40 88.5t-107 26.5q-69 0 -116 -20.5t-75 -40.5l-43 90q24 19 86.5 45t152.5 26q140 0 198.5 -57 t58.5 -147q0 -134 -131 -187q80 -24 129.5 -77.5t49.5 -144.5q0 -49 -18 -93t-57 -78t-100.5 -53.5t-147.5 -19.5q-82 0 -135.5 13.5t-87.5 31.5z" />
<glyph unicode="&#xb4;" horiz-adv-x="808" d="M240 1336l341 326l98 -109l-367 -299z" />
<glyph unicode="&#xb5;" horiz-adv-x="1235" d="M185 -398v1510h139v-579q0 -118 17.5 -199.5t56.5 -132.5t100 -73.5t149 -22.5q99 0 172 11t92 19v977h140v-1073q-62 -17 -167.5 -38.5t-257.5 -21.5q-123 0 -198 32t-118 88q8 -70 9 -139t1 -130v-228h-135z" />
<glyph unicode="&#xb6;" horiz-adv-x="1324" d="M99 1032q0 119 50.5 207t140.5 147t216 88.5t276 29.5q70 0 160 -6t166 -23v-1873h-125v1770q-31 5 -81 8t-91 3q-17 0 -36.5 -1t-30.5 -3v-1777h-124v966q-119 8 -215.5 40t-164.5 89.5t-104.5 140.5t-36.5 194z" />
<glyph unicode="&#xb7;" horiz-adv-x="528" d="M146 632q0 50 31.5 84.5t87.5 34.5q55 0 86.5 -34.5t31.5 -84.5q0 -49 -31.5 -83.5t-86.5 -34.5q-56 0 -87.5 34.5t-31.5 83.5z" />
<glyph unicode="&#xb8;" horiz-adv-x="808" d="M211 -376l17 92q24 -10 54 -14.5t73 -4.5q88 0 88 63q0 36 -30 55t-95 45q6 21 19.5 49.5t26 54.5t24.5 47.5t18 31.5h99q-15 -24 -33 -59t-29 -62q60 -26 95.5 -63t35.5 -99q0 -27 -9 -55.5t-32.5 -52.5t-64 -39t-105.5 -15q-43 0 -88 7.5t-64 18.5z" />
<glyph unicode="&#xb9;" d="M131 1334q76 24 151 65.5t129 104.5h79v-823h-116v655q-24 -17 -55 -32.5t-61 -28.5t-57 -21.5t-41 -10.5z" />
<glyph unicode="&#xba;" horiz-adv-x="938" d="M99 1114q0 90 27.5 164t77.5 127t118 82t146 29q80 0 149 -29t118.5 -82t77.5 -127t28 -164t-28 -164t-77.5 -127t-118.5 -82t-149 -29t-147 29t-117 82t-77.5 127t-27.5 164zM226 1114q0 -135 66.5 -216t175.5 -81q112 0 179 81t67 216q0 136 -66.5 216t-179.5 80 q-109 0 -175.5 -80t-66.5 -216z" />
<glyph unicode="&#xbb;" horiz-adv-x="971" d="M99 211l250 400l-250 398l88 56l326 -454l-326 -457zM479 211l250 400l-250 398l88 56l326 -454l-326 -457z" />
<glyph unicode="&#xbc;" horiz-adv-x="1878" d="M131 1334q76 24 151 65.5t129 104.5h79v-823h-116v655q-24 -17 -55 -32.5t-61 -28.5t-57 -21.5t-41 -10.5zM442 0l849 1490h143l-849 -1490h-143zM1179 209v71q21 43 65.5 114t101.5 150.5t122.5 154.5t127.5 126h101v-521h110v-95h-110v-207h-113v207h-405zM1301 304 h283v385q-37 -37 -78 -86t-79 -102t-71 -105.5t-55 -91.5z" />
<glyph unicode="&#xbd;" horiz-adv-x="1878" d="M131 1334q76 24 151 65.5t129 104.5h79v-823h-116v655q-24 -17 -55 -32.5t-61 -28.5t-57 -21.5t-41 -10.5zM397 0l849 1490h143l-849 -1490h-143zM1200 739q37 38 102.5 71t162.5 33q121 0 187.5 -57.5t66.5 -174.5q0 -45 -16 -83.5t-42 -72t-59.5 -63.5t-70.5 -58 q-55 -45 -90.5 -79.5t-56 -60.5t-28.5 -47.5t-8 -40.5h412v-104h-533q-2 11 -2 22v21q0 65 21.5 115.5t54.5 92.5t74 77.5t79 72.5q31 26 56.5 48.5t44.5 47t31 52.5t12 65q0 71 -43 98t-101 27q-36 0 -67 -10t-57.5 -24t-44 -28l-27.5 -22z" />
<glyph unicode="&#xbe;" horiz-adv-x="1878" d="M97 710l28 101q30 -15 76.5 -29t112.5 -14q123 0 166 42t43 104q0 45 -21.5 75.5t-56 49.5t-81 26.5t-93.5 7.5h-28v97h32q39 0 77 5t65.5 21.5t45 42t17.5 68.5q0 62 -40 88.5t-107 26.5q-69 0 -116 -20.5t-75 -40.5l-43 90q24 19 86.5 45t152.5 26q140 0 198.5 -57 t58.5 -147q0 -134 -131 -187q80 -24 129.5 -77.5t49.5 -144.5q0 -49 -18 -93t-57 -78t-100.5 -53.5t-147.5 -19.5q-82 0 -135.5 13.5t-87.5 31.5zM475 0l849 1490h143l-849 -1490h-143zM1179 209v71q21 43 65.5 114t101.5 150.5t122.5 154.5t127.5 126h101v-521h110v-95 h-110v-207h-113v207h-405zM1301 304h283v385q-37 -37 -78 -86t-79 -102t-71 -105.5t-55 -91.5z" />
<glyph unicode="&#xbf;" horiz-adv-x="816" d="M64 -97q0 74 27.5 134t68 111.5t89 101t89 101t68 111t27.5 131.5v18.5t-3 16.5h110q8 -37 8 -80q0 -69 -24.5 -126t-62.5 -106t-80.5 -96.5t-80.5 -94.5t-62.5 -98t-24.5 -111q0 -56 21.5 -92.5t57 -58t83.5 -31t103 -9.5q142 0 262 64l40 -116q-45 -26 -129.5 -49.5 t-188.5 -23.5q-117 0 -193 29t-122 73t-64.5 98t-18.5 103zM353 993q0 50 31 84.5t87 34.5t87 -34.5t31 -84.5q0 -49 -31 -83t-87 -34q-55 0 -86.5 34t-31.5 83z" />
<glyph unicode="&#xc0;" horiz-adv-x="1377" d="M21 0q86 232 161.5 433t147.5 380.5t143 345.5t151 331h129q80 -166 150.5 -331.5t142.5 -345t147 -380.5t164 -433h-161q-41 109 -77.5 210.5t-71.5 197.5h-725q-36 -96 -72.5 -197.5t-75.5 -210.5h-153zM368 533h634q-82 222 -159.5 413.5t-158.5 376.5 q-82 -185 -158.5 -376.5t-157.5 -413.5zM391 1888l99 109l340 -326l-71 -82z" />
<glyph unicode="&#xc1;" horiz-adv-x="1377" d="M21 0q86 232 161.5 433t147.5 380.5t143 345.5t151 331h129q80 -166 150.5 -331.5t142.5 -345t147 -380.5t164 -433h-161q-41 109 -77.5 210.5t-71.5 197.5h-725q-36 -96 -72.5 -197.5t-75.5 -210.5h-153zM368 533h634q-82 222 -159.5 413.5t-158.5 376.5 q-82 -185 -158.5 -376.5t-157.5 -413.5zM546 1671l341 326l98 -109l-367 -299z" />
<glyph unicode="&#xc2;" horiz-adv-x="1377" d="M21 0q86 232 161.5 433t147.5 380.5t143 345.5t151 331h129q80 -166 150.5 -331.5t142.5 -345t147 -380.5t164 -433h-161q-41 109 -77.5 210.5t-71.5 197.5h-725q-36 -96 -72.5 -197.5t-75.5 -210.5h-153zM368 533h634q-82 222 -159.5 413.5t-158.5 376.5 q-82 -185 -158.5 -376.5t-157.5 -413.5zM405 1658l283 316l284 -316l-60 -67l-224 207l-223 -207z" />
<glyph unicode="&#xc3;" horiz-adv-x="1377" d="M21 0q86 232 161.5 433t147.5 380.5t143 345.5t151 331h129q80 -166 150.5 -331.5t142.5 -345t147 -380.5t164 -433h-161q-41 109 -77.5 210.5t-71.5 197.5h-725q-36 -96 -72.5 -197.5t-75.5 -210.5h-153zM348 1714q11 26 29 56t43.5 55.5t58.5 43t76 17.5q47 0 86 -15.5 t76 -31.5q41 -21 66.5 -29t46.5 -8q45 0 71 30t48 66l82 -38q-11 -27 -29.5 -57t-43.5 -55.5t-58 -43t-76 -17.5q-48 0 -86.5 15.5t-75.5 32.5q-41 21 -66.5 28.5t-46.5 7.5q-46 0 -71.5 -29.5t-47.5 -66.5zM368 533h634q-82 222 -159.5 413.5t-158.5 376.5 q-82 -185 -158.5 -376.5t-157.5 -413.5z" />
<glyph unicode="&#xc4;" horiz-adv-x="1377" d="M21 0q86 232 161.5 433t147.5 380.5t143 345.5t151 331h129q80 -166 150.5 -331.5t142.5 -345t147 -380.5t164 -433h-161q-41 109 -77.5 210.5t-71.5 197.5h-725q-36 -96 -72.5 -197.5t-75.5 -210.5h-153zM368 533h634q-82 222 -159.5 413.5t-158.5 376.5 q-82 -185 -158.5 -376.5t-157.5 -413.5zM402 1782q0 47 27.5 75.5t70.5 28.5t71 -28.5t28 -75.5t-28 -75t-71 -28t-70.5 28t-27.5 75zM771 1782q0 47 28 75.5t71 28.5t71 -28.5t28 -75.5t-28 -75t-71 -28t-71 28t-28 75z" />
<glyph unicode="&#xc5;" horiz-adv-x="1377" d="M21 0q80 219 151 409.5t138.5 361.5t134 329t140.5 313q-47 27 -75 73.5t-28 109.5q0 92 61 148t145 56q41 0 78.5 -15t65.5 -42t44 -64.5t16 -82.5q0 -62 -28.5 -110t-73.5 -73q73 -154 139 -312.5t134 -329.5t140 -361.5t154 -409.5h-161q-41 109 -77.5 210.5 t-71.5 197.5h-725q-36 -96 -72.5 -197.5t-75.5 -210.5h-153zM368 533h634q-82 222 -159.5 413.5t-158.5 376.5q-82 -185 -158.5 -376.5t-157.5 -413.5zM566 1596q0 -62 35 -94.5t87 -32.5q51 0 87 32.5t36 94.5q0 60 -35.5 93t-87.5 33t-87 -33t-35 -93z" />
<glyph unicode="&#xc6;" horiz-adv-x="1966" d="M13 0q116 230 231 432t229 384t228 348.5t230 325.5h897v-127h-684v-518h606v-125h-606v-593h740v-127h-886v408h-618q-56 -102 -110.5 -203.5t-105.5 -204.5h-151zM452 533h546v837q-149 -199 -284 -407t-262 -430z" />
<glyph unicode="&#xc7;" horiz-adv-x="1309" d="M133 747q0 186 57.5 331t152 244.5t219 149.5t259.5 50q84 0 153 -10t121 -26.5t88 -33t56 -28.5l-47 -127q-54 32 -137 63t-206 31q-139 0 -243.5 -47t-175.5 -133t-106.5 -204.5t-35.5 -262.5q0 -148 35.5 -267.5t104.5 -203.5t169 -129t228 -45q142 0 238 26.5 t146 55.5l41 -125q-15 -11 -52 -25t-93 -29t-129 -25t-163 -10h-11q-6 -10 -11 -22t-9 -23q60 -26 96 -63t36 -99q0 -27 -8.5 -55.5t-32.5 -52.5t-64.5 -39t-104.5 -15q-44 0 -89 7.5t-65 18.5l18 92q24 -10 54 -14.5t73 -4.5q88 0 87 63q0 36 -30 55t-94 45q9 24 21.5 55 t28.5 61q-125 17 -230.5 75t-182 156.5t-119.5 232.5t-43 307z" />
<glyph unicode="&#xc8;" horiz-adv-x="1192" d="M193 0v1490h861v-127h-714v-518h636v-125h-636v-593h770v-127h-917zM326 1888l99 109l340 -326l-71 -82z" />
<glyph unicode="&#xc9;" horiz-adv-x="1192" d="M193 0v1490h861v-127h-714v-518h636v-125h-636v-593h770v-127h-917zM480 1671l341 326l98 -109l-367 -299z" />
<glyph unicode="&#xca;" horiz-adv-x="1192" d="M193 0v1490h861v-127h-714v-518h636v-125h-636v-593h770v-127h-917zM340 1658l283 316l284 -316l-60 -67l-224 207l-223 -207z" />
<glyph unicode="&#xcb;" horiz-adv-x="1192" d="M193 0v1490h861v-127h-714v-518h636v-125h-636v-593h770v-127h-917zM340 1782q0 47 27.5 75.5t70.5 28.5t71 -28.5t28 -75.5t-28 -75t-71 -28t-70.5 28t-27.5 75zM709 1782q0 47 28 75.5t71 28.5t71 -28.5t28 -75.5t-28 -75t-71 -28t-71 28t-28 75z" />
<glyph unicode="&#xcc;" horiz-adv-x="532" d="M-29 1888l99 109l340 -326l-71 -82zM193 0v1490h147v-1490h-147z" />
<glyph unicode="&#xcd;" horiz-adv-x="532" d="M126 1671l341 326l98 -109l-367 -299zM193 0v1490h147v-1490h-147z" />
<glyph unicode="&#xce;" horiz-adv-x="532" d="M-14 1658l283 316l284 -316l-60 -67l-224 207l-223 -207zM193 0v1490h147v-1490h-147z" />
<glyph unicode="&#xcf;" horiz-adv-x="532" d="M-14 1782q0 47 27.5 75.5t70.5 28.5t71 -28.5t28 -75.5t-28 -75t-71 -28t-70.5 28t-27.5 75zM193 0v1490h147v-1490h-147zM355 1782q0 47 28 75.5t71 28.5t71 -28.5t28 -75.5t-28 -75t-71 -28t-71 28t-28 75z" />
<glyph unicode="&#xd0;" horiz-adv-x="1539" d="M51 720v119h173v624q75 21 174 31t189 10q181 0 331.5 -48t259 -142.5t168.5 -236t60 -330.5q0 -192 -60 -334t-168.5 -236.5t-259 -142t-331.5 -47.5q-90 0 -189 9.5t-174 29.5v694h-173zM370 129q12 -2 65 -8.5t169 -6.5q161 0 281.5 44.5t202.5 125.5t123 198.5 t41 264.5q0 145 -41 261.5t-123 198t-202.5 126t-281.5 44.5q-117 0 -169 -7t-65 -9v-522h284v-119h-284v-591z" />
<glyph unicode="&#xd1;" horiz-adv-x="1524" d="M193 0v1490h117q109 -123 235 -283t246 -326.5t224.5 -325.5t170.5 -278v1213h145v-1490h-122q-41 76 -104.5 176.5t-139 215.5t-159.5 237t-167 237t-161 215.5t-140 174.5v-1256h-145zM421 1714q11 26 29 56t43.5 55.5t58.5 43t76 17.5q47 0 86 -15.5t76 -31.5 q41 -21 66.5 -29t46.5 -8q45 0 71 30t48 66l82 -38q-11 -27 -29.5 -57t-43.5 -55.5t-58 -43t-76 -17.5q-48 0 -86.5 15.5t-75.5 32.5q-41 21 -66.5 28.5t-46.5 7.5q-46 0 -71.5 -29.5t-47.5 -66.5z" />
<glyph unicode="&#xd2;" horiz-adv-x="1664" d="M133 747q0 191 56 335.5t152 243t222.5 147.5t269.5 49q141 0 267.5 -49t223 -147.5t152 -243t55.5 -335.5q0 -192 -55.5 -338.5t-152 -244.5t-223 -147.5t-267.5 -49.5q-142 0 -269 49.5t-223 147.5t-152 244t-56 339zM288 747q0 -151 38.5 -270.5t109.5 -203.5 t171.5 -129t225.5 -45t224.5 45t170.5 129t110 203.5t39 270.5q0 150 -39 269t-110 203t-171 128t-224 44q-125 0 -225.5 -44t-171.5 -128t-109.5 -203t-38.5 -269zM535 1888l99 109l340 -326l-71 -82z" />
<glyph unicode="&#xd3;" horiz-adv-x="1664" d="M133 747q0 191 56 335.5t152 243t222.5 147.5t269.5 49q141 0 267.5 -49t223 -147.5t152 -243t55.5 -335.5q0 -192 -55.5 -338.5t-152 -244.5t-223 -147.5t-267.5 -49.5q-142 0 -269 49.5t-223 147.5t-152 244t-56 339zM288 747q0 -151 38.5 -270.5t109.5 -203.5 t171.5 -129t225.5 -45t224.5 45t170.5 129t110 203.5t39 270.5q0 150 -39 269t-110 203t-171 128t-224 44q-125 0 -225.5 -44t-171.5 -128t-109.5 -203t-38.5 -269zM689 1671l341 326l98 -109l-367 -299z" />
<glyph unicode="&#xd4;" horiz-adv-x="1664" d="M133 747q0 191 56 335.5t152 243t222.5 147.5t269.5 49q141 0 267.5 -49t223 -147.5t152 -243t55.5 -335.5q0 -192 -55.5 -338.5t-152 -244.5t-223 -147.5t-267.5 -49.5q-142 0 -269 49.5t-223 147.5t-152 244t-56 339zM288 747q0 -151 38.5 -270.5t109.5 -203.5 t171.5 -129t225.5 -45t224.5 45t170.5 129t110 203.5t39 270.5q0 150 -39 269t-110 203t-171 128t-224 44q-125 0 -225.5 -44t-171.5 -128t-109.5 -203t-38.5 -269zM549 1658l283 316l284 -316l-60 -67l-224 207l-223 -207z" />
<glyph unicode="&#xd5;" horiz-adv-x="1664" d="M133 747q0 191 56 335.5t152 243t222.5 147.5t269.5 49q141 0 267.5 -49t223 -147.5t152 -243t55.5 -335.5q0 -192 -55.5 -338.5t-152 -244.5t-223 -147.5t-267.5 -49.5q-142 0 -269 49.5t-223 147.5t-152 244t-56 339zM288 747q0 -151 38.5 -270.5t109.5 -203.5 t171.5 -129t225.5 -45t224.5 45t170.5 129t110 203.5t39 270.5q0 150 -39 269t-110 203t-171 128t-224 44q-125 0 -225.5 -44t-171.5 -128t-109.5 -203t-38.5 -269zM492 1714q11 26 29 56t43.5 55.5t58.5 43t76 17.5q47 0 86 -15.5t76 -31.5q41 -21 66.5 -29t46.5 -8 q45 0 71 30t48 66l82 -38q-11 -27 -29.5 -57t-43.5 -55.5t-58 -43t-76 -17.5q-48 0 -86.5 15.5t-75.5 32.5q-41 21 -66.5 28.5t-46.5 7.5q-46 0 -71.5 -29.5t-47.5 -66.5z" />
<glyph unicode="&#xd6;" horiz-adv-x="1664" d="M133 747q0 191 56 335.5t152 243t222.5 147.5t269.5 49q141 0 267.5 -49t223 -147.5t152 -243t55.5 -335.5q0 -192 -55.5 -338.5t-152 -244.5t-223 -147.5t-267.5 -49.5q-142 0 -269 49.5t-223 147.5t-152 244t-56 339zM288 747q0 -151 38.5 -270.5t109.5 -203.5 t171.5 -129t225.5 -45t224.5 45t170.5 129t110 203.5t39 270.5q0 150 -39 269t-110 203t-171 128t-224 44q-125 0 -225.5 -44t-171.5 -128t-109.5 -203t-38.5 -269zM549 1782q0 47 27.5 75.5t70.5 28.5t71 -28.5t28 -75.5t-28 -75t-71 -28t-70.5 28t-27.5 75zM918 1782 q0 47 28 75.5t71 28.5t71 -28.5t28 -75.5t-28 -75t-71 -28t-71 28t-28 75z" />
<glyph unicode="&#xd7;" horiz-adv-x="1212" d="M193 303l332 329l-332 329l84 84l330 -331l329 331l84 -84l-332 -329l332 -329l-84 -84l-329 331l-330 -331z" />
<glyph unicode="&#xd8;" horiz-adv-x="1664" d="M133 747q0 191 56 335.5t152 243t222.5 147.5t269.5 49q116 0 222 -33.5t197 -101.5l137 179l103 -78l-146 -189q86 -97 135.5 -234.5t49.5 -317.5q0 -192 -55.5 -338.5t-152 -244.5t-223 -147.5t-267.5 -49.5q-117 0 -221.5 33t-194.5 99l-131 -173l-103 78l139 181 q-90 96 -139.5 237.5t-49.5 324.5zM288 747q0 -138 32.5 -251t92.5 -195l755 977q-140 114 -335 113q-125 0 -225.5 -44t-171.5 -128t-109.5 -203t-38.5 -269zM501 207q133 -107 332 -108q125 0 224.5 45t170.5 129t110 203.5t39 270.5q0 135 -31.5 244.5t-89.5 190.5z" />
<glyph unicode="&#xd9;" horiz-adv-x="1461" d="M187 552v938h146v-918q0 -123 29.5 -212t81 -147.5t124 -86t163.5 -27.5q90 0 163.5 27.5t125 86t80.5 147.5t29 212v918h146v-938q0 -123 -29 -229t-93.5 -185.5t-169 -125t-252.5 -45.5t-252.5 45.5t-169 125t-93.5 186t-29 228.5zM435 1888l99 109l340 -326l-71 -82z " />
<glyph unicode="&#xda;" horiz-adv-x="1461" d="M187 552v938h146v-918q0 -123 29.5 -212t81 -147.5t124 -86t163.5 -27.5q90 0 163.5 27.5t125 86t80.5 147.5t29 212v918h146v-938q0 -123 -29 -229t-93.5 -185.5t-169 -125t-252.5 -45.5t-252.5 45.5t-169 125t-93.5 186t-29 228.5zM589 1671l341 326l98 -109l-367 -299 z" />
<glyph unicode="&#xdb;" horiz-adv-x="1461" d="M187 552v938h146v-918q0 -123 29.5 -212t81 -147.5t124 -86t163.5 -27.5q90 0 163.5 27.5t125 86t80.5 147.5t29 212v918h146v-938q0 -123 -29 -229t-93.5 -185.5t-169 -125t-252.5 -45.5t-252.5 45.5t-169 125t-93.5 186t-29 228.5zM448 1658l283 316l284 -316l-60 -67 l-224 207l-223 -207z" />
<glyph unicode="&#xdc;" horiz-adv-x="1461" d="M187 552v938h146v-918q0 -123 29.5 -212t81 -147.5t124 -86t163.5 -27.5q90 0 163.5 27.5t125 86t80.5 147.5t29 212v918h146v-938q0 -123 -29 -229t-93.5 -185.5t-169 -125t-252.5 -45.5t-252.5 45.5t-169 125t-93.5 186t-29 228.5zM448 1782q0 47 27.5 75.5t70.5 28.5 t71 -28.5t28 -75.5t-28 -75t-71 -28t-70.5 28t-27.5 75zM817 1782q0 47 28 75.5t71 28.5t71 -28.5t28 -75.5t-28 -75t-71 -28t-71 28t-28 75z" />
<glyph unicode="&#xdd;" horiz-adv-x="1223" d="M21 1490h170q90 -189 199 -384t227 -371q115 176 224 371t202 384h159q-114 -205 -240.5 -425t-275.5 -448v-617h-146v613q-153 234 -281 452.5t-238 424.5zM470 1671l341 326l98 -109l-367 -299z" />
<glyph unicode="&#xde;" horiz-adv-x="1274" d="M193 0v1490h147v-265q37 5 104 9.5t122 4.5q318 0 474 -122t156 -341q0 -127 -45 -216t-129 -144t-205.5 -79.5t-274.5 -24.5h-202v-312h-147zM340 439h185q119 0 214.5 13.5t163 51.5t104 104.5t36.5 169.5q0 99 -39.5 163.5t-105 102.5t-150.5 53t-176 15 q-77 0 -136.5 -4t-95.5 -9v-660z" />
<glyph unicode="&#xdf;" horiz-adv-x="1281" d="M185 0v1213q0 103 30 188t87 144t137 91t178 32q211 0 308 -93t97 -244q0 -55 -18.5 -102t-45.5 -83t-57.5 -66.5l-51.5 -51.5q-30 -30 -50.5 -53t-33 -42t-18 -38t-5.5 -43q0 -31 14 -54.5t36.5 -40.5t50 -31t56.5 -27q64 -30 121 -62.5t99 -75t66 -103t24 -146.5 q0 -162 -110 -250t-305 -88q-105 0 -180.5 22.5t-96.5 33.5l29 130q17 -11 83 -37t190 -26q117 0 181.5 58t64.5 157q0 47 -12 82.5t-40 65.5t-71 57t-103 59q-71 37 -117.5 65t-73 57t-37.5 61.5t-11 79.5q0 73 42 129t98 114q33 34 59 61t44.5 54.5t28.5 58t10 69.5 q0 97 -66.5 158t-181.5 61q-166 0 -238 -92.5t-72 -247.5v-1204h-139z" />
<glyph unicode="&#xe0;" horiz-adv-x="1094" d="M103 324q0 91 34.5 155.5t97 106.5t148 61.5t187.5 19.5q31 0 64 -3.5t64 -9t53.5 -11t30.5 -9.5v70q0 57 -8.5 111.5t-37 99t-81.5 71.5t-138 27q-123 0 -183.5 -17t-88.5 -28l-19 122q36 17 113 32t184 15q109 0 185.5 -31t124 -85.5t69 -130t21.5 -163.5v-701 q-21 -6 -62.5 -14t-95 -16.5t-119 -14t-135.5 -5.5q-88 0 -162 19.5t-128.5 61.5t-86 107.5t-31.5 159.5zM248 324q0 -62 20 -105t57.5 -68.5t90.5 -37.5t120 -12q81 0 142.5 5t103.5 15v390q-24 11 -75 23t-141 12q-52 0 -108 -7.5t-103 -32t-77 -67.5t-30 -115zM262 1553 l99 109l340 -326l-71 -82z" />
<glyph unicode="&#xe1;" horiz-adv-x="1094" d="M103 324q0 91 34.5 155.5t97 106.5t148 61.5t187.5 19.5q31 0 64 -3.5t64 -9t53.5 -11t30.5 -9.5v70q0 57 -8.5 111.5t-37 99t-81.5 71.5t-138 27q-123 0 -183.5 -17t-88.5 -28l-19 122q36 17 113 32t184 15q109 0 185.5 -31t124 -85.5t69 -130t21.5 -163.5v-701 q-21 -6 -62.5 -14t-95 -16.5t-119 -14t-135.5 -5.5q-88 0 -162 19.5t-128.5 61.5t-86 107.5t-31.5 159.5zM248 324q0 -62 20 -105t57.5 -68.5t90.5 -37.5t120 -12q81 0 142.5 5t103.5 15v390q-24 11 -75 23t-141 12q-52 0 -108 -7.5t-103 -32t-77 -67.5t-30 -115zM416 1336 l341 326l98 -109l-367 -299z" />
<glyph unicode="&#xe2;" horiz-adv-x="1094" d="M103 324q0 91 34.5 155.5t97 106.5t148 61.5t187.5 19.5q31 0 64 -3.5t64 -9t53.5 -11t30.5 -9.5v70q0 57 -8.5 111.5t-37 99t-81.5 71.5t-138 27q-123 0 -183.5 -17t-88.5 -28l-19 122q36 17 113 32t184 15q109 0 185.5 -31t124 -85.5t69 -130t21.5 -163.5v-701 q-21 -6 -62.5 -14t-95 -16.5t-119 -14t-135.5 -5.5q-88 0 -162 19.5t-128.5 61.5t-86 107.5t-31.5 159.5zM248 324q0 -62 20 -105t57.5 -68.5t90.5 -37.5t120 -12q81 0 142.5 5t103.5 15v390q-24 11 -75 23t-141 12q-52 0 -108 -7.5t-103 -32t-77 -67.5t-30 -115zM275 1323 l283 316l284 -316l-60 -67l-224 207l-223 -207z" />
<glyph unicode="&#xe3;" horiz-adv-x="1094" d="M103 324q0 91 34.5 155.5t97 106.5t148 61.5t187.5 19.5q31 0 64 -3.5t64 -9t53.5 -11t30.5 -9.5v70q0 57 -8.5 111.5t-37 99t-81.5 71.5t-138 27q-123 0 -183.5 -17t-88.5 -28l-19 122q36 17 113 32t184 15q109 0 185.5 -31t124 -85.5t69 -130t21.5 -163.5v-701 q-21 -6 -62.5 -14t-95 -16.5t-119 -14t-135.5 -5.5q-88 0 -162 19.5t-128.5 61.5t-86 107.5t-31.5 159.5zM218 1379q11 26 29 56t43.5 55.5t58.5 43t76 17.5q47 0 86 -15.5t76 -31.5q41 -21 66.5 -29t46.5 -8q45 0 71 30t48 66l82 -38q-11 -27 -29.5 -57t-43.5 -55.5 t-58 -43t-76 -17.5q-48 0 -86.5 15.5t-75.5 32.5q-41 21 -66.5 28.5t-46.5 7.5q-46 0 -71.5 -29.5t-47.5 -66.5zM248 324q0 -62 20 -105t57.5 -68.5t90.5 -37.5t120 -12q81 0 142.5 5t103.5 15v390q-24 11 -75 23t-141 12q-52 0 -108 -7.5t-103 -32t-77 -67.5t-30 -115z" />
<glyph unicode="&#xe4;" horiz-adv-x="1094" d="M103 324q0 91 34.5 155.5t97 106.5t148 61.5t187.5 19.5q31 0 64 -3.5t64 -9t53.5 -11t30.5 -9.5v70q0 57 -8.5 111.5t-37 99t-81.5 71.5t-138 27q-123 0 -183.5 -17t-88.5 -28l-19 122q36 17 113 32t184 15q109 0 185.5 -31t124 -85.5t69 -130t21.5 -163.5v-701 q-21 -6 -62.5 -14t-95 -16.5t-119 -14t-135.5 -5.5q-88 0 -162 19.5t-128.5 61.5t-86 107.5t-31.5 159.5zM248 324q0 -62 20 -105t57.5 -68.5t90.5 -37.5t120 -12q81 0 142.5 5t103.5 15v390q-24 11 -75 23t-141 12q-52 0 -108 -7.5t-103 -32t-77 -67.5t-30 -115zM275 1447 q0 47 27.5 75.5t70.5 28.5t71 -28.5t28 -75.5t-28 -75t-71 -28t-70.5 28t-27.5 75zM644 1447q0 47 28 75.5t71 28.5t71 -28.5t28 -75.5t-28 -75t-71 -28t-71 28t-28 75z" />
<glyph unicode="&#xe5;" horiz-adv-x="1094" d="M103 324q0 91 34.5 155.5t97 106.5t148 61.5t187.5 19.5q31 0 64 -3.5t64 -9t53.5 -11t30.5 -9.5v70q0 57 -8.5 111.5t-37 99t-81.5 71.5t-138 27q-123 0 -183.5 -17t-88.5 -28l-19 122q36 17 113 32t184 15q109 0 185.5 -31t124 -85.5t69 -130t21.5 -163.5v-701 q-21 -6 -62.5 -14t-95 -16.5t-119 -14t-135.5 -5.5q-88 0 -162 19.5t-128.5 61.5t-86 107.5t-31.5 159.5zM248 324q0 -62 20 -105t57.5 -68.5t90.5 -37.5t120 -12q81 0 142.5 5t103.5 15v390q-24 11 -75 23t-141 12q-52 0 -108 -7.5t-103 -32t-77 -67.5t-30 -115zM355 1453 q0 93 61.5 149t145.5 56q41 0 79 -15t65.5 -42t44 -65t16.5 -83q0 -47 -16.5 -84.5t-44 -64t-65.5 -42t-79 -15.5q-84 0 -145.5 56t-61.5 150zM439 1453q0 -62 36 -94t87 -32q52 0 87.5 32t35.5 94q0 60 -35.5 93.5t-87.5 33.5q-51 0 -87 -33t-36 -94z" />
<glyph unicode="&#xe6;" horiz-adv-x="1835" d="M103 324q0 91 34.5 155.5t97 106.5t148 61.5t187.5 19.5q31 0 64 -3.5t64 -9t53.5 -11t30.5 -9.5v70q0 57 -8.5 111.5t-37 99t-81.5 71.5t-138 27q-117 0 -181.5 -16t-92.5 -27l-17 120q36 17 113.5 32t183.5 15q152 0 239 -56.5t124 -153.5q72 105 170.5 157.5 t205.5 52.5q205 0 326 -133.5t121 -410.5q0 -17 -1 -34t-3 -32h-780q6 -205 100.5 -314.5t301.5 -109.5q115 0 181 21.5t96 37.5l26 -121q-31 -17 -113.5 -41t-193.5 -24q-123 0 -217.5 30.5t-165.5 98.5q-24 -19 -59.5 -41.5t-84.5 -42t-111.5 -32.5t-142.5 -13 q-95 0 -175.5 19.5t-138.5 61.5t-91.5 107.5t-33.5 159.5zM248 324q0 -62 21 -105t61 -68.5t94 -37.5t118 -12q133 0 211 35.5t107 63.5q-35 55 -53.5 131.5t-21.5 179.5q-24 11 -76.5 23t-142.5 12q-52 0 -108 -7.5t-103 -32t-77 -67.5t-30 -115zM929 645h637 q-5 174 -82.5 271t-219.5 97q-75 0 -134 -30.5t-103 -80.5t-69 -117t-29 -140z" />
<glyph unicode="&#xe7;" horiz-adv-x="989" d="M119 552q0 132 35 239.5t101.5 185t161 119t213.5 41.5q90 0 169 -14.5t122 -38.5l-37 -120q-43 21 -97 34t-144 13q-185 0 -280.5 -119.5t-95.5 -339.5q0 -98 21.5 -181t69.5 -142t124.5 -92.5t186.5 -33.5q90 0 151.5 20.5t88.5 36.5l31 -121q-37 -21 -116.5 -40.5 t-167.5 -22.5q-6 -15 -13 -29t-11 -25q60 -26 95.5 -63t35.5 -99q0 -27 -8 -55.5t-32 -52.5t-65 -39t-106 -15q-43 0 -88 7.5t-64 18.5l17 92q24 -10 54 -14.5t73 -4.5q88 0 88 63q0 36 -30 55t-95 45q9 27 23 60t32 63q-218 26 -330.5 178.5t-112.5 390.5z" />
<glyph unicode="&#xe8;" horiz-adv-x="1178" d="M119 556q0 146 42 255.5t109.5 182.5t154 108t179.5 35q204 0 325.5 -133.5t121.5 -410.5q0 -17 -1 -34t-3 -32h-780q6 -205 100.5 -314.5t301.5 -109.5q114 0 180.5 21.5t96.5 37.5l26 -121q-30 -17 -113 -41t-194 -24q-146 0 -249.5 43t-170.5 120.5t-96.5 183.5 t-29.5 233zM271 645h636q-4 174 -81 271t-219 97q-76 0 -135 -30.5t-103.5 -80.5t-69 -117t-28.5 -140zM305 1553l99 109l340 -326l-71 -82z" />
<glyph unicode="&#xe9;" horiz-adv-x="1178" d="M119 556q0 146 42 255.5t109.5 182.5t154 108t179.5 35q204 0 325.5 -133.5t121.5 -410.5q0 -17 -1 -34t-3 -32h-780q6 -205 100.5 -314.5t301.5 -109.5q114 0 180.5 21.5t96.5 37.5l26 -121q-30 -17 -113 -41t-194 -24q-146 0 -249.5 43t-170.5 120.5t-96.5 183.5 t-29.5 233zM271 645h636q-4 174 -81 271t-219 97q-76 0 -135 -30.5t-103.5 -80.5t-69 -117t-28.5 -140zM459 1336l341 326l98 -109l-367 -299z" />
<glyph unicode="&#xea;" horiz-adv-x="1178" d="M119 556q0 146 42 255.5t109.5 182.5t154 108t179.5 35q204 0 325.5 -133.5t121.5 -410.5q0 -17 -1 -34t-3 -32h-780q6 -205 100.5 -314.5t301.5 -109.5q114 0 180.5 21.5t96.5 37.5l26 -121q-30 -17 -113 -41t-194 -24q-146 0 -249.5 43t-170.5 120.5t-96.5 183.5 t-29.5 233zM271 645h636q-4 174 -81 271t-219 97q-76 0 -135 -30.5t-103.5 -80.5t-69 -117t-28.5 -140zM318 1323l283 316l284 -316l-60 -67l-224 207l-223 -207z" />
<glyph unicode="&#xeb;" horiz-adv-x="1178" d="M119 556q0 146 42 255.5t109.5 182.5t154 108t179.5 35q204 0 325.5 -133.5t121.5 -410.5q0 -17 -1 -34t-3 -32h-780q6 -205 100.5 -314.5t301.5 -109.5q114 0 180.5 21.5t96.5 37.5l26 -121q-30 -17 -113 -41t-194 -24q-146 0 -249.5 43t-170.5 120.5t-96.5 183.5 t-29.5 233zM271 645h636q-4 174 -81 271t-219 97q-76 0 -135 -30.5t-103.5 -80.5t-69 -117t-28.5 -140zM318 1447q0 47 27.5 75.5t70.5 28.5t71 -28.5t28 -75.5t-28 -75t-71 -28t-70.5 28t-27.5 75zM687 1447q0 47 28 75.5t71 28.5t71 -28.5t28 -75.5t-28 -75t-71 -28 t-71 28t-28 75z" />
<glyph unicode="&#xec;" horiz-adv-x="509" d="M-41 1553l99 109l340 -326l-71 -82zM185 0v1112h139v-1112h-139z" />
<glyph unicode="&#xed;" horiz-adv-x="509" d="M113 1336l341 326l98 -109l-367 -299zM185 0v1112h139v-1112h-139z" />
<glyph unicode="&#xee;" horiz-adv-x="509" d="M-27 1323l283 316l284 -316l-60 -67l-224 207l-223 -207zM185 0v1112h139v-1112h-139z" />
<glyph unicode="&#xef;" horiz-adv-x="509" d="M-27 1447q0 47 27.5 75.5t70.5 28.5t71 -28.5t28 -75.5t-28 -75t-71 -28t-70.5 28t-27.5 75zM185 0v1112h139v-1112h-139zM342 1447q0 47 28 75.5t71 28.5t71 -28.5t28 -75.5t-28 -75t-71 -28t-71 28t-28 75z" />
<glyph unicode="&#xf0;" horiz-adv-x="1242" d="M119 527q0 125 36 221.5t101.5 163.5t157 101t201.5 34q64 0 117 -11.5t94.5 -29t73 -37t48.5 -33.5q-10 90 -47 188.5t-99 193.5l-281 -99l-37 97l253 88q-88 105 -210 180l93 84q143 -88 246 -217l259 90l36 -96l-230 -82q89 -136 136 -299t47 -354 q0 -129 -20.5 -260.5t-77.5 -237t-158 -172t-263 -66.5q-111 0 -199 44t-149.5 119.5t-94.5 175.5t-33 214zM265 527q0 -86 21.5 -163.5t63.5 -135.5t102.5 -92.5t142.5 -34.5q117 0 189 53t113 138.5t56 195t15 224.5v37.5t-2 38.5q-76 75 -160 105t-174 30 q-96 0 -166 -31.5t-114 -84t-65.5 -124.5t-21.5 -156z" />
<glyph unicode="&#xf1;" horiz-adv-x="1223" d="M185 0v1073q62 17 167.5 38.5t258.5 21.5q127 0 211.5 -36.5t135.5 -104t72 -162.5t21 -208v-622h-140v576q0 119 -15.5 200.5t-53.5 133t-99.5 74t-153.5 22.5q-99 0 -171 -10.5t-94 -19.5v-976h-139zM277 1379q11 26 29 56t43.5 55.5t58.5 43t76 17.5q47 0 86 -15.5 t76 -31.5q41 -21 66.5 -29t46.5 -8q45 0 71 30t48 66l82 -38q-11 -27 -29.5 -57t-43.5 -55.5t-58 -43t-76 -17.5q-48 0 -86.5 15.5t-75.5 32.5q-41 21 -66.5 28.5t-46.5 7.5q-46 0 -71.5 -29.5t-47.5 -66.5z" />
<glyph unicode="&#xf2;" horiz-adv-x="1250" d="M119 554q0 132 37 239.5t105 184t160 118t205 41.5q111 0 204 -41.5t160.5 -118t105 -184t37.5 -239.5q0 -131 -37.5 -238t-105 -182.5t-160.5 -117.5t-204 -42q-112 0 -204.5 42t-160.5 117.5t-105 182.5t-37 238zM267 554q0 -209 96.5 -331t262.5 -122t262.5 122 t96.5 331t-96.5 333t-262.5 124t-262.5 -124t-96.5 -333zM329 1553l99 109l340 -326l-71 -82z" />
<glyph unicode="&#xf3;" horiz-adv-x="1250" d="M119 554q0 132 37 239.5t105 184t160 118t205 41.5q111 0 204 -41.5t160.5 -118t105 -184t37.5 -239.5q0 -131 -37.5 -238t-105 -182.5t-160.5 -117.5t-204 -42q-112 0 -204.5 42t-160.5 117.5t-105 182.5t-37 238zM267 554q0 -209 96.5 -331t262.5 -122t262.5 122 t96.5 331t-96.5 333t-262.5 124t-262.5 -124t-96.5 -333zM483 1336l341 326l98 -109l-367 -299z" />
<glyph unicode="&#xf4;" horiz-adv-x="1250" d="M119 554q0 132 37 239.5t105 184t160 118t205 41.5q111 0 204 -41.5t160.5 -118t105 -184t37.5 -239.5q0 -131 -37.5 -238t-105 -182.5t-160.5 -117.5t-204 -42q-112 0 -204.5 42t-160.5 117.5t-105 182.5t-37 238zM267 554q0 -209 96.5 -331t262.5 -122t262.5 122 t96.5 331t-96.5 333t-262.5 124t-262.5 -124t-96.5 -333zM343 1323l283 316l284 -316l-60 -67l-224 207l-223 -207z" />
<glyph unicode="&#xf5;" horiz-adv-x="1250" d="M119 554q0 132 37 239.5t105 184t160 118t205 41.5q111 0 204 -41.5t160.5 -118t105 -184t37.5 -239.5q0 -131 -37.5 -238t-105 -182.5t-160.5 -117.5t-204 -42q-112 0 -204.5 42t-160.5 117.5t-105 182.5t-37 238zM267 554q0 -209 96.5 -331t262.5 -122t262.5 122 t96.5 331t-96.5 333t-262.5 124t-262.5 -124t-96.5 -333zM286 1379q11 26 29 56t43.5 55.5t58.5 43t76 17.5q47 0 86 -15.5t76 -31.5q41 -21 66.5 -29t46.5 -8q45 0 71 30t48 66l82 -38q-11 -27 -29.5 -57t-43.5 -55.5t-58 -43t-76 -17.5q-48 0 -86.5 15.5t-75.5 32.5 q-41 21 -66.5 28.5t-46.5 7.5q-46 0 -71.5 -29.5t-47.5 -66.5z" />
<glyph unicode="&#xf6;" horiz-adv-x="1250" d="M119 554q0 132 37 239.5t105 184t160 118t205 41.5q111 0 204 -41.5t160.5 -118t105 -184t37.5 -239.5q0 -131 -37.5 -238t-105 -182.5t-160.5 -117.5t-204 -42q-112 0 -204.5 42t-160.5 117.5t-105 182.5t-37 238zM267 554q0 -209 96.5 -331t262.5 -122t262.5 122 t96.5 331t-96.5 333t-262.5 124t-262.5 -124t-96.5 -333zM343 1447q0 47 27.5 75.5t70.5 28.5t71 -28.5t28 -75.5t-28 -75t-71 -28t-70.5 28t-27.5 75zM712 1447q0 47 28 75.5t71 28.5t71 -28.5t28 -75.5t-28 -75t-71 -28t-71 28t-28 75z" />
<glyph unicode="&#xf7;" horiz-adv-x="1212" d="M121 562v119h971v-119h-971zM503 215q0 47 29.5 77t71.5 30q45 0 74.5 -30t29.5 -77q0 -45 -29.5 -75.5t-74.5 -30.5q-43 0 -72 30.5t-29 75.5zM503 1026q0 45 29.5 75t71.5 30q45 0 74.5 -30t29.5 -75q0 -47 -29.5 -77.5t-74.5 -30.5q-43 0 -72 30.5t-29 77.5z" />
<glyph unicode="&#xf8;" horiz-adv-x="1250" d="M119 554q0 132 37 239.5t105 184t160 118t205 41.5q174 0 303 -103l109 144l91 -66l-120 -158q60 -75 92 -176t32 -224q0 -131 -37.5 -238t-105 -182.5t-160.5 -117.5t-204 -42q-172 0 -299 97l-110 -145l-92 70l120 154q-62 76 -94 178t-32 226zM267 554q0 -172 66 -287 l514 662q-43 39 -99 60.5t-122 21.5q-166 0 -262.5 -124t-96.5 -333zM408 176q89 -75 218 -75q166 0 262.5 122t96.5 331q0 168 -67 285z" />
<glyph unicode="&#xf9;" horiz-adv-x="1223" d="M172 488v624h140v-579q0 -118 17 -199.5t55.5 -132.5t100 -73.5t149.5 -22.5q99 0 172.5 11t92.5 19v977h139v-1073q-62 -17 -167.5 -38.5t-257.5 -21.5q-125 0 -209 36t-135.5 103t-74 161.5t-22.5 208.5zM307 1553l99 109l340 -326l-71 -82z" />
<glyph unicode="&#xfa;" horiz-adv-x="1223" d="M172 488v624h140v-579q0 -118 17 -199.5t55.5 -132.5t100 -73.5t149.5 -22.5q99 0 172.5 11t92.5 19v977h139v-1073q-62 -17 -167.5 -38.5t-257.5 -21.5q-125 0 -209 36t-135.5 103t-74 161.5t-22.5 208.5zM462 1336l341 326l98 -109l-367 -299z" />
<glyph unicode="&#xfb;" horiz-adv-x="1223" d="M172 488v624h140v-579q0 -118 17 -199.5t55.5 -132.5t100 -73.5t149.5 -22.5q99 0 172.5 11t92.5 19v977h139v-1073q-62 -17 -167.5 -38.5t-257.5 -21.5q-125 0 -209 36t-135.5 103t-74 161.5t-22.5 208.5zM321 1323l283 316l284 -316l-60 -67l-224 207l-223 -207z" />
<glyph unicode="&#xfc;" horiz-adv-x="1223" d="M172 488v624h140v-579q0 -118 17 -199.5t55.5 -132.5t100 -73.5t149.5 -22.5q99 0 172.5 11t92.5 19v977h139v-1073q-62 -17 -167.5 -38.5t-257.5 -21.5q-125 0 -209 36t-135.5 103t-74 161.5t-22.5 208.5zM321 1447q0 47 27.5 75.5t70.5 28.5t71 -28.5t28 -75.5t-28 -75 t-71 -28t-70.5 28t-27.5 75zM690 1447q0 47 28 75.5t71 28.5t71 -28.5t28 -75.5t-28 -75t-71 -28t-71 28t-28 75z" />
<glyph unicode="&#xfd;" horiz-adv-x="1018" d="M2 -372l28 116q9 -6 49 -18t83 -12q60 0 108 13t87 44.5t70 80t61 124.5q-71 131 -136.5 273.5t-122.5 287t-104 290t-82 285.5h148q24 -103 60.5 -222.5t82.5 -246t102 -260t120 -262.5q48 133 84.5 251t68 235t60.5 240t62 265h139q-69 -312 -157.5 -606.5 t-190.5 -540.5q-41 -96 -84 -166t-95.5 -115t-122.5 -66.5t-166 -21.5q-53 0 -97 13t-55 19zM390 1336l341 326l98 -109l-367 -299z" />
<glyph unicode="&#xfe;" horiz-adv-x="1252" d="M185 -398v2041l139 25v-589q138 54 273 54q121 0 220 -41t170 -116t109.5 -182.5t38.5 -241.5q0 -127 -33 -233t-97.5 -182.5t-158 -119.5t-214.5 -43q-109 0 -190 31.5t-118 58.5v-462h-139zM324 200q19 -15 48.5 -32.5t68.5 -32t84 -24.5t95 -10q102 0 172 35.5t113 97 t62.5 144t19.5 174.5q0 218 -111 336t-291 118q-90 0 -163 -19t-98 -30v-757z" />
<glyph unicode="&#xff;" horiz-adv-x="1018" d="M2 -372l28 116q9 -6 49 -18t83 -12q60 0 108 13t87 44.5t70 80t61 124.5q-71 131 -136.5 273.5t-122.5 287t-104 290t-82 285.5h148q24 -103 60.5 -222.5t82.5 -246t102 -260t120 -262.5q48 133 84.5 251t68 235t60.5 240t62 265h139q-69 -312 -157.5 -606.5 t-190.5 -540.5q-41 -96 -84 -166t-95.5 -115t-122.5 -66.5t-166 -21.5q-53 0 -97 13t-55 19zM250 1447q0 47 27.5 75.5t70.5 28.5t71 -28.5t28 -75.5t-28 -75t-71 -28t-70.5 28t-27.5 75zM619 1447q0 47 28 75.5t71 28.5t71 -28.5t28 -75.5t-28 -75t-71 -28t-71 28t-28 75z " />
<glyph unicode="&#x152;" horiz-adv-x="2128" d="M140 747q0 189 59 330.5t167 236t255 142.5t325 48q52 0 107 -4t106 -10h830v-127h-684v-518h607v-125h-607v-593h740v-127h-884q-107 -13 -215 -13q-178 0 -325 47.5t-255 142t-167 236t-59 334.5zM295 747q0 -146 39.5 -264t119 -199t199 -125.5t276.5 -44.5 q117 0 167.5 6.5t62.5 8.5v1232q-12 2 -63 9t-167 7q-157 0 -276.5 -44.5t-199 -126t-119 -198t-39.5 -261.5z" />
<glyph unicode="&#x153;" horiz-adv-x="2029" d="M119 554q0 132 37 239.5t105 184t160.5 118t204.5 41.5q150 0 256.5 -74t166.5 -205q62 140 170 209.5t236 69.5q205 0 326.5 -133.5t121.5 -410.5q0 -17 -1.5 -34t-3.5 -32h-780q7 -205 101.5 -314.5t300.5 -109.5q115 0 181 21.5t97 37.5l26 -121q-31 -17 -113.5 -41 t-194.5 -24q-193 0 -302.5 71.5t-166.5 195.5q-62 -127 -167.5 -198t-253.5 -71q-112 0 -204.5 42t-160.5 117.5t-105 182.5t-37 238zM267 554q0 -209 96.5 -331t262.5 -122t262.5 122t96.5 331t-96.5 333t-262.5 124t-262.5 -124t-96.5 -333zM1122 645h637 q-4 174 -81.5 271t-219.5 97q-75 0 -134.5 -30.5t-103.5 -80.5t-68.5 -117t-29.5 -140z" />
<glyph unicode="&#x178;" horiz-adv-x="1223" d="M21 1490h170q90 -189 199 -384t227 -371q115 176 224 371t202 384h159q-114 -205 -240.5 -425t-275.5 -448v-617h-146v613q-153 234 -281 452.5t-238 424.5zM330 1782q0 47 27.5 75.5t70.5 28.5t71 -28.5t28 -75.5t-28 -75t-71 -28t-70.5 28t-27.5 75zM699 1782 q0 47 28 75.5t71 28.5t71 -28.5t28 -75.5t-28 -75t-71 -28t-71 28t-28 75z" />
<glyph unicode="&#x2c6;" horiz-adv-x="808" d="M121 1323l283 316l284 -316l-60 -67l-224 207l-223 -207z" />
<glyph unicode="&#x2dc;" horiz-adv-x="808" d="M64 1379q11 26 29 56t43.5 55.5t58.5 43t76 17.5q47 0 86 -15.5t76 -31.5q41 -21 66.5 -29t46.5 -8q45 0 71 30t48 66l82 -38q-11 -27 -29.5 -57t-43.5 -55.5t-58 -43t-76 -17.5q-48 0 -86.5 15.5t-75.5 32.5q-41 21 -66.5 28.5t-46.5 7.5q-46 0 -71.5 -29.5t-47.5 -66.5 z" />
<glyph unicode="&#x2000;" horiz-adv-x="998" />
<glyph unicode="&#x2001;" horiz-adv-x="1997" />
<glyph unicode="&#x2002;" horiz-adv-x="998" />
<glyph unicode="&#x2003;" horiz-adv-x="1997" />
<glyph unicode="&#x2004;" horiz-adv-x="665" />
<glyph unicode="&#x2005;" horiz-adv-x="499" />
<glyph unicode="&#x2006;" horiz-adv-x="332" />
<glyph unicode="&#x2007;" horiz-adv-x="332" />
<glyph unicode="&#x2008;" horiz-adv-x="249" />
<glyph unicode="&#x2009;" horiz-adv-x="399" />
<glyph unicode="&#x200a;" horiz-adv-x="110" />
<glyph unicode="&#x2010;" horiz-adv-x="605" d="M60 554v136h486v-136h-486z" />
<glyph unicode="&#x2011;" horiz-adv-x="605" d="M60 554v136h486v-136h-486z" />
<glyph unicode="&#x2012;" horiz-adv-x="605" d="M60 554v136h486v-136h-486z" />
<glyph unicode="&#x2013;" horiz-adv-x="1065" d="M-4 562v122h1075v-122h-1075z" />
<glyph unicode="&#x2014;" horiz-adv-x="2140" d="M-4 562v122h2150v-122h-2150z" />
<glyph unicode="&#x2018;" horiz-adv-x="494" d="M160 1144v22q0 122 36 233t110 220l102 -47q-53 -103 -73.5 -189t-20.5 -162v-41t2 -36h-156z" />
<glyph unicode="&#x2019;" horiz-adv-x="494" d="M86 1166q54 102 74.5 188.5t20.5 161.5v41t-3 37h157v-22q0 -123 -36.5 -234t-109.5 -220z" />
<glyph unicode="&#x201a;" horiz-adv-x="494" d="M86 -224q54 103 74.5 189t20.5 162v41t-3 37h157v-22q0 -123 -36.5 -234t-109.5 -220z" />
<glyph unicode="&#x201c;" horiz-adv-x="842" d="M160 1144v22q0 122 36 233t110 220l102 -47q-53 -103 -73.5 -189t-20.5 -162v-41t2 -36h-156zM509 1144v22q0 122 36 233t110 220l102 -47q-53 -103 -73.5 -189t-20.5 -162v-41t2 -36h-156z" />
<glyph unicode="&#x201d;" horiz-adv-x="842" d="M86 1166q54 102 74.5 188.5t20.5 161.5v41t-3 37h157v-22q0 -123 -36.5 -234t-109.5 -220zM435 1166q54 102 74.5 188.5t20.5 161.5v41t-3 37h157v-22q0 -123 -36.5 -234t-109.5 -220z" />
<glyph unicode="&#x201e;" horiz-adv-x="842" d="M86 -224q54 103 74.5 189t20.5 162v41t-3 37h157v-22q0 -123 -36.5 -234t-109.5 -220zM435 -224q54 103 74.5 189t20.5 162v41t-3 37h157v-22q0 -123 -36.5 -234t-109.5 -220z" />
<glyph unicode="&#x2022;" horiz-adv-x="773" d="M129 759q0 52 17.5 98t50.5 81.5t81.5 57t108.5 21.5t107.5 -21.5t81 -57t51.5 -81.5t18 -98q0 -51 -18 -98.5t-51.5 -83t-81 -56t-107.5 -20.5q-59 0 -108 20.5t-82 56t-50.5 83t-17.5 98.5z" />
<glyph unicode="&#x2026;" horiz-adv-x="2140" d="M236 92q0 50 31.5 84.5t87.5 34.5q55 0 86.5 -34.5t31.5 -84.5q0 -49 -31.5 -83.5t-86.5 -34.5q-56 0 -87.5 34.5t-31.5 83.5zM952 92q0 50 31.5 84.5t87.5 34.5q55 0 86.5 -34.5t31.5 -84.5q0 -49 -31.5 -83.5t-86.5 -34.5q-56 0 -87.5 34.5t-31.5 83.5zM1668 92 q0 50 31.5 84.5t87.5 34.5q55 0 86.5 -34.5t31.5 -84.5q0 -49 -31.5 -83.5t-86.5 -34.5q-56 0 -87.5 34.5t-31.5 83.5z" />
<glyph unicode="&#x202f;" horiz-adv-x="399" />
<glyph unicode="&#x2039;" horiz-adv-x="591" d="M78 611l326 454l88 -56l-249 -398l249 -400l-88 -57z" />
<glyph unicode="&#x203a;" horiz-adv-x="591" d="M99 211l250 400l-250 398l88 56l326 -454l-326 -457z" />
<glyph unicode="&#x2044;" horiz-adv-x="318" d="M-338 0l849 1490h143l-849 -1490h-143z" />
<glyph unicode="&#x205f;" horiz-adv-x="499" />
<glyph unicode="&#x2070;" d="M78 1092q0 213 86 321.5t221 108.5q136 0 221.5 -108.5t85.5 -321.5t-85.5 -321t-221.5 -108q-135 0 -221 108.5t-86 320.5zM200 1092q0 -66 8.5 -125.5t30 -103.5t57.5 -69.5t89 -25.5q54 0 89 25.5t56.5 69.5t30.5 103.5t9 125.5t-9 126t-30.5 103.5t-56.5 70t-89 26.5 q-53 0 -89 -26.5t-57.5 -70t-30 -103t-8.5 -126.5z" />
<glyph unicode="&#x2074;" d="M71 888v71q21 43 65.5 114t101.5 150.5t122.5 154.5t127.5 126h101v-521h110v-95h-110v-207h-113v207h-405zM193 983h283v385q-37 -37 -78 -86t-79 -102t-71 -105.5t-55 -91.5z" />
<glyph unicode="&#x2075;" d="M99 712l24 99q12 -7 33.5 -14t49.5 -15t58.5 -13.5t57.5 -5.5q66 0 109 13.5t65.5 35t31 47t8.5 50.5q0 37 -14.5 70.5t-54 59.5t-114 40.5t-195.5 14.5q14 107 24.5 200t14.5 210h418v-104h-318q-4 -50 -8.5 -104.5t-15.5 -109.5q197 -12 290 -78.5t93 -193.5 q0 -110 -78.5 -179.5t-255.5 -69.5q-64 0 -128.5 15t-94.5 32z" />
<glyph unicode="&#x2076;" d="M99 1013q0 241 138.5 365t377.5 132l13 -102q-162 -4 -268.5 -70t-127.5 -185q45 21 87 27t73 6q82 0 138.5 -19.5t91 -55.5t49.5 -81t15 -94q0 -48 -17 -96t-51.5 -88t-89 -64.5t-128.5 -24.5q-154 0 -227.5 94.5t-73.5 255.5zM217 1022q0 -56 8.5 -104t29 -83t55 -54.5 t88.5 -19.5q45 0 76 15.5t51.5 39t30.5 53.5t10 60q0 86 -42 123.5t-130 37.5q-48 0 -95 -7.5t-80 -22.5q-2 -10 -2 -20v-18z" />
<glyph unicode="&#x2077;" d="M97 1395v109h582v-89q-45 -43 -101.5 -121.5t-110.5 -178.5t-93 -212t-45 -222h-114q7 84 38 186.5t76 201.5t100 186t107 140h-439z" />
<glyph unicode="&#x2078;" d="M90 892q0 82 44 131.5t100 80.5q-49 26 -84.5 71.5t-35.5 121.5q0 47 20 88t56 72t85 48t108 17q70 0 119.5 -18t83.5 -47t50 -68t16 -78q0 -75 -36.5 -123.5t-88.5 -81.5q84 -35 118 -90t34 -113q0 -105 -79 -172.5t-217 -67.5q-77 0 -133.5 19t-91.5 51t-51.5 74 t-16.5 85zM203 905q0 -24 7 -49t27.5 -46.5t56 -36t89.5 -14.5q99 0 140 43t41 93q0 62 -58.5 104t-189.5 70q-51 -26 -82 -66t-31 -98zM226 1299q0 -64 48 -100t163 -64q53 35 78 75t25 95q0 47 -39 85t-118 38q-75 0 -116 -37t-41 -92z" />
<glyph unicode="&#x2079;" d="M86 1252q0 47 17.5 95t51.5 87t88 63.5t129 24.5q154 0 227.5 -94t73.5 -256q0 -236 -138.5 -365.5t-403.5 -131.5l-4 101q183 0 289.5 71t123.5 189q-45 -21 -87 -27.5t-73 -6.5q-82 0 -138.5 20.5t-90.5 55t-49.5 79.5t-15.5 95zM207 1258q0 -86 41.5 -122.5 t129.5 -36.5q47 0 95 7.5t79 22.5q2 10 2 20v19q0 111 -37 183.5t-143 72.5q-45 0 -76 -14.5t-51.5 -38t-30 -53.5t-9.5 -60z" />
<glyph unicode="&#x2080;" d="M78 413q0 213 86 321.5t221 108.5q136 0 221.5 -108.5t85.5 -321.5t-85.5 -321t-221.5 -108q-135 0 -221 108.5t-86 320.5zM200 413q0 -66 8.5 -125.5t30 -103.5t57.5 -69.5t89 -25.5q54 0 89 25.5t56.5 69.5t30.5 103.5t9 125.5t-9 126t-30.5 103.5t-56.5 70t-89 26.5 q-53 0 -89 -26.5t-57.5 -70t-30 -103t-8.5 -126.5z" />
<glyph unicode="&#x2081;" d="M131 655q76 24 151 65.5t129 104.5h79v-823h-116v655q-24 -17 -55 -32.5t-61 -28.5t-57 -21.5t-41 -10.5z" />
<glyph unicode="&#x2082;" d="M92 739q37 38 102.5 71t162.5 33q121 0 187.5 -57.5t66.5 -174.5q0 -45 -16 -83.5t-42 -72t-59.5 -63.5t-70.5 -58q-55 -45 -90.5 -79.5t-56 -60.5t-28.5 -47.5t-8 -40.5h412v-104h-533q-2 11 -2 22v21q0 65 21.5 115.5t54.5 92.5t74 77.5t79 72.5q31 26 56.5 48.5 t44.5 47t31 52.5t12 65q0 71 -43 98t-101 27q-36 0 -67 -10t-57.5 -24t-44 -28l-27.5 -22z" />
<glyph unicode="&#x2083;" d="M97 31l28 101q30 -15 76.5 -29t112.5 -14q123 0 166 42t43 104q0 45 -21.5 75.5t-56 49.5t-81 26.5t-93.5 7.5h-28v97h32q39 0 77 5t65.5 21.5t45 42t17.5 68.5q0 62 -40 88.5t-107 26.5q-69 0 -116 -20.5t-75 -40.5l-43 90q24 19 86.5 45t152.5 26q140 0 198.5 -57 t58.5 -147q0 -134 -131 -187q80 -24 129.5 -77.5t49.5 -144.5q0 -49 -18 -93t-57 -78t-100.5 -53.5t-147.5 -19.5q-82 0 -135.5 13.5t-87.5 31.5z" />
<glyph unicode="&#x2084;" d="M71 209v71q21 43 65.5 114t101.5 150.5t122.5 154.5t127.5 126h101v-521h110v-95h-110v-207h-113v207h-405zM193 304h283v385q-37 -37 -78 -86t-79 -102t-71 -105.5t-55 -91.5z" />
<glyph unicode="&#x2085;" d="M105 33l24 99q12 -7 33.5 -14t49.5 -15t58.5 -13.5t57.5 -5.5q66 0 109 13.5t65.5 35t31 47t8.5 50.5q0 37 -14.5 70.5t-54 59.5t-114 40.5t-195.5 14.5q14 107 24.5 200t14.5 210h418v-104h-318q-4 -50 -8.5 -104.5t-15.5 -109.5q197 -12 290 -78.5t93 -193.5 q0 -110 -78.5 -179.5t-255.5 -69.5q-64 0 -128.5 15t-94.5 32z" />
<glyph unicode="&#x2086;" d="M99 334q0 241 138.5 365t377.5 132l13 -102q-162 -4 -268.5 -70t-127.5 -185q45 21 87 27t73 6q82 0 138.5 -19.5t91 -55.5t49.5 -81t15 -94q0 -48 -17 -96t-51.5 -88t-89 -64.5t-128.5 -24.5q-154 0 -227.5 94.5t-73.5 255.5zM217 343q0 -56 8.5 -104t29 -83t55 -54.5 t88.5 -19.5q45 0 76 15.5t51.5 39t30.5 53.5t10 60q0 86 -42 123.5t-130 37.5q-48 0 -95 -7.5t-80 -22.5q-2 -10 -2 -20v-18z" />
<glyph unicode="&#x2087;" d="M97 716v109h582v-89q-45 -43 -101.5 -121.5t-110.5 -178.5t-93 -212t-45 -222h-114q7 84 38 186.5t76 201.5t100 186t107 140h-439z" />
<glyph unicode="&#x2088;" d="M90 213q0 82 44 131.5t100 80.5q-49 26 -84.5 71.5t-35.5 121.5q0 47 20 88t56 72t85 48t108 17q70 0 119.5 -18t83.5 -47t50 -68t16 -78q0 -75 -36.5 -123.5t-88.5 -81.5q84 -35 118 -90t34 -113q0 -105 -79 -172.5t-217 -67.5q-77 0 -133.5 19t-91.5 51t-51.5 74 t-16.5 85zM203 226q0 -24 7 -49t27.5 -46.5t56 -36t89.5 -14.5q99 0 140 43t41 93q0 62 -58.5 104t-189.5 70q-51 -26 -82 -66t-31 -98zM226 620q0 -64 48 -100t163 -64q53 35 78 75t25 95q0 47 -39 85t-118 38q-75 0 -116 -37t-41 -92z" />
<glyph unicode="&#x2089;" d="M86 573q0 47 17.5 95t51.5 87t88 63.5t129 24.5q154 0 227.5 -94t73.5 -256q0 -236 -138.5 -365.5t-403.5 -131.5l-4 101q183 0 289.5 71t123.5 189q-45 -21 -87 -27.5t-73 -6.5q-82 0 -138.5 20.5t-90.5 55t-49.5 79.5t-15.5 95zM207 579q0 -86 41.5 -122.5t129.5 -36.5 q47 0 95 7.5t79 22.5q2 10 2 20v19q0 111 -37 183.5t-143 72.5q-45 0 -76 -14.5t-51.5 -38t-30 -53.5t-9.5 -60z" />
<glyph unicode="&#x20ac;" horiz-adv-x="1212" d="M97 509v115h196q-2 30 -2.5 60t-0.5 60q0 67 7 136h-200v113h213q19 105 57.5 200t105.5 167t161.5 114t225.5 42q47 0 85 -3t69 -9t60.5 -14t58.5 -19l-34 -125q-51 21 -116 33t-123 12q-97 0 -165.5 -32t-115 -87t-74 -127t-41.5 -152h515l-22 -113h-508 q-2 -35 -3 -69.5t-1 -66.5v-60t2 -60h458l-23 -115h-424q12 -82 38.5 -156t72.5 -129.5t119 -90t178 -34.5q97 0 165 18t106 41l33 -121q-15 -9 -45.5 -20t-71 -20.5t-90 -17t-101.5 -7.5q-140 0 -237.5 43t-163 116.5t-103.5 171t-52 206.5h-209z" />
<glyph unicode="&#x2122;" horiz-adv-x="1533" d="M43 1404v86h554v-86h-229v-610h-95v610h-230zM656 794q2 107 9.5 210.5t15 194.5t17.5 165t18 126h80q19 -30 50.5 -85t66.5 -119.5t73 -134t68 -129.5q31 60 68 129.5t72.5 134t67 120t49.5 84.5h76q8 -52 18 -126t17.5 -165t14 -194.5t10.5 -210.5h-97 q-6 154 -15.5 287.5t-23.5 229.5q-26 -45 -60 -104.5t-66 -120t-59 -113t-42 -83.5h-69q-14 31 -41.5 83.5t-59.5 113t-66.5 120t-59.5 104.5q-13 -96 -23 -229.5t-16 -287.5h-93z" />
<glyph unicode="&#x2153;" horiz-adv-x="1861" d="M131 1334q76 24 151 65.5t129 104.5h79v-823h-116v655q-24 -17 -55 -32.5t-61 -28.5t-57 -21.5t-41 -10.5zM434 0l849 1490h143l-849 -1490h-143zM1187 31l28 101q30 -15 76.5 -29t112.5 -14q123 0 166 42t43 104q0 45 -21.5 75.5t-56 49.5t-81 26.5t-93.5 7.5h-28v97h32 q39 0 77 5t65.5 21.5t45 42t17.5 68.5q0 62 -40 88.5t-107 26.5q-69 0 -116 -20.5t-75 -40.5l-43 90q24 19 86.5 45t152.5 26q140 0 198.5 -57t58.5 -147q0 -134 -131 -187q80 -24 129.5 -77.5t49.5 -144.5q0 -49 -18 -93t-57 -78t-100.5 -53.5t-147.5 -19.5 q-82 0 -135.5 13.5t-87.5 31.5z" />
<glyph unicode="&#x2154;" horiz-adv-x="1861" d="M92 1418q37 38 102.5 71t162.5 33q121 0 187.5 -57.5t66.5 -174.5q0 -45 -16 -83.5t-42 -72t-59.5 -63.5t-70.5 -58q-55 -45 -90.5 -79.5t-56 -60.5t-28.5 -47.5t-8 -40.5h412v-104h-533q-2 11 -2 22v21q0 65 21.5 115.5t54.5 92.5t74 77.5t79 72.5q31 26 56.5 48.5 t44.5 47t31 52.5t12 65q0 71 -43 98t-101 27q-36 0 -67 -10t-57.5 -24t-44 -28l-27.5 -22zM434 0l849 1490h143l-849 -1490h-143zM1187 31l28 101q30 -15 76.5 -29t112.5 -14q123 0 166 42t43 104q0 45 -21.5 75.5t-56 49.5t-81 26.5t-93.5 7.5h-28v97h32q39 0 77 5 t65.5 21.5t45 42t17.5 68.5q0 62 -40 88.5t-107 26.5q-69 0 -116 -20.5t-75 -40.5l-43 90q24 19 86.5 45t152.5 26q140 0 198.5 -57t58.5 -147q0 -134 -131 -187q80 -24 129.5 -77.5t49.5 -144.5q0 -49 -18 -93t-57 -78t-100.5 -53.5t-147.5 -19.5q-82 0 -135.5 13.5 t-87.5 31.5z" />
<glyph unicode="&#x2155;" horiz-adv-x="1861" d="M131 1334q76 24 151 65.5t129 104.5h79v-823h-116v655q-24 -17 -55 -32.5t-61 -28.5t-57 -21.5t-41 -10.5zM434 0l849 1490h143l-849 -1490h-143zM1189 33l24 99q12 -7 33.5 -14t49.5 -15t58.5 -13.5t57.5 -5.5q66 0 109 13.5t65.5 35t31 47t8.5 50.5q0 37 -14.5 70.5 t-54 59.5t-114 40.5t-195.5 14.5q14 107 24.5 200t14.5 210h418v-104h-318q-4 -50 -8.5 -104.5t-15.5 -109.5q197 -12 290 -78.5t93 -193.5q0 -110 -78.5 -179.5t-255.5 -69.5q-64 0 -128.5 15t-94.5 32z" />
<glyph unicode="&#x2156;" horiz-adv-x="1861" d="M92 1418q37 38 102.5 71t162.5 33q121 0 187.5 -57.5t66.5 -174.5q0 -45 -16 -83.5t-42 -72t-59.5 -63.5t-70.5 -58q-55 -45 -90.5 -79.5t-56 -60.5t-28.5 -47.5t-8 -40.5h412v-104h-533q-2 11 -2 22v21q0 65 21.5 115.5t54.5 92.5t74 77.5t79 72.5q31 26 56.5 48.5 t44.5 47t31 52.5t12 65q0 71 -43 98t-101 27q-36 0 -67 -10t-57.5 -24t-44 -28l-27.5 -22zM434 0l849 1490h143l-849 -1490h-143zM1189 33l24 99q12 -7 33.5 -14t49.5 -15t58.5 -13.5t57.5 -5.5q66 0 109 13.5t65.5 35t31 47t8.5 50.5q0 37 -14.5 70.5t-54 59.5t-114 40.5 t-195.5 14.5q14 107 24.5 200t14.5 210h418v-104h-318q-4 -50 -8.5 -104.5t-15.5 -109.5q197 -12 290 -78.5t93 -193.5q0 -110 -78.5 -179.5t-255.5 -69.5q-64 0 -128.5 15t-94.5 32z" />
<glyph unicode="&#x2157;" horiz-adv-x="1861" d="M97 710l28 101q30 -15 76.5 -29t112.5 -14q123 0 166 42t43 104q0 45 -21.5 75.5t-56 49.5t-81 26.5t-93.5 7.5h-28v97h32q39 0 77 5t65.5 21.5t45 42t17.5 68.5q0 62 -40 88.5t-107 26.5q-69 0 -116 -20.5t-75 -40.5l-43 90q24 19 86.5 45t152.5 26q140 0 198.5 -57 t58.5 -147q0 -134 -131 -187q80 -24 129.5 -77.5t49.5 -144.5q0 -49 -18 -93t-57 -78t-100.5 -53.5t-147.5 -19.5q-82 0 -135.5 13.5t-87.5 31.5zM434 0l849 1490h143l-849 -1490h-143zM1189 33l24 99q12 -7 33.5 -14t49.5 -15t58.5 -13.5t57.5 -5.5q66 0 109 13.5t65.5 35 t31 47t8.5 50.5q0 37 -14.5 70.5t-54 59.5t-114 40.5t-195.5 14.5q14 107 24.5 200t14.5 210h418v-104h-318q-4 -50 -8.5 -104.5t-15.5 -109.5q197 -12 290 -78.5t93 -193.5q0 -110 -78.5 -179.5t-255.5 -69.5q-64 0 -128.5 15t-94.5 32z" />
<glyph unicode="&#x2158;" horiz-adv-x="1861" d="M71 888v71q21 43 65.5 114t101.5 150.5t122.5 154.5t127.5 126h101v-521h110v-95h-110v-207h-113v207h-405zM193 983h283v385q-37 -37 -78 -86t-79 -102t-71 -105.5t-55 -91.5zM434 0l849 1490h143l-849 -1490h-143zM1189 33l24 99q12 -7 33.5 -14t49.5 -15t58.5 -13.5 t57.5 -5.5q66 0 109 13.5t65.5 35t31 47t8.5 50.5q0 37 -14.5 70.5t-54 59.5t-114 40.5t-195.5 14.5q14 107 24.5 200t14.5 210h418v-104h-318q-4 -50 -8.5 -104.5t-15.5 -109.5q197 -12 290 -78.5t93 -193.5q0 -110 -78.5 -179.5t-255.5 -69.5q-64 0 -128.5 15t-94.5 32z " />
<glyph unicode="&#x2159;" horiz-adv-x="1861" d="M131 1334q76 24 151 65.5t129 104.5h79v-823h-116v655q-24 -17 -55 -32.5t-61 -28.5t-57 -21.5t-41 -10.5zM434 0l849 1490h143l-849 -1490h-143zM1189 334q0 241 138.5 365t377.5 132l13 -102q-162 -4 -268.5 -70t-127.5 -185q45 21 87 27t73 6q82 0 138.5 -19.5 t91 -55.5t49.5 -81t15 -94q0 -48 -17 -96t-51.5 -88t-89 -64.5t-128.5 -24.5q-154 0 -227.5 94.5t-73.5 255.5zM1307 343q0 -56 8.5 -104t29 -83t55 -54.5t88.5 -19.5q45 0 76 15.5t51.5 39t30.5 53.5t10 60q0 86 -42 123.5t-130 37.5q-48 0 -95 -7.5t-80 -22.5 q-2 -10 -2 -20v-18z" />
<glyph unicode="&#x215a;" horiz-adv-x="1861" d="M99 712l24 99q12 -7 33.5 -14t49.5 -15t58.5 -13.5t57.5 -5.5q66 0 109 13.5t65.5 35t31 47t8.5 50.5q0 37 -14.5 70.5t-54 59.5t-114 40.5t-195.5 14.5q14 107 24.5 200t14.5 210h418v-104h-318q-4 -50 -8.5 -104.5t-15.5 -109.5q197 -12 290 -78.5t93 -193.5 q0 -110 -78.5 -179.5t-255.5 -69.5q-64 0 -128.5 15t-94.5 32zM434 0l849 1490h143l-849 -1490h-143zM1189 334q0 241 138.5 365t377.5 132l13 -102q-162 -4 -268.5 -70t-127.5 -185q45 21 87 27t73 6q82 0 138.5 -19.5t91 -55.5t49.5 -81t15 -94q0 -48 -17 -96t-51.5 -88 t-89 -64.5t-128.5 -24.5q-154 0 -227.5 94.5t-73.5 255.5zM1307 343q0 -56 8.5 -104t29 -83t55 -54.5t88.5 -19.5q45 0 76 15.5t51.5 39t30.5 53.5t10 60q0 86 -42 123.5t-130 37.5q-48 0 -95 -7.5t-80 -22.5q-2 -10 -2 -20v-18z" />
<glyph unicode="&#x215b;" horiz-adv-x="1861" d="M131 1334q76 24 151 65.5t129 104.5h79v-823h-116v655q-24 -17 -55 -32.5t-61 -28.5t-57 -21.5t-41 -10.5zM434 0l849 1490h143l-849 -1490h-143zM1180 213q0 82 44 131.5t100 80.5q-49 26 -84.5 71.5t-35.5 121.5q0 47 20 88t56 72t85 48t108 17q70 0 119.5 -18 t83.5 -47t50 -68t16 -78q0 -75 -36.5 -123.5t-88.5 -81.5q84 -35 118 -90t34 -113q0 -105 -79 -172.5t-217 -67.5q-77 0 -133.5 19t-91.5 51t-51.5 74t-16.5 85zM1293 226q0 -24 7 -49t27.5 -46.5t56 -36t89.5 -14.5q99 0 140 43t41 93q0 62 -58.5 104t-189.5 70 q-51 -26 -82 -66t-31 -98zM1316 620q0 -64 48 -100t163 -64q53 35 78 75t25 95q0 47 -39 85t-118 38q-75 0 -116 -37t-41 -92z" />
<glyph unicode="&#x215c;" horiz-adv-x="1861" d="M97 710l28 101q30 -15 76.5 -29t112.5 -14q123 0 166 42t43 104q0 45 -21.5 75.5t-56 49.5t-81 26.5t-93.5 7.5h-28v97h32q39 0 77 5t65.5 21.5t45 42t17.5 68.5q0 62 -40 88.5t-107 26.5q-69 0 -116 -20.5t-75 -40.5l-43 90q24 19 86.5 45t152.5 26q140 0 198.5 -57 t58.5 -147q0 -134 -131 -187q80 -24 129.5 -77.5t49.5 -144.5q0 -49 -18 -93t-57 -78t-100.5 -53.5t-147.5 -19.5q-82 0 -135.5 13.5t-87.5 31.5zM434 0l849 1490h143l-849 -1490h-143zM1180 213q0 82 44 131.5t100 80.5q-49 26 -84.5 71.5t-35.5 121.5q0 47 20 88t56 72 t85 48t108 17q70 0 119.5 -18t83.5 -47t50 -68t16 -78q0 -75 -36.5 -123.5t-88.5 -81.5q84 -35 118 -90t34 -113q0 -105 -79 -172.5t-217 -67.5q-77 0 -133.5 19t-91.5 51t-51.5 74t-16.5 85zM1293 226q0 -24 7 -49t27.5 -46.5t56 -36t89.5 -14.5q99 0 140 43t41 93 q0 62 -58.5 104t-189.5 70q-51 -26 -82 -66t-31 -98zM1316 620q0 -64 48 -100t163 -64q53 35 78 75t25 95q0 47 -39 85t-118 38q-75 0 -116 -37t-41 -92z" />
<glyph unicode="&#x215d;" horiz-adv-x="1861" d="M99 712l24 99q12 -7 33.5 -14t49.5 -15t58.5 -13.5t57.5 -5.5q66 0 109 13.5t65.5 35t31 47t8.5 50.5q0 37 -14.5 70.5t-54 59.5t-114 40.5t-195.5 14.5q14 107 24.5 200t14.5 210h418v-104h-318q-4 -50 -8.5 -104.5t-15.5 -109.5q197 -12 290 -78.5t93 -193.5 q0 -110 -78.5 -179.5t-255.5 -69.5q-64 0 -128.5 15t-94.5 32zM434 0l849 1490h143l-849 -1490h-143zM1180 213q0 82 44 131.5t100 80.5q-49 26 -84.5 71.5t-35.5 121.5q0 47 20 88t56 72t85 48t108 17q70 0 119.5 -18t83.5 -47t50 -68t16 -78q0 -75 -36.5 -123.5 t-88.5 -81.5q84 -35 118 -90t34 -113q0 -105 -79 -172.5t-217 -67.5q-77 0 -133.5 19t-91.5 51t-51.5 74t-16.5 85zM1293 226q0 -24 7 -49t27.5 -46.5t56 -36t89.5 -14.5q99 0 140 43t41 93q0 62 -58.5 104t-189.5 70q-51 -26 -82 -66t-31 -98zM1316 620q0 -64 48 -100 t163 -64q53 35 78 75t25 95q0 47 -39 85t-118 38q-75 0 -116 -37t-41 -92z" />
<glyph unicode="&#x215e;" horiz-adv-x="1861" d="M97 1395v109h582v-89q-45 -43 -101.5 -121.5t-110.5 -178.5t-93 -212t-45 -222h-114q7 84 38 186.5t76 201.5t100 186t107 140h-439zM434 0l849 1490h143l-849 -1490h-143zM1180 213q0 82 44 131.5t100 80.5q-49 26 -84.5 71.5t-35.5 121.5q0 47 20 88t56 72t85 48 t108 17q70 0 119.5 -18t83.5 -47t50 -68t16 -78q0 -75 -36.5 -123.5t-88.5 -81.5q84 -35 118 -90t34 -113q0 -105 -79 -172.5t-217 -67.5q-77 0 -133.5 19t-91.5 51t-51.5 74t-16.5 85zM1293 226q0 -24 7 -49t27.5 -46.5t56 -36t89.5 -14.5q99 0 140 43t41 93 q0 62 -58.5 104t-189.5 70q-51 -26 -82 -66t-31 -98zM1316 620q0 -64 48 -100t163 -64q53 35 78 75t25 95q0 47 -39 85t-118 38q-75 0 -116 -37t-41 -92z" />
<glyph unicode="&#x25fc;" horiz-adv-x="1106" d="M0 0v1108h1108v-1108h-1108z" />
<glyph unicode="&#xf506;" horiz-adv-x="1861" d="M131 1334q76 24 151 65.5t129 104.5h79v-823h-116v655q-24 -17 -55 -32.5t-61 -28.5t-57 -21.5t-41 -10.5zM434 0l849 1490h143l-849 -1490h-143zM1187 716v109h582v-89q-45 -43 -101.5 -121.5t-110.5 -178.5t-93 -212t-45 -222h-114q7 84 38 186.5t76 201.5t100 186 t107 140h-439z" />
<glyph unicode="&#xf507;" horiz-adv-x="1861" d="M92 1418q37 38 102.5 71t162.5 33q121 0 187.5 -57.5t66.5 -174.5q0 -45 -16 -83.5t-42 -72t-59.5 -63.5t-70.5 -58q-55 -45 -90.5 -79.5t-56 -60.5t-28.5 -47.5t-8 -40.5h412v-104h-533q-2 11 -2 22v21q0 65 21.5 115.5t54.5 92.5t74 77.5t79 72.5q31 26 56.5 48.5 t44.5 47t31 52.5t12 65q0 71 -43 98t-101 27q-36 0 -67 -10t-57.5 -24t-44 -28l-27.5 -22zM434 0l849 1490h143l-849 -1490h-143zM1187 716v109h582v-89q-45 -43 -101.5 -121.5t-110.5 -178.5t-93 -212t-45 -222h-114q7 84 38 186.5t76 201.5t100 186t107 140h-439z" />
<glyph unicode="&#xf508;" horiz-adv-x="1861" d="M97 710l28 101q30 -15 76.5 -29t112.5 -14q123 0 166 42t43 104q0 45 -21.5 75.5t-56 49.5t-81 26.5t-93.5 7.5h-28v97h32q39 0 77 5t65.5 21.5t45 42t17.5 68.5q0 62 -40 88.5t-107 26.5q-69 0 -116 -20.5t-75 -40.5l-43 90q24 19 86.5 45t152.5 26q140 0 198.5 -57 t58.5 -147q0 -134 -131 -187q80 -24 129.5 -77.5t49.5 -144.5q0 -49 -18 -93t-57 -78t-100.5 -53.5t-147.5 -19.5q-82 0 -135.5 13.5t-87.5 31.5zM434 0l849 1490h143l-849 -1490h-143zM1187 716v109h582v-89q-45 -43 -101.5 -121.5t-110.5 -178.5t-93 -212t-45 -222h-114 q7 84 38 186.5t76 201.5t100 186t107 140h-439z" />
<glyph unicode="&#xf509;" horiz-adv-x="1861" d="M71 888v71q21 43 65.5 114t101.5 150.5t122.5 154.5t127.5 126h101v-521h110v-95h-110v-207h-113v207h-405zM193 983h283v385q-37 -37 -78 -86t-79 -102t-71 -105.5t-55 -91.5zM434 0l849 1490h143l-849 -1490h-143zM1187 716v109h582v-89q-45 -43 -101.5 -121.5 t-110.5 -178.5t-93 -212t-45 -222h-114q7 84 38 186.5t76 201.5t100 186t107 140h-439z" />
<glyph unicode="&#xf50a;" horiz-adv-x="1861" d="M99 712l24 99q12 -7 33.5 -14t49.5 -15t58.5 -13.5t57.5 -5.5q66 0 109 13.5t65.5 35t31 47t8.5 50.5q0 37 -14.5 70.5t-54 59.5t-114 40.5t-195.5 14.5q14 107 24.5 200t14.5 210h418v-104h-318q-4 -50 -8.5 -104.5t-15.5 -109.5q197 -12 290 -78.5t93 -193.5 q0 -110 -78.5 -179.5t-255.5 -69.5q-64 0 -128.5 15t-94.5 32zM434 0l849 1490h143l-849 -1490h-143zM1187 716v109h582v-89q-45 -43 -101.5 -121.5t-110.5 -178.5t-93 -212t-45 -222h-114q7 84 38 186.5t76 201.5t100 186t107 140h-439z" />
<glyph unicode="&#xf50b;" horiz-adv-x="1861" d="M99 1013q0 241 138.5 365t377.5 132l13 -102q-162 -4 -268.5 -70t-127.5 -185q45 21 87 27t73 6q82 0 138.5 -19.5t91 -55.5t49.5 -81t15 -94q0 -48 -17 -96t-51.5 -88t-89 -64.5t-128.5 -24.5q-154 0 -227.5 94.5t-73.5 255.5zM217 1022q0 -56 8.5 -104t29 -83t55 -54.5 t88.5 -19.5q45 0 76 15.5t51.5 39t30.5 53.5t10 60q0 86 -42 123.5t-130 37.5q-48 0 -95 -7.5t-80 -22.5q-2 -10 -2 -20v-18zM434 0l849 1490h143l-849 -1490h-143zM1187 716v109h582v-89q-45 -43 -101.5 -121.5t-110.5 -178.5t-93 -212t-45 -222h-114q7 84 38 186.5 t76 201.5t100 186t107 140h-439z" />
<glyph unicode="&#xf50c;" horiz-adv-x="1861" d="M131 1334q76 24 151 65.5t129 104.5h79v-823h-116v655q-24 -17 -55 -32.5t-61 -28.5t-57 -21.5t-41 -10.5zM434 0l849 1490h143l-849 -1490h-143zM1176 573q0 47 17.5 95t51.5 87t88 63.5t129 24.5q154 0 227.5 -94t73.5 -256q0 -236 -138.5 -365.5t-403.5 -131.5l-4 101 q183 0 289.5 71t123.5 189q-45 -21 -87 -27.5t-73 -6.5q-82 0 -138.5 20.5t-90.5 55t-49.5 79.5t-15.5 95zM1297 579q0 -86 41.5 -122.5t129.5 -36.5q47 0 95 7.5t79 22.5q2 10 2 20v19q0 111 -37 183.5t-143 72.5q-45 0 -76 -14.5t-51.5 -38t-30 -53.5t-9.5 -60z" />
<glyph unicode="&#xf50d;" horiz-adv-x="1861" d="M92 1418q37 38 102.5 71t162.5 33q121 0 187.5 -57.5t66.5 -174.5q0 -45 -16 -83.5t-42 -72t-59.5 -63.5t-70.5 -58q-55 -45 -90.5 -79.5t-56 -60.5t-28.5 -47.5t-8 -40.5h412v-104h-533q-2 11 -2 22v21q0 65 21.5 115.5t54.5 92.5t74 77.5t79 72.5q31 26 56.5 48.5 t44.5 47t31 52.5t12 65q0 71 -43 98t-101 27q-36 0 -67 -10t-57.5 -24t-44 -28l-27.5 -22zM434 0l849 1490h143l-849 -1490h-143zM1176 573q0 47 17.5 95t51.5 87t88 63.5t129 24.5q154 0 227.5 -94t73.5 -256q0 -236 -138.5 -365.5t-403.5 -131.5l-4 101q183 0 289.5 71 t123.5 189q-45 -21 -87 -27.5t-73 -6.5q-82 0 -138.5 20.5t-90.5 55t-49.5 79.5t-15.5 95zM1297 579q0 -86 41.5 -122.5t129.5 -36.5q47 0 95 7.5t79 22.5q2 10 2 20v19q0 111 -37 183.5t-143 72.5q-45 0 -76 -14.5t-51.5 -38t-30 -53.5t-9.5 -60z" />
<glyph unicode="&#xf50e;" horiz-adv-x="1861" d="M71 888v71q21 43 65.5 114t101.5 150.5t122.5 154.5t127.5 126h101v-521h110v-95h-110v-207h-113v207h-405zM193 983h283v385q-37 -37 -78 -86t-79 -102t-71 -105.5t-55 -91.5zM434 0l849 1490h143l-849 -1490h-143zM1176 573q0 47 17.5 95t51.5 87t88 63.5t129 24.5 q154 0 227.5 -94t73.5 -256q0 -236 -138.5 -365.5t-403.5 -131.5l-4 101q183 0 289.5 71t123.5 189q-45 -21 -87 -27.5t-73 -6.5q-82 0 -138.5 20.5t-90.5 55t-49.5 79.5t-15.5 95zM1297 579q0 -86 41.5 -122.5t129.5 -36.5q47 0 95 7.5t79 22.5q2 10 2 20v19 q0 111 -37 183.5t-143 72.5q-45 0 -76 -14.5t-51.5 -38t-30 -53.5t-9.5 -60z" />
<glyph unicode="&#xf50f;" horiz-adv-x="1861" d="M99 712l24 99q12 -7 33.5 -14t49.5 -15t58.5 -13.5t57.5 -5.5q66 0 109 13.5t65.5 35t31 47t8.5 50.5q0 37 -14.5 70.5t-54 59.5t-114 40.5t-195.5 14.5q14 107 24.5 200t14.5 210h418v-104h-318q-4 -50 -8.5 -104.5t-15.5 -109.5q197 -12 290 -78.5t93 -193.5 q0 -110 -78.5 -179.5t-255.5 -69.5q-64 0 -128.5 15t-94.5 32zM434 0l849 1490h143l-849 -1490h-143zM1176 573q0 47 17.5 95t51.5 87t88 63.5t129 24.5q154 0 227.5 -94t73.5 -256q0 -236 -138.5 -365.5t-403.5 -131.5l-4 101q183 0 289.5 71t123.5 189q-45 -21 -87 -27.5 t-73 -6.5q-82 0 -138.5 20.5t-90.5 55t-49.5 79.5t-15.5 95zM1297 579q0 -86 41.5 -122.5t129.5 -36.5q47 0 95 7.5t79 22.5q2 10 2 20v19q0 111 -37 183.5t-143 72.5q-45 0 -76 -14.5t-51.5 -38t-30 -53.5t-9.5 -60z" />
<glyph unicode="&#xf510;" horiz-adv-x="1861" d="M97 1395v109h582v-89q-45 -43 -101.5 -121.5t-110.5 -178.5t-93 -212t-45 -222h-114q7 84 38 186.5t76 201.5t100 186t107 140h-439zM434 0l849 1490h143l-849 -1490h-143zM1176 573q0 47 17.5 95t51.5 87t88 63.5t129 24.5q154 0 227.5 -94t73.5 -256 q0 -236 -138.5 -365.5t-403.5 -131.5l-4 101q183 0 289.5 71t123.5 189q-45 -21 -87 -27.5t-73 -6.5q-82 0 -138.5 20.5t-90.5 55t-49.5 79.5t-15.5 95zM1297 579q0 -86 41.5 -122.5t129.5 -36.5q47 0 95 7.5t79 22.5q2 10 2 20v19q0 111 -37 183.5t-143 72.5 q-45 0 -76 -14.5t-51.5 -38t-30 -53.5t-9.5 -60z" />
<glyph unicode="&#xf511;" horiz-adv-x="1861" d="M90 892q0 82 44 131.5t100 80.5q-49 26 -84.5 71.5t-35.5 121.5q0 47 20 88t56 72t85 48t108 17q70 0 119.5 -18t83.5 -47t50 -68t16 -78q0 -75 -36.5 -123.5t-88.5 -81.5q84 -35 118 -90t34 -113q0 -105 -79 -172.5t-217 -67.5q-77 0 -133.5 19t-91.5 51t-51.5 74 t-16.5 85zM203 905q0 -24 7 -49t27.5 -46.5t56 -36t89.5 -14.5q99 0 140 43t41 93q0 62 -58.5 104t-189.5 70q-51 -26 -82 -66t-31 -98zM226 1299q0 -64 48 -100t163 -64q53 35 78 75t25 95q0 47 -39 85t-118 38q-75 0 -116 -37t-41 -92zM434 0l849 1490h143l-849 -1490 h-143zM1176 573q0 47 17.5 95t51.5 87t88 63.5t129 24.5q154 0 227.5 -94t73.5 -256q0 -236 -138.5 -365.5t-403.5 -131.5l-4 101q183 0 289.5 71t123.5 189q-45 -21 -87 -27.5t-73 -6.5q-82 0 -138.5 20.5t-90.5 55t-49.5 79.5t-15.5 95zM1297 579q0 -86 41.5 -122.5 t129.5 -36.5q47 0 95 7.5t79 22.5q2 10 2 20v19q0 111 -37 183.5t-143 72.5q-45 0 -76 -14.5t-51.5 -38t-30 -53.5t-9.5 -60z" />
<glyph unicode="&#xf800;" horiz-adv-x="1212" d="M127 744q0 378 124.5 578t355.5 200q228 0 353.5 -200t125.5 -578q0 -375 -125.5 -576t-353.5 -201t-354 201t-126 576zM279 744q0 -129 16.5 -246.5t54 -206t99.5 -143t158 -54.5q92 0 154 54.5t101 143t55 206t16 246.5q0 130 -16 247t-55 207t-101 143.5t-154 53.5 q-95 0 -157.5 -53.5t-100 -143.5t-54 -207.5t-16.5 -246.5z" />
<glyph unicode="&#xf801;" horiz-adv-x="775" d="M54 1184q129 46 230.5 116t199.5 190h99v-1490h-139v1278q-25 -26 -62 -54t-84.5 -55.5t-99.5 -52t-103 -39.5z" />
<glyph unicode="&#xf802;" horiz-adv-x="1048" d="M70 1352q13 15 46.5 44.5t84 57.5t117 48t148.5 20q217 0 327 -106.5t110 -295.5q0 -84 -30 -158t-81 -142.5t-115.5 -133l-130.5 -130.5q-56 -53 -109 -107.5t-95 -109.5t-66.5 -108t-24.5 -104v-4h703v-123h-858q0 4 -1 16t-1 35q0 101 36.5 188.5t93.5 165t127 144 t135 128.5q53 52 101.5 100t85.5 100t58.5 110t21.5 127q0 150 -81 215.5t-204 65.5q-69 0 -122.5 -17t-93.5 -39.5t-68 -46.5t-40 -36z" />
<glyph unicode="&#xf803;" horiz-adv-x="1077" d="M70 47l37 125q12 -8 42.5 -21t72.5 -25t94.5 -20.5t114.5 -8.5q205 0 293 85t88 229q0 94 -35.5 156.5t-97 100.5t-142 53.5t-170.5 15.5h-22v117h49q58 0 119.5 12t112.5 44t84 85.5t33 137.5q0 71 -23.5 121.5t-63.5 80.5t-92.5 44t-110.5 14q-116 0 -181 -32t-106 -60 l-59 109q21 15 54.5 35t78.5 36.5t99.5 28.5t119.5 12q112 0 192.5 -27.5t134.5 -78.5t80 -121t26 -151q0 -131 -70.5 -214t-179.5 -119q60 -15 117 -46.5t102.5 -80t73 -117t27.5 -161.5q0 -94 -33 -174t-98.5 -138.5t-167 -92.5t-236.5 -34q-72 0 -130.5 10t-103.5 23 t-76 26t-47 21z" />
<glyph unicode="&#xf804;" horiz-adv-x="1145" d="M74 404v86q39 103 109 232.5t158 264.5t191.5 265.5t208.5 237.5h147v-971h185v-115h-185v-404h-139v404h-675zM219 519h530v815q-75 -78 -152.5 -179t-147 -209.5t-129.5 -218.5t-101 -208z" />
<glyph unicode="&#xf805;" horiz-adv-x="1067" d="M72 47l37 125q13 -8 44.5 -21t73.5 -25t94.5 -20.5t109.5 -8.5q108 0 180 24.5t115.5 67.5t61.5 100t18 124q0 86 -27.5 154.5t-99 116t-192 72t-304.5 24.5q12 109 21 201t15.5 177t9.5 165.5t5 166.5h671v-122h-548q-2 -41 -6.5 -105.5t-9 -132t-11 -130t-10.5 -99.5 q166 -4 286 -41t198 -99t115 -150t37 -196q0 -95 -31 -176t-95.5 -141.5t-163.5 -95.5t-235 -35q-69 0 -127.5 10t-105 23t-78.5 26t-48 21z" />
<glyph unicode="&#xf806;" horiz-adv-x="1162" d="M131 591q0 437 209.5 662.5t609.5 242.5l8 -117q-131 -9 -242 -40.5t-197 -97t-143.5 -168.5t-79.5 -254q57 30 139 53t175 23q120 0 204 -38t135.5 -100t75.5 -144t24 -172q0 -84 -26 -168t-80.5 -151.5t-137.5 -111t-197 -43.5q-235 0 -356 164.5t-121 459.5zM281 589 q0 -101 14 -191t51.5 -159t100 -109t158.5 -40q80 0 136.5 29t90.5 76.5t50 110t16 131.5q0 172 -76.5 253.5t-224.5 81.5q-99 0 -173 -22.5t-139 -52.5q-4 -37 -4 -57v-51z" />
<glyph unicode="&#xf807;" horiz-adv-x="1008" d="M54 1361v129h906v-125q-73 -88 -160.5 -235t-164.5 -331t-134 -390t-70 -409h-149q12 178 65.5 378.5t129.5 387t165 343.5t173 252h-761z" />
<glyph unicode="&#xf808;" horiz-adv-x="1173" d="M127 374q0 75 21.5 136.5t57 110t82 86t97.5 65.5q-131 64 -178.5 152.5t-47.5 191.5q0 93 32 168t89.5 128t136.5 81.5t175 28.5q111 0 193 -33.5t134.5 -87t77 -122t24.5 -142.5q0 -71 -21.5 -130t-55.5 -107t-77 -85t-84 -62q150 -64 211.5 -161t61.5 -205 q0 -92 -33.5 -169.5t-93.5 -132.5t-146 -86.5t-191 -31.5t-190.5 30.5t-146.5 85.5t-94.5 129t-33.5 162zM275 374q0 -60 19.5 -111.5t59 -90.5t99 -61.5t139.5 -22.5t138.5 22.5t98.5 61.5t59.5 90.5t19.5 111.5q0 92 -35.5 150.5t-93 95t-129.5 58t-144 44.5 q-109 -51 -170 -138t-61 -210zM305 1131q0 -60 14.5 -109.5t53 -89.5t107.5 -73.5t180 -62.5q99 56 157 137.5t58 203.5q0 49 -16 97t-49 85.5t-87 60t-131 22.5q-71 0 -125 -21.5t-89.5 -59t-54 -87.5t-18.5 -103z" />
<glyph unicode="&#xf809;" horiz-adv-x="1162" d="M122 1051q0 82 26 166t81 151.5t137.5 110.5t196.5 43q235 0 356.5 -164t121.5 -459q0 -450 -215 -676.5t-628 -226.5l-4 115q142 0 260 32.5t205 100.5t141.5 174.5t74.5 256.5q-57 -30 -139 -52.5t-175 -22.5q-120 0 -204 37.5t-135.5 100t-75.5 144.5t-24 169z M273 1056q0 -170 76.5 -252t224.5 -82q99 0 173.5 23t138.5 53q2 26 3 49t1 54q0 101 -13.5 191t-51.5 159t-100.5 109t-158.5 40q-80 0 -136 -29t-90.5 -76.5t-50.5 -110t-16 -128.5z" />
<glyph unicode="&#xf80a;" d="M78 1350q0 213 86 321.5t221 108.5q136 0 221.5 -108.5t85.5 -321.5t-85.5 -321t-221.5 -108q-135 0 -221 108.5t-86 320.5zM200 1350q0 -66 8.5 -125.5t30 -103.5t57.5 -69.5t89 -25.5q54 0 89 25.5t56.5 69.5t30.5 103.5t9 125.5t-9 126t-30.5 103.5t-56.5 70t-89 26.5 q-53 0 -89 -26.5t-57.5 -70t-30 -103t-8.5 -126.5z" />
<glyph unicode="&#xf80b;" d="M131 1592q76 24 151 65.5t129 104.5h79v-823h-116v655q-24 -17 -55 -32.5t-61 -28.5t-57 -21.5t-41 -10.5z" />
<glyph unicode="&#xf80c;" d="M92 1676q37 38 102.5 71t162.5 33q121 0 187.5 -57.5t66.5 -174.5q0 -45 -16 -83.5t-42 -72t-59.5 -63.5t-70.5 -58q-55 -45 -90.5 -79.5t-56 -60.5t-28.5 -47.5t-8 -40.5h412v-104h-533q-2 11 -2 22v21q0 65 21.5 115.5t54.5 92.5t74 77.5t79 72.5q31 26 56.5 48.5 t44.5 47t31 52.5t12 65q0 71 -43 98t-101 27q-36 0 -67 -10t-57.5 -24t-44 -28l-27.5 -22z" />
<glyph unicode="&#xf80d;" d="M97 968l28 101q30 -15 76.5 -29t112.5 -14q123 0 166 42t43 104q0 45 -21.5 75.5t-56 49.5t-81 26.5t-93.5 7.5h-28v97h32q39 0 77 5t65.5 21.5t45 42t17.5 68.5q0 62 -40 88.5t-107 26.5q-69 0 -116 -20.5t-75 -40.5l-43 90q24 19 86.5 45t152.5 26q140 0 198.5 -57 t58.5 -147q0 -134 -131 -187q80 -24 129.5 -77.5t49.5 -144.5q0 -49 -18 -93t-57 -78t-100.5 -53.5t-147.5 -19.5q-82 0 -135.5 13.5t-87.5 31.5z" />
<glyph unicode="&#xf80e;" d="M71 1146v71q21 43 65.5 114t101.5 150.5t122.5 154.5t127.5 126h101v-521h110v-95h-110v-207h-113v207h-405zM193 1241h283v385q-37 -37 -78 -86t-79 -102t-71 -105.5t-55 -91.5z" />
<glyph unicode="&#xf80f;" d="M105 970l24 99q12 -7 33.5 -14t49.5 -15t58.5 -13.5t57.5 -5.5q66 0 109 13.5t65.5 35t31 47t8.5 50.5q0 37 -14.5 70.5t-54 59.5t-114 40.5t-195.5 14.5q14 107 24.5 200t14.5 210h418v-104h-318q-4 -50 -8.5 -104.5t-15.5 -109.5q197 -12 290 -78.5t93 -193.5 q0 -110 -78.5 -179.5t-255.5 -69.5q-64 0 -128.5 15t-94.5 32z" />
<glyph unicode="&#xf810;" d="M99 1271q0 241 138.5 365t377.5 132l13 -102q-162 -4 -268.5 -70t-127.5 -185q45 21 87 27t73 6q82 0 138.5 -19.5t91 -55.5t49.5 -81t15 -94q0 -48 -17 -96t-51.5 -88t-89 -64.5t-128.5 -24.5q-154 0 -227.5 94.5t-73.5 255.5zM217 1280q0 -56 8.5 -104t29 -83t55 -54.5 t88.5 -19.5q45 0 76 15.5t51.5 39t30.5 53.5t10 60q0 86 -42 123.5t-130 37.5q-48 0 -95 -7.5t-80 -22.5q-2 -10 -2 -20v-18z" />
<glyph unicode="&#xf811;" d="M97 1653v109h582v-89q-45 -43 -101.5 -121.5t-110.5 -178.5t-93 -212t-45 -222h-114q7 84 38 186.5t76 201.5t100 186t107 140h-439z" />
<glyph unicode="&#xf812;" d="M90 1150q0 82 44 131.5t100 80.5q-49 26 -84.5 71.5t-35.5 121.5q0 47 20 88t56 72t85 48t108 17q70 0 119.5 -18t83.5 -47t50 -68t16 -78q0 -75 -36.5 -123.5t-88.5 -81.5q84 -35 118 -90t34 -113q0 -105 -79 -172.5t-217 -67.5q-77 0 -133.5 19t-91.5 51t-51.5 74 t-16.5 85zM203 1163q0 -24 7 -49t27.5 -46.5t56 -36t89.5 -14.5q99 0 140 43t41 93q0 62 -58.5 104t-189.5 70q-51 -26 -82 -66t-31 -98zM226 1557q0 -64 48 -100t163 -64q53 35 78 75t25 95q0 47 -39 85t-118 38q-75 0 -116 -37t-41 -92z" />
<glyph unicode="&#xf813;" d="M86 1510q0 47 17.5 95t51.5 87t88 63.5t129 24.5q154 0 227.5 -94t73.5 -256q0 -236 -138.5 -365.5t-403.5 -131.5l-4 101q183 0 289.5 71t123.5 189q-45 -21 -87 -27.5t-73 -6.5q-82 0 -138.5 20.5t-90.5 55t-49.5 79.5t-15.5 95zM207 1516q0 -86 41.5 -122.5 t129.5 -36.5q47 0 95 7.5t79 22.5q2 10 2 20v19q0 111 -37 183.5t-143 72.5q-45 0 -76 -14.5t-51.5 -38t-30 -53.5t-9.5 -60z" />
<glyph unicode="&#xf814;" d="M78 161q0 213 86 321.5t221 108.5q136 0 221.5 -108.5t85.5 -321.5t-85.5 -321t-221.5 -108q-135 0 -221 108.5t-86 320.5zM200 161q0 -66 8.5 -125.5t30 -103.5t57.5 -69.5t89 -25.5q54 0 89 25.5t56.5 69.5t30.5 103.5t9 125.5t-9 126t-30.5 103.5t-56.5 70t-89 26.5 q-53 0 -89 -26.5t-57.5 -70t-30 -103t-8.5 -126.5z" />
<glyph unicode="&#xf815;" d="M131 403q76 24 151 65.5t129 104.5h79v-823h-116v655q-24 -17 -55 -32.5t-61 -28.5t-57 -21.5t-41 -10.5z" />
<glyph unicode="&#xf816;" d="M92 487q37 38 102.5 71t162.5 33q121 0 187.5 -57.5t66.5 -174.5q0 -45 -16 -83.5t-42 -72t-59.5 -63.5t-70.5 -58q-55 -45 -90.5 -79.5t-56 -60.5t-28.5 -47.5t-8 -40.5h412v-104h-533q-2 11 -2 22v21q0 65 21.5 115.5t54.5 92.5t74 77.5t79 72.5q31 26 56.5 48.5 t44.5 47t31 52.5t12 65q0 71 -43 98t-101 27q-36 0 -67 -10t-57.5 -24t-44 -28l-27.5 -22z" />
<glyph unicode="&#xf817;" d="M97 -221l28 101q30 -15 76.5 -29t112.5 -14q123 0 166 42t43 104q0 45 -21.5 75.5t-56 49.5t-81 26.5t-93.5 7.5h-28v97h32q39 0 77 5t65.5 21.5t45 42t17.5 68.5q0 62 -40 88.5t-107 26.5q-69 0 -116 -20.5t-75 -40.5l-43 90q24 19 86.5 45t152.5 26q140 0 198.5 -57 t58.5 -147q0 -134 -131 -187q80 -24 129.5 -77.5t49.5 -144.5q0 -49 -18 -93t-57 -78t-100.5 -53.5t-147.5 -19.5q-82 0 -135.5 13.5t-87.5 31.5z" />
<glyph unicode="&#xf818;" d="M71 28q21 43 65.5 114t101.5 150.5t122.5 154.5t127.5 126h101v-521h110v-95h-110v-207h-113v207h-405v71zM193 52h283v385q-37 -37 -78 -86t-79 -102t-71 -105.5t-55 -91.5z" />
<glyph unicode="&#xf819;" d="M105 -219l24 99q12 -7 33.5 -14t49.5 -15t58.5 -13.5t57.5 -5.5q66 0 109 13.5t65.5 35t31 47t8.5 50.5q0 37 -14.5 70.5t-54 59.5t-114 40.5t-195.5 14.5q14 107 24.5 200t14.5 210h418v-104h-318q-4 -50 -8.5 -104.5t-15.5 -109.5q197 -12 290 -78.5t93 -193.5 q0 -110 -78.5 -179.5t-255.5 -69.5q-64 0 -128.5 15t-94.5 32z" />
<glyph unicode="&#xf81a;" d="M99 82q0 241 138.5 365t377.5 132l13 -102q-162 -4 -268.5 -70t-127.5 -185q45 21 87 27t73 6q82 0 138.5 -19.5t91 -55.5t49.5 -81t15 -94q0 -48 -17 -96t-51.5 -88t-89 -64.5t-128.5 -24.5q-154 0 -227.5 94.5t-73.5 255.5zM217 91q0 -56 8.5 -104t29 -83t55 -54.5 t88.5 -19.5q45 0 76 15.5t51.5 39t30.5 53.5t10 60q0 86 -42 123.5t-130 37.5q-48 0 -95 -7.5t-80 -22.5q-2 -10 -2 -20v-18z" />
<glyph unicode="&#xf81b;" d="M97 464v109h582v-89q-45 -43 -101.5 -121.5t-110.5 -178.5t-93 -212t-45 -222h-114q7 84 38 186.5t76 201.5t100 186t107 140h-439z" />
<glyph unicode="&#xf81c;" d="M90 -39q0 82 44 131.5t100 80.5q-49 26 -84.5 71.5t-35.5 121.5q0 47 20 88t56 72t85 48t108 17q70 0 119.5 -18t83.5 -47t50 -68t16 -78q0 -75 -36.5 -123.5t-88.5 -81.5q84 -35 118 -90t34 -113q0 -105 -79 -172.5t-217 -67.5q-77 0 -133.5 19t-91.5 51t-51.5 74 t-16.5 85zM203 -26q0 -24 7 -49t27.5 -46.5t56 -36t89.5 -14.5q99 0 140 43t41 93q0 62 -58.5 104t-189.5 70q-51 -26 -82 -66t-31 -98zM226 368q0 -64 48 -100t163 -64q53 35 78 75t25 95q0 47 -39 85t-118 38q-75 0 -116 -37t-41 -92z" />
<glyph unicode="&#xf81d;" d="M86 321q0 47 17.5 95t51.5 87t88 63.5t129 24.5q154 0 227.5 -94t73.5 -256q0 -236 -138.5 -365.5t-403.5 -131.5l-4 101q183 0 289.5 71t123.5 189q-45 -21 -87 -27.5t-73 -6.5q-82 0 -138.5 20.5t-90.5 55t-49.5 79.5t-15.5 95zM207 327q0 -86 41.5 -122.5t129.5 -36.5 q47 0 95 7.5t79 22.5q2 10 2 20v19q0 111 -37 183.5t-143 72.5q-45 0 -76 -14.5t-51.5 -38t-30 -53.5t-9.5 -60z" />
<glyph horiz-adv-x="509" d="M150 1447q0 49 30.5 78.5t73.5 29.5t73 -29.5t30 -78.5t-30 -78t-73 -29t-73.5 29t-30.5 78zM185 0v1112h139v-1112h-139z" />
<glyph horiz-adv-x="665" d="M178 744q0 311 102.5 573.5t265.5 467.5l101 -69q-170 -211 -248.5 -446.5t-78.5 -525.5t79 -526t248 -446l-101 -69q-164 205 -266 467t-102 574z" />
<glyph horiz-adv-x="665" d="M19 -228q170 211 248.5 446.5t78.5 525.5q0 289 -78.5 525t-248.5 447l102 69q164 -205 265.5 -467.5t101.5 -573.5q0 -312 -102 -574t-265 -467z" />
<glyph horiz-adv-x="605" d="M60 689v136h486v-136h-486z" />
<glyph d="M-49 -297l733 2082h137l-729 -2082h-141z" />
<glyph horiz-adv-x="2021" d="M154 750q0 230 69.5 402t188.5 286t279.5 170t340.5 56q172 0 324 -58t266 -166t179.5 -260t65.5 -342q0 -140 -30.5 -246t-83 -177.5t-123.5 -107.5t-153 -36q-69 0 -110.5 23.5t-61.5 51.5q-39 -27 -105.5 -52t-145.5 -25q-98 0 -181 29t-144.5 88t-96.5 149.5 t-35 212.5q0 100 31.5 189t90.5 154.5t146 103t200 37.5q103 0 186 -18.5t130 -37.5v-630q0 -84 28.5 -120.5t76.5 -36.5q73 0 119.5 46t73 116.5t37.5 148.5t11 143q0 140 -47.5 266.5t-137 222.5t-218 152.5t-292.5 56.5q-166 0 -301.5 -52.5t-232 -153.5t-150 -248 t-53.5 -337q0 -200 59 -350.5t162.5 -251.5t244 -151.5t304.5 -50.5q125 0 197 12t95 20l15 -118q-36 -10 -122.5 -23t-184.5 -13q-187 0 -353 54.5t-289.5 169.5t-196 289t-72.5 413zM742 750q0 -95 24 -163.5t64 -114t96.5 -67t118.5 -21.5q73 0 118.5 12t94.5 43 q-8 21 -11.5 54t-3.5 57v546q-17 4 -55.5 12t-108.5 8q-81 0 -145 -27t-106.5 -75.5t-64 -116t-21.5 -147.5z" />
<glyph horiz-adv-x="665" d="M215 -297v2082h434v-108h-300v-1866h300v-108h-434z" />
<glyph d="M-49 1785h137l733 -2082h-142z" />
<glyph horiz-adv-x="665" d="M17 -189h301v1866h-301v108h435v-2082h-435v108z" />
<glyph horiz-adv-x="685" d="M92 669v105q54 0 93 19.5t64.5 49.5t37.5 67.5t12 76.5v417q0 86 16 154t56 113t108.5 68.5t172.5 23.5h17v-107q-88 0 -135.5 -17.5t-70 -59.5t-26.5 -109.5t-4 -168.5v-230q0 -80 -10 -137t-29.5 -97.5t-47.5 -68t-62 -45.5q34 -19 62 -46.5t47.5 -68.5t29.5 -98.5 t10 -137.5v-230q0 -101 4 -168.5t26.5 -109.5t70 -59.5t135.5 -17.5v-107h-17q-103 0 -172 23.5t-109 68.5t-56 112t-16 155v417q0 39 -12 76t-37.5 67.5t-64.5 50t-93 19.5z" />
<glyph horiz-adv-x="685" d="M17 -213q88 0 135.5 17.5t70 59.5t27 109.5t4.5 168.5v230q0 80 9.5 137.5t29 98.5t47.5 68.5t62 46.5q-34 18 -62 45.5t-47.5 68t-29 97.5t-9.5 137v230q0 101 -4.5 168.5t-27 109.5t-70 59.5t-135.5 17.5v107h18q103 0 171.5 -23.5t108.5 -68.5t56 -113t16 -154v-417 q0 -39 12 -76.5t37.5 -67.5t64.5 -49.5t92 -19.5v-105q-53 0 -92 -19.5t-64.5 -50t-37.5 -67.5t-12 -76v-417q0 -88 -16 -155t-56 -112t-108.5 -68.5t-171.5 -23.5h-18v107z" />
<glyph horiz-adv-x="591" d="M78 744l326 454l88 -56l-249 -398l249 -400l-88 -57z" />
<glyph horiz-adv-x="773" d="M129 746q0 52 17.5 98t50.5 81.5t81.5 57t108.5 21.5t107.5 -21.5t81 -57t51.5 -81.5t18 -98q0 -51 -18 -98.5t-51.5 -83t-81 -56t-107.5 -20.5q-59 0 -108 20.5t-82 56t-50.5 83t-17.5 98.5z" />
<glyph horiz-adv-x="1065" d="M-4 648v122h1075v-122h-1075z" />
<glyph horiz-adv-x="2140" d="M-4 648v122h2150v-122h-2150z" />
<glyph horiz-adv-x="591" d="M99 344l250 400l-250 398l88 56l326 -454l-326 -457z" />
<glyph horiz-adv-x="589" d="M176 1380q0 50 31 84.5t88 34.5q56 0 87 -34.5t31 -84.5q0 -49 -31 -83t-87 -34t-87.5 34t-31.5 83zM219 -11v408q0 185 12 329.5t31 288.5h65q8 -72 16 -142.5t14 -145.5t9.5 -156t3.5 -174v-408h-151z" />
<glyph horiz-adv-x="971" d="M78 744l326 454l88 -56l-249 -398l249 -400l-88 -57zM458 744l326 454l88 -56l-249 -398l249 -400l-88 -57z" />
<glyph horiz-adv-x="971" d="M99 344l250 400l-250 398l88 56l326 -454l-326 -457zM479 344l250 400l-250 398l88 56l326 -454l-326 -457z" />
<glyph horiz-adv-x="816" d="M64 290q0 74 27.5 134t68 111.5t89 101t89 101t68 111t27.5 131.5v18.5t-3 16.5h110q8 -37 8 -80q0 -69 -24.5 -126t-62.5 -106t-80.5 -96.5t-80.5 -94.5t-62.5 -98t-24.5 -111q0 -56 21.5 -92.5t57 -58t83.5 -31t103 -9.5q142 0 262 64l40 -116q-45 -26 -129.5 -49.5 t-188.5 -23.5q-117 0 -193 29t-122 73t-64.5 98t-18.5 103zM353 1380q0 50 31 84.5t87 34.5t87 -34.5t31 -84.5q0 -49 -31 -83t-87 -34q-55 0 -86.5 34t-31.5 83z" />
</font>
</defs>
</svg>
